<mxfile host="Electron" modified="2024-07-26T19:19:15.378Z" agent="Mozilla/5.0 (Windows NT 10.0; Win64; x64) AppleWebKit/537.36 (KHTML, like Gecko) draw.io/21.7.5 Chrome/114.0.5735.289 Electron/25.8.1 Safari/537.36" etag="rEvg4aC0GktY1Ihts748" version="21.7.5" type="device" pages="2">
  <diagram name="Page-1" id="HIJ8mtWe8pUWvnPwBqvz">
    <mxGraphModel dx="3277" dy="751" grid="1" gridSize="10" guides="1" tooltips="1" connect="1" arrows="1" fold="1" page="1" pageScale="1" pageWidth="850" pageHeight="1100" math="0" shadow="0">
      <root>
        <mxCell id="0" />
        <mxCell id="1" parent="0" />
        <mxCell id="DMT-dN4wNDoVank6GRrY-1" value="MainUI" style="swimlane;fontStyle=1;align=center;verticalAlign=top;childLayout=stackLayout;horizontal=1;startSize=26;horizontalStack=0;resizeParent=1;resizeParentMax=0;resizeLast=0;collapsible=1;marginBottom=0;whiteSpace=wrap;html=1;" parent="1" vertex="1">
          <mxGeometry x="200" y="210" width="350" height="200" as="geometry" />
        </mxCell>
        <mxCell id="DMT-dN4wNDoVank6GRrY-2" value="- houseUI: HouseUI&lt;br&gt;- landUI: LandUI&lt;br&gt;- uiController: UIController&lt;br&gt;- jPanel: JPanel&lt;br&gt;- jMenu: JMenu" style="text;strokeColor=none;fillColor=none;align=left;verticalAlign=top;spacingLeft=4;spacingRight=4;overflow=hidden;rotatable=0;points=[[0,0.5],[1,0.5]];portConstraint=eastwest;whiteSpace=wrap;html=1;" parent="DMT-dN4wNDoVank6GRrY-1" vertex="1">
          <mxGeometry y="26" width="350" height="94" as="geometry" />
        </mxCell>
        <mxCell id="DMT-dN4wNDoVank6GRrY-3" value="" style="line;strokeWidth=1;fillColor=none;align=left;verticalAlign=middle;spacingTop=-1;spacingLeft=3;spacingRight=3;rotatable=0;labelPosition=right;points=[];portConstraint=eastwest;strokeColor=inherit;" parent="DMT-dN4wNDoVank6GRrY-1" vertex="1">
          <mxGeometry y="120" width="350" height="8" as="geometry" />
        </mxCell>
        <mxCell id="DMT-dN4wNDoVank6GRrY-4" value="MainUI()&lt;br&gt;+ setSize(double, double): void&lt;br&gt;+ setJMenuBar(JMenu): void&lt;br&gt;+&amp;nbsp;actionPerformed(ActionEvent): void" style="text;strokeColor=none;fillColor=none;align=left;verticalAlign=top;spacingLeft=4;spacingRight=4;overflow=hidden;rotatable=0;points=[[0,0.5],[1,0.5]];portConstraint=eastwest;whiteSpace=wrap;html=1;" parent="DMT-dN4wNDoVank6GRrY-1" vertex="1">
          <mxGeometry y="128" width="350" height="72" as="geometry" />
        </mxCell>
        <mxCell id="DMT-dN4wNDoVank6GRrY-17" value="Extends" style="endArrow=block;endSize=16;endFill=0;html=1;rounded=0;exitX=-0.01;exitY=0.206;exitDx=0;exitDy=0;entryX=0.75;entryY=1;entryDx=0;entryDy=0;exitPerimeter=0;" parent="1" source="DMT-dN4wNDoVank6GRrY-2" target="DMT-dN4wNDoVank6GRrY-24" edge="1">
          <mxGeometry width="160" relative="1" as="geometry">
            <mxPoint x="150" y="180" as="sourcePoint" />
            <mxPoint x="178.08000000000015" y="156.98800000000028" as="targetPoint" />
          </mxGeometry>
        </mxCell>
        <mxCell id="DMT-dN4wNDoVank6GRrY-24" value="&lt;p style=&quot;margin:0px;margin-top:4px;text-align:center;&quot;&gt;&lt;b&gt;javax.swing&lt;/b&gt;&lt;/p&gt;&lt;p style=&quot;margin:0px;margin-top:4px;text-align:center;&quot;&gt;&lt;b&gt;JFrame&lt;/b&gt;&lt;/p&gt;&lt;hr size=&quot;1&quot; style=&quot;border-style:solid;&quot;&gt;&lt;p style=&quot;margin:0px;margin-left:4px;&quot;&gt;-&amp;nbsp;&lt;/p&gt;&lt;hr size=&quot;1&quot; style=&quot;border-style:solid;&quot;&gt;&lt;p style=&quot;margin:0px;margin-left:4px;&quot;&gt;+&amp;nbsp;&lt;/p&gt;" style="verticalAlign=top;align=left;overflow=fill;html=1;whiteSpace=wrap;" parent="1" vertex="1">
          <mxGeometry x="50" y="50" width="120" height="100" as="geometry" />
        </mxCell>
        <mxCell id="8F1XyEU1k7PKuXgPBpiQ-6" value="&lt;p style=&quot;margin:0px;margin-top:4px;text-align:center;&quot;&gt;&lt;b&gt;java.awt.event&lt;br&gt;ActionListener&lt;/b&gt;&lt;/p&gt;&lt;hr size=&quot;1&quot; style=&quot;border-style:solid;&quot;&gt;&lt;p style=&quot;margin:0px;margin-left:4px;&quot;&gt;-&amp;nbsp;&lt;/p&gt;&lt;hr size=&quot;1&quot; style=&quot;border-style:solid;&quot;&gt;&lt;p style=&quot;margin:0px;margin-left:4px;&quot;&gt;+&amp;nbsp;&lt;/p&gt;" style="verticalAlign=top;align=left;overflow=fill;html=1;whiteSpace=wrap;" parent="1" vertex="1">
          <mxGeometry x="515" y="40" width="120" height="100" as="geometry" />
        </mxCell>
        <mxCell id="8F1XyEU1k7PKuXgPBpiQ-9" value="HouseUI" style="swimlane;fontStyle=1;align=center;verticalAlign=top;childLayout=stackLayout;horizontal=1;startSize=26;horizontalStack=0;resizeParent=1;resizeParentMax=0;resizeLast=0;collapsible=1;marginBottom=0;whiteSpace=wrap;html=1;" parent="1" vertex="1">
          <mxGeometry x="-120" y="570" width="350" height="280" as="geometry" />
        </mxCell>
        <mxCell id="8F1XyEU1k7PKuXgPBpiQ-10" value="- houseService:HouseService&lt;br&gt;- houseUIController: HouseUIController&lt;br&gt;-&amp;nbsp;tableModel:&amp;nbsp;DefaultTableModel&lt;br&gt;- houseTable: JTable&lt;br&gt;- addButton, updateButton, deleteButton, findButton,...: JButton&lt;br&gt;- labelMaGiaoDich, labelNgayGiaoDich,...: JLabel&lt;br&gt;- textMaGiaoDich, textNgayGiaoDich,...: JTextField" style="text;strokeColor=none;fillColor=none;align=left;verticalAlign=top;spacingLeft=4;spacingRight=4;overflow=hidden;rotatable=0;points=[[0,0.5],[1,0.5]];portConstraint=eastwest;whiteSpace=wrap;html=1;" parent="8F1XyEU1k7PKuXgPBpiQ-9" vertex="1">
          <mxGeometry y="26" width="350" height="114" as="geometry" />
        </mxCell>
        <mxCell id="8F1XyEU1k7PKuXgPBpiQ-11" value="" style="line;strokeWidth=1;fillColor=none;align=left;verticalAlign=middle;spacingTop=-1;spacingLeft=3;spacingRight=3;rotatable=0;labelPosition=right;points=[];portConstraint=eastwest;strokeColor=inherit;" parent="8F1XyEU1k7PKuXgPBpiQ-9" vertex="1">
          <mxGeometry y="140" width="350" height="8" as="geometry" />
        </mxCell>
        <mxCell id="8F1XyEU1k7PKuXgPBpiQ-12" value="HouseUI(HouseService, CommandProcessor)&lt;br&gt;+ setSize(double, double): void&lt;br&gt;+ addHouse(): void&lt;br&gt;+ updateHouse(): void&lt;br&gt;+ deleteHouse(): void&lt;br&gt;+ reloadTable(): void&lt;br&gt;+&amp;nbsp;actionPerformed(ActionEvent): void&lt;br&gt;+ valueChanged(ListSelectionEvent): void" style="text;strokeColor=none;fillColor=none;align=left;verticalAlign=top;spacingLeft=4;spacingRight=4;overflow=hidden;rotatable=0;points=[[0,0.5],[1,0.5]];portConstraint=eastwest;whiteSpace=wrap;html=1;" parent="8F1XyEU1k7PKuXgPBpiQ-9" vertex="1">
          <mxGeometry y="148" width="350" height="132" as="geometry" />
        </mxCell>
        <mxCell id="8F1XyEU1k7PKuXgPBpiQ-13" value="" style="endArrow=open;endFill=1;endSize=12;html=1;rounded=0;exitX=0.131;exitY=1.031;exitDx=0;exitDy=0;exitPerimeter=0;entryX=0.75;entryY=0;entryDx=0;entryDy=0;" parent="1" source="DMT-dN4wNDoVank6GRrY-4" target="8F1XyEU1k7PKuXgPBpiQ-9" edge="1">
          <mxGeometry width="160" relative="1" as="geometry">
            <mxPoint x="230" y="500" as="sourcePoint" />
            <mxPoint x="390" y="500" as="targetPoint" />
          </mxGeometry>
        </mxCell>
        <mxCell id="8F1XyEU1k7PKuXgPBpiQ-24" value="" style="endArrow=block;dashed=1;endFill=0;endSize=12;html=1;rounded=0;exitX=0.106;exitY=-0.004;exitDx=0;exitDy=0;exitPerimeter=0;entryX=0.5;entryY=1;entryDx=0;entryDy=0;" parent="1" source="8F1XyEU1k7PKuXgPBpiQ-9" target="8F1XyEU1k7PKuXgPBpiQ-40" edge="1">
          <mxGeometry width="160" relative="1" as="geometry">
            <mxPoint x="-279.1199999999999" y="568.44" as="sourcePoint" />
            <mxPoint x="-279" y="380" as="targetPoint" />
          </mxGeometry>
        </mxCell>
        <mxCell id="8F1XyEU1k7PKuXgPBpiQ-25" value="LandUI" style="swimlane;fontStyle=1;align=center;verticalAlign=top;childLayout=stackLayout;horizontal=1;startSize=26;horizontalStack=0;resizeParent=1;resizeParentMax=0;resizeLast=0;collapsible=1;marginBottom=0;whiteSpace=wrap;html=1;" parent="1" vertex="1">
          <mxGeometry x="490" y="570" width="350" height="290" as="geometry" />
        </mxCell>
        <mxCell id="8F1XyEU1k7PKuXgPBpiQ-26" value="- landService: LandService&lt;br&gt;- landUIController: LandUIController&lt;br&gt;-&amp;nbsp;tableModel:&amp;nbsp;DefaultTableModel&lt;br&gt;- landTable: JTable&lt;br&gt;- addButton, updateButton, deleteButton, findButton,...: JButton&lt;br&gt;- labelMaGiaoDich, labelNgayGiaoDich,...: JLabel&lt;br&gt;- textMaGiaoDich, textNgayGiaoDich,...: JTextField" style="text;strokeColor=none;fillColor=none;align=left;verticalAlign=top;spacingLeft=4;spacingRight=4;overflow=hidden;rotatable=0;points=[[0,0.5],[1,0.5]];portConstraint=eastwest;whiteSpace=wrap;html=1;" parent="8F1XyEU1k7PKuXgPBpiQ-25" vertex="1">
          <mxGeometry y="26" width="350" height="114" as="geometry" />
        </mxCell>
        <mxCell id="8F1XyEU1k7PKuXgPBpiQ-27" value="" style="line;strokeWidth=1;fillColor=none;align=left;verticalAlign=middle;spacingTop=-1;spacingLeft=3;spacingRight=3;rotatable=0;labelPosition=right;points=[];portConstraint=eastwest;strokeColor=inherit;" parent="8F1XyEU1k7PKuXgPBpiQ-25" vertex="1">
          <mxGeometry y="140" width="350" height="8" as="geometry" />
        </mxCell>
        <mxCell id="8F1XyEU1k7PKuXgPBpiQ-28" value="LandUI()&lt;br&gt;+ setSize(double, double): void&lt;br&gt;+ addLand(): void&lt;br&gt;+ updateLand(): void&lt;br&gt;+ deleteLand(): void&lt;br&gt;+ reloadTable(): void&lt;br&gt;+&amp;nbsp;actionPerformed(ActionEvent): void&lt;br&gt;+ valueChanged(ListSelectionEvent): void" style="text;strokeColor=none;fillColor=none;align=left;verticalAlign=top;spacingLeft=4;spacingRight=4;overflow=hidden;rotatable=0;points=[[0,0.5],[1,0.5]];portConstraint=eastwest;whiteSpace=wrap;html=1;" parent="8F1XyEU1k7PKuXgPBpiQ-25" vertex="1">
          <mxGeometry y="148" width="350" height="142" as="geometry" />
        </mxCell>
        <mxCell id="8F1XyEU1k7PKuXgPBpiQ-35" value="" style="endArrow=block;dashed=1;endFill=0;endSize=12;html=1;rounded=0;exitX=1;exitY=0;exitDx=0;exitDy=0;entryX=0.5;entryY=1;entryDx=0;entryDy=0;" parent="1" source="8F1XyEU1k7PKuXgPBpiQ-25" target="8F1XyEU1k7PKuXgPBpiQ-41" edge="1">
          <mxGeometry width="160" relative="1" as="geometry">
            <mxPoint x="1086.1599999999999" y="568.44" as="sourcePoint" />
            <mxPoint x="980" y="340" as="targetPoint" />
          </mxGeometry>
        </mxCell>
        <mxCell id="8F1XyEU1k7PKuXgPBpiQ-36" value="" style="endArrow=open;endFill=1;endSize=12;html=1;rounded=0;exitX=0.853;exitY=0.989;exitDx=0;exitDy=0;exitPerimeter=0;entryX=0.098;entryY=-0.005;entryDx=0;entryDy=0;entryPerimeter=0;" parent="1" source="DMT-dN4wNDoVank6GRrY-4" target="8F1XyEU1k7PKuXgPBpiQ-25" edge="1">
          <mxGeometry width="160" relative="1" as="geometry">
            <mxPoint x="209" y="451" as="sourcePoint" />
            <mxPoint x="123" y="540" as="targetPoint" />
          </mxGeometry>
        </mxCell>
        <mxCell id="8F1XyEU1k7PKuXgPBpiQ-37" value="&lt;p style=&quot;margin:0px;margin-top:4px;text-align:center;&quot;&gt;&lt;i&gt;&amp;lt;&amp;lt;interface&amp;gt;&amp;gt;&lt;/i&gt;&lt;br&gt;&lt;b&gt;HouseService&lt;/b&gt;&lt;br&gt;&lt;/p&gt;&lt;hr size=&quot;1&quot;&gt;&lt;p style=&quot;margin:0px;margin-left:4px;&quot;&gt;-&amp;nbsp;&lt;/p&gt;&lt;hr size=&quot;1&quot;&gt;&lt;p style=&quot;margin:0px;margin-left:4px;&quot;&gt;+&amp;nbsp;addHouse&lt;i style=&quot;background-color: initial;&quot;&gt;(&lt;/i&gt;House&lt;i style=&quot;background-color: initial;&quot;&gt;)&lt;/i&gt;&lt;span style=&quot;background-color: initial;&quot;&gt;: void&lt;br&gt;+&amp;nbsp;&lt;/span&gt;updateHouse(House): void&lt;br&gt;+ deleteHouse(int): void&lt;br&gt;+ findHouse(int): House&lt;br&gt;+ getAllHouses(): List&amp;lt;House&amp;gt;&lt;br&gt;+&amp;nbsp;searchHousesByName(String): List&amp;lt;House&amp;gt;&lt;/p&gt;" style="verticalAlign=top;align=left;overflow=fill;fontSize=12;fontFamily=Helvetica;html=1;whiteSpace=wrap;" parent="1" vertex="1">
          <mxGeometry x="-310" y="935" width="260" height="170" as="geometry" />
        </mxCell>
        <mxCell id="8F1XyEU1k7PKuXgPBpiQ-39" value="" style="endArrow=open;endFill=1;endSize=12;html=1;rounded=0;exitX=0.233;exitY=0.989;exitDx=0;exitDy=0;exitPerimeter=0;entryX=0.5;entryY=0;entryDx=0;entryDy=0;" parent="1" source="8F1XyEU1k7PKuXgPBpiQ-12" target="8F1XyEU1k7PKuXgPBpiQ-37" edge="1">
          <mxGeometry width="160" relative="1" as="geometry">
            <mxPoint x="242" y="452" as="sourcePoint" />
            <mxPoint x="243" y="570" as="targetPoint" />
          </mxGeometry>
        </mxCell>
        <mxCell id="8F1XyEU1k7PKuXgPBpiQ-40" value="&lt;p style=&quot;margin:0px;margin-top:4px;text-align:center;&quot;&gt;&lt;b&gt;java.awt.event&lt;br&gt;ActionListener&lt;/b&gt;&lt;/p&gt;&lt;hr size=&quot;1&quot; style=&quot;border-style:solid;&quot;&gt;&lt;p style=&quot;margin:0px;margin-left:4px;&quot;&gt;-&amp;nbsp;&lt;/p&gt;&lt;hr size=&quot;1&quot; style=&quot;border-style:solid;&quot;&gt;&lt;p style=&quot;margin:0px;margin-left:4px;&quot;&gt;+&amp;nbsp;&lt;/p&gt;" style="verticalAlign=top;align=left;overflow=fill;html=1;whiteSpace=wrap;" parent="1" vertex="1">
          <mxGeometry x="-210" y="380" width="120" height="100" as="geometry" />
        </mxCell>
        <mxCell id="8F1XyEU1k7PKuXgPBpiQ-41" value="&lt;p style=&quot;margin:0px;margin-top:4px;text-align:center;&quot;&gt;&lt;b&gt;java.awt.event&lt;br&gt;ActionListener&lt;/b&gt;&lt;/p&gt;&lt;hr size=&quot;1&quot; style=&quot;border-style:solid;&quot;&gt;&lt;p style=&quot;margin:0px;margin-left:4px;&quot;&gt;-&amp;nbsp;&lt;/p&gt;&lt;hr size=&quot;1&quot; style=&quot;border-style:solid;&quot;&gt;&lt;p style=&quot;margin:0px;margin-left:4px;&quot;&gt;+&amp;nbsp;&lt;/p&gt;" style="verticalAlign=top;align=left;overflow=fill;html=1;whiteSpace=wrap;" parent="1" vertex="1">
          <mxGeometry x="1040" y="410" width="120" height="100" as="geometry" />
        </mxCell>
        <mxCell id="8F1XyEU1k7PKuXgPBpiQ-42" value="&lt;p style=&quot;margin:0px;margin-top:4px;text-align:center;&quot;&gt;&lt;b&gt;javax.swing&lt;/b&gt;&lt;/p&gt;&lt;p style=&quot;margin:0px;margin-top:4px;text-align:center;&quot;&gt;&lt;b&gt;JFrame&lt;/b&gt;&lt;/p&gt;&lt;hr size=&quot;1&quot; style=&quot;border-style:solid;&quot;&gt;&lt;p style=&quot;margin:0px;margin-left:4px;&quot;&gt;-&amp;nbsp;&lt;/p&gt;&lt;hr size=&quot;1&quot; style=&quot;border-style:solid;&quot;&gt;&lt;p style=&quot;margin:0px;margin-left:4px;&quot;&gt;+&amp;nbsp;&lt;/p&gt;" style="verticalAlign=top;align=left;overflow=fill;html=1;whiteSpace=wrap;" parent="1" vertex="1">
          <mxGeometry x="-60" y="380" width="120" height="100" as="geometry" />
        </mxCell>
        <mxCell id="8F1XyEU1k7PKuXgPBpiQ-43" value="Extends" style="endArrow=block;endSize=16;endFill=0;html=1;rounded=0;exitX=0.25;exitY=0;exitDx=0;exitDy=0;entryX=0.75;entryY=1;entryDx=0;entryDy=0;" parent="1" source="8F1XyEU1k7PKuXgPBpiQ-9" target="8F1XyEU1k7PKuXgPBpiQ-42" edge="1">
          <mxGeometry width="160" relative="1" as="geometry">
            <mxPoint x="205" y="234" as="sourcePoint" />
            <mxPoint x="30" y="390" as="targetPoint" />
          </mxGeometry>
        </mxCell>
        <mxCell id="8F1XyEU1k7PKuXgPBpiQ-44" value="&lt;p style=&quot;margin:0px;margin-top:4px;text-align:center;&quot;&gt;&lt;b&gt;javax.swing&lt;/b&gt;&lt;/p&gt;&lt;p style=&quot;margin:0px;margin-top:4px;text-align:center;&quot;&gt;&lt;b&gt;JFrame&lt;/b&gt;&lt;/p&gt;&lt;hr size=&quot;1&quot; style=&quot;border-style:solid;&quot;&gt;&lt;p style=&quot;margin:0px;margin-left:4px;&quot;&gt;-&amp;nbsp;&lt;/p&gt;&lt;hr size=&quot;1&quot; style=&quot;border-style:solid;&quot;&gt;&lt;p style=&quot;margin:0px;margin-left:4px;&quot;&gt;+&amp;nbsp;&lt;/p&gt;" style="verticalAlign=top;align=left;overflow=fill;html=1;whiteSpace=wrap;" parent="1" vertex="1">
          <mxGeometry x="830" y="400" width="120" height="100" as="geometry" />
        </mxCell>
        <mxCell id="8F1XyEU1k7PKuXgPBpiQ-45" value="Extends" style="endArrow=block;endSize=16;endFill=0;html=1;rounded=0;exitX=0.75;exitY=0;exitDx=0;exitDy=0;entryX=0.25;entryY=1;entryDx=0;entryDy=0;" parent="1" source="8F1XyEU1k7PKuXgPBpiQ-25" target="8F1XyEU1k7PKuXgPBpiQ-44" edge="1">
          <mxGeometry width="160" relative="1" as="geometry">
            <mxPoint x="1058" y="530" as="sourcePoint" />
            <mxPoint x="1120" y="350" as="targetPoint" />
          </mxGeometry>
        </mxCell>
        <mxCell id="8F1XyEU1k7PKuXgPBpiQ-46" value="HouseServiceImpl" style="swimlane;fontStyle=1;align=center;verticalAlign=top;childLayout=stackLayout;horizontal=1;startSize=26;horizontalStack=0;resizeParent=1;resizeParentMax=0;resizeLast=0;collapsible=1;marginBottom=0;whiteSpace=wrap;html=1;" parent="1" vertex="1">
          <mxGeometry x="-210" y="1300" width="270" height="160" as="geometry" />
        </mxCell>
        <mxCell id="8F1XyEU1k7PKuXgPBpiQ-47" value="-&amp;nbsp;persistenceService: HousePersistenceService" style="text;strokeColor=none;fillColor=none;align=left;verticalAlign=top;spacingLeft=4;spacingRight=4;overflow=hidden;rotatable=0;points=[[0,0.5],[1,0.5]];portConstraint=eastwest;whiteSpace=wrap;html=1;" parent="8F1XyEU1k7PKuXgPBpiQ-46" vertex="1">
          <mxGeometry y="26" width="270" height="26" as="geometry" />
        </mxCell>
        <mxCell id="8F1XyEU1k7PKuXgPBpiQ-48" value="" style="line;strokeWidth=1;fillColor=none;align=left;verticalAlign=middle;spacingTop=-1;spacingLeft=3;spacingRight=3;rotatable=0;labelPosition=right;points=[];portConstraint=eastwest;strokeColor=inherit;" parent="8F1XyEU1k7PKuXgPBpiQ-46" vertex="1">
          <mxGeometry y="52" width="270" height="8" as="geometry" />
        </mxCell>
        <mxCell id="8F1XyEU1k7PKuXgPBpiQ-49" value="HouseServiceImpl(HousePersistenceService)&lt;br&gt;+&amp;nbsp;updateHouse(House): void&lt;br style=&quot;border-color: var(--border-color);&quot;&gt;+ deleteHouse(int): void&lt;br style=&quot;border-color: var(--border-color);&quot;&gt;+ findHouse(int): House&lt;br style=&quot;border-color: var(--border-color);&quot;&gt;+ getAllHouses(): List&amp;lt;House&amp;gt;&lt;br style=&quot;border-color: var(--border-color);&quot;&gt;+&amp;nbsp;searchHousesByName(String): List&amp;lt;House&amp;gt;" style="text;strokeColor=none;fillColor=none;align=left;verticalAlign=top;spacingLeft=4;spacingRight=4;overflow=hidden;rotatable=0;points=[[0,0.5],[1,0.5]];portConstraint=eastwest;whiteSpace=wrap;html=1;" parent="8F1XyEU1k7PKuXgPBpiQ-46" vertex="1">
          <mxGeometry y="60" width="270" height="100" as="geometry" />
        </mxCell>
        <mxCell id="8F1XyEU1k7PKuXgPBpiQ-50" value="" style="endArrow=block;dashed=1;endFill=0;endSize=12;html=1;rounded=0;exitX=0.25;exitY=0;exitDx=0;exitDy=0;entryX=0.8;entryY=1.002;entryDx=0;entryDy=0;entryPerimeter=0;" parent="1" source="8F1XyEU1k7PKuXgPBpiQ-46" target="8F1XyEU1k7PKuXgPBpiQ-37" edge="1">
          <mxGeometry width="160" relative="1" as="geometry">
            <mxPoint x="1086" y="528" as="sourcePoint" />
            <mxPoint x="1140" y="470" as="targetPoint" />
          </mxGeometry>
        </mxCell>
        <mxCell id="8F1XyEU1k7PKuXgPBpiQ-51" value="&lt;p style=&quot;margin:0px;margin-top:4px;text-align:center;&quot;&gt;&lt;i&gt;&amp;lt;&amp;lt;interface&amp;gt;&amp;gt;&lt;/i&gt;&lt;br&gt;&lt;b&gt;HousePersistenceService&lt;/b&gt;&lt;br&gt;&lt;/p&gt;&lt;hr size=&quot;1&quot;&gt;&lt;p style=&quot;margin:0px;margin-left:4px;&quot;&gt;-&amp;nbsp;&lt;/p&gt;&lt;hr size=&quot;1&quot;&gt;&lt;p style=&quot;margin:0px;margin-left:4px;&quot;&gt;+&amp;nbsp;addHouse&lt;i style=&quot;background-color: initial;&quot;&gt;(&lt;/i&gt;House&lt;i style=&quot;background-color: initial;&quot;&gt;)&lt;/i&gt;&lt;span style=&quot;background-color: initial;&quot;&gt;: void&lt;br&gt;+&amp;nbsp;&lt;/span&gt;updateHouse(House): void&lt;br&gt;+ deleteHouse(int): void&lt;br&gt;+&amp;nbsp;getHouseByID&lt;span style=&quot;background-color: initial;&quot;&gt;(int): House&lt;/span&gt;&lt;/p&gt;&lt;p style=&quot;margin:0px;margin-left:4px;&quot;&gt;+ getAllHouses(): List&amp;lt;House&amp;gt;&lt;br&gt;&lt;/p&gt;" style="verticalAlign=top;align=left;overflow=fill;fontSize=12;fontFamily=Helvetica;html=1;whiteSpace=wrap;" parent="1" vertex="1">
          <mxGeometry x="-280" y="1630" width="260" height="170" as="geometry" />
        </mxCell>
        <mxCell id="8F1XyEU1k7PKuXgPBpiQ-52" value="" style="endArrow=open;endFill=1;endSize=12;html=1;rounded=0;exitX=0.458;exitY=1.008;exitDx=0;exitDy=0;exitPerimeter=0;entryX=0.433;entryY=-0.009;entryDx=0;entryDy=0;entryPerimeter=0;" parent="1" source="8F1XyEU1k7PKuXgPBpiQ-49" target="8F1XyEU1k7PKuXgPBpiQ-51" edge="1">
          <mxGeometry width="160" relative="1" as="geometry">
            <mxPoint x="-28" y="829" as="sourcePoint" />
            <mxPoint x="-40" y="890" as="targetPoint" />
          </mxGeometry>
        </mxCell>
        <mxCell id="8F1XyEU1k7PKuXgPBpiQ-53" value="HousePersistenceServiceImpl" style="swimlane;fontStyle=1;align=center;verticalAlign=top;childLayout=stackLayout;horizontal=1;startSize=26;horizontalStack=0;resizeParent=1;resizeParentMax=0;resizeLast=0;collapsible=1;marginBottom=0;whiteSpace=wrap;html=1;" parent="1" vertex="1">
          <mxGeometry x="-260" y="1920" width="260" height="190" as="geometry" />
        </mxCell>
        <mxCell id="8F1XyEU1k7PKuXgPBpiQ-54" value="- filePath: String" style="text;strokeColor=none;fillColor=none;align=left;verticalAlign=top;spacingLeft=4;spacingRight=4;overflow=hidden;rotatable=0;points=[[0,0.5],[1,0.5]];portConstraint=eastwest;whiteSpace=wrap;html=1;" parent="8F1XyEU1k7PKuXgPBpiQ-53" vertex="1">
          <mxGeometry y="26" width="260" height="26" as="geometry" />
        </mxCell>
        <mxCell id="8F1XyEU1k7PKuXgPBpiQ-55" value="" style="line;strokeWidth=1;fillColor=none;align=left;verticalAlign=middle;spacingTop=-1;spacingLeft=3;spacingRight=3;rotatable=0;labelPosition=right;points=[];portConstraint=eastwest;strokeColor=inherit;" parent="8F1XyEU1k7PKuXgPBpiQ-53" vertex="1">
          <mxGeometry y="52" width="260" height="8" as="geometry" />
        </mxCell>
        <mxCell id="8F1XyEU1k7PKuXgPBpiQ-56" value="HousePersistenceServiceImpl(String)&lt;br&gt;+ saveData(List&amp;lt;House&amp;gt;): void&lt;br&gt;&lt;span style=&quot;background-color: initial;&quot;&gt;+&amp;nbsp;addHouse&lt;/span&gt;&lt;i style=&quot;background-color: initial; border-color: var(--border-color);&quot;&gt;(&lt;/i&gt;&lt;span style=&quot;background-color: initial;&quot;&gt;House&lt;/span&gt;&lt;i style=&quot;background-color: initial; border-color: var(--border-color);&quot;&gt;)&lt;/i&gt;&lt;span style=&quot;background-color: initial;&quot;&gt;: void&lt;br&gt;&lt;/span&gt;&lt;span style=&quot;background-color: initial;&quot;&gt;+&amp;nbsp;updateHouse(House): void&lt;br&gt;&lt;/span&gt;&lt;span style=&quot;background-color: initial;&quot;&gt;+ deleteHouse(int): void&lt;br&gt;&lt;/span&gt;&lt;span style=&quot;background-color: initial;&quot;&gt;+&amp;nbsp;getHouseByID&lt;/span&gt;&lt;span style=&quot;background-color: initial; border-color: var(--border-color);&quot;&gt;(int): House&lt;br&gt;&lt;span style=&quot;background-color: initial;&quot;&gt;+ getAllHouses(): List&amp;lt;House&amp;gt;&lt;/span&gt;&lt;br&gt;&lt;/span&gt;" style="text;strokeColor=none;fillColor=none;align=left;verticalAlign=top;spacingLeft=4;spacingRight=4;overflow=hidden;rotatable=0;points=[[0,0.5],[1,0.5]];portConstraint=eastwest;whiteSpace=wrap;html=1;" parent="8F1XyEU1k7PKuXgPBpiQ-53" vertex="1">
          <mxGeometry y="60" width="260" height="130" as="geometry" />
        </mxCell>
        <mxCell id="8F1XyEU1k7PKuXgPBpiQ-57" value="" style="endArrow=block;dashed=1;endFill=0;endSize=12;html=1;rounded=0;exitX=0.25;exitY=0;exitDx=0;exitDy=0;entryX=0.25;entryY=1;entryDx=0;entryDy=0;" parent="1" source="8F1XyEU1k7PKuXgPBpiQ-53" target="8F1XyEU1k7PKuXgPBpiQ-51" edge="1">
          <mxGeometry width="160" relative="1" as="geometry">
            <mxPoint x="1086" y="1098" as="sourcePoint" />
            <mxPoint x="15" y="1620" as="targetPoint" />
          </mxGeometry>
        </mxCell>
        <mxCell id="8F1XyEU1k7PKuXgPBpiQ-62" value="&lt;p style=&quot;margin:0px;margin-top:4px;text-align:center;&quot;&gt;&lt;i&gt;&amp;lt;&amp;lt;interface&amp;gt;&amp;gt;&lt;/i&gt;&lt;br&gt;&lt;b&gt;LandService&lt;/b&gt;&lt;br&gt;&lt;/p&gt;&lt;hr size=&quot;1&quot;&gt;&lt;p style=&quot;margin:0px;margin-left:4px;&quot;&gt;-&amp;nbsp;&lt;/p&gt;&lt;hr size=&quot;1&quot;&gt;&lt;p style=&quot;margin:0px;margin-left:4px;&quot;&gt;+&amp;nbsp;addLand&lt;i style=&quot;background-color: initial;&quot;&gt;(&lt;/i&gt;&lt;span style=&quot;background-color: initial;&quot;&gt;Land&lt;/span&gt;&lt;i style=&quot;background-color: initial;&quot;&gt;)&lt;/i&gt;&lt;span style=&quot;background-color: initial;&quot;&gt;: void&lt;br&gt;+&amp;nbsp;&lt;/span&gt;updateLand(Land): void&lt;br&gt;+ deleteLand(int): void&lt;br&gt;+ findLand(int): Land&lt;br&gt;+ getAllLands(): List&amp;lt;Land&amp;gt;&lt;br&gt;+&amp;nbsp;searchLandsByName(String): List&amp;lt;Land&amp;gt;&lt;/p&gt;" style="verticalAlign=top;align=left;overflow=fill;fontSize=12;fontFamily=Helvetica;html=1;whiteSpace=wrap;" parent="1" vertex="1">
          <mxGeometry x="630" y="980" width="260" height="170" as="geometry" />
        </mxCell>
        <mxCell id="8F1XyEU1k7PKuXgPBpiQ-63" value="" style="endArrow=open;endFill=1;endSize=12;html=1;rounded=0;exitX=0.457;exitY=1.02;exitDx=0;exitDy=0;exitPerimeter=0;entryX=0.5;entryY=0;entryDx=0;entryDy=0;" parent="1" source="8F1XyEU1k7PKuXgPBpiQ-28" target="8F1XyEU1k7PKuXgPBpiQ-62" edge="1">
          <mxGeometry width="160" relative="1" as="geometry">
            <mxPoint x="712" y="820" as="sourcePoint" />
            <mxPoint x="993" y="571" as="targetPoint" />
          </mxGeometry>
        </mxCell>
        <mxCell id="8F1XyEU1k7PKuXgPBpiQ-64" value="LandServiceImpl" style="swimlane;fontStyle=1;align=center;verticalAlign=top;childLayout=stackLayout;horizontal=1;startSize=26;horizontalStack=0;resizeParent=1;resizeParentMax=0;resizeLast=0;collapsible=1;marginBottom=0;whiteSpace=wrap;html=1;" parent="1" vertex="1">
          <mxGeometry x="425" y="1300" width="270" height="160" as="geometry" />
        </mxCell>
        <mxCell id="8F1XyEU1k7PKuXgPBpiQ-65" value="-&amp;nbsp;persistenceService: LandPersistenceService" style="text;strokeColor=none;fillColor=none;align=left;verticalAlign=top;spacingLeft=4;spacingRight=4;overflow=hidden;rotatable=0;points=[[0,0.5],[1,0.5]];portConstraint=eastwest;whiteSpace=wrap;html=1;" parent="8F1XyEU1k7PKuXgPBpiQ-64" vertex="1">
          <mxGeometry y="26" width="270" height="26" as="geometry" />
        </mxCell>
        <mxCell id="8F1XyEU1k7PKuXgPBpiQ-66" value="" style="line;strokeWidth=1;fillColor=none;align=left;verticalAlign=middle;spacingTop=-1;spacingLeft=3;spacingRight=3;rotatable=0;labelPosition=right;points=[];portConstraint=eastwest;strokeColor=inherit;" parent="8F1XyEU1k7PKuXgPBpiQ-64" vertex="1">
          <mxGeometry y="52" width="270" height="8" as="geometry" />
        </mxCell>
        <mxCell id="8F1XyEU1k7PKuXgPBpiQ-67" value="LandServiceImpl(LandPersistenceService)&lt;br&gt;+&amp;nbsp;updateLand(Land): void&lt;br style=&quot;border-color: var(--border-color);&quot;&gt;+ deleteLand(int): void&lt;br style=&quot;border-color: var(--border-color);&quot;&gt;+ findLand(int): Land&lt;br style=&quot;border-color: var(--border-color);&quot;&gt;+ getAllLands(): List&amp;lt;Land&amp;gt;&lt;br style=&quot;border-color: var(--border-color);&quot;&gt;+&amp;nbsp;searchLandsByName(String): List&amp;lt;Land&amp;gt;" style="text;strokeColor=none;fillColor=none;align=left;verticalAlign=top;spacingLeft=4;spacingRight=4;overflow=hidden;rotatable=0;points=[[0,0.5],[1,0.5]];portConstraint=eastwest;whiteSpace=wrap;html=1;" parent="8F1XyEU1k7PKuXgPBpiQ-64" vertex="1">
          <mxGeometry y="60" width="270" height="100" as="geometry" />
        </mxCell>
        <mxCell id="8F1XyEU1k7PKuXgPBpiQ-68" value="" style="endArrow=block;dashed=1;endFill=0;endSize=12;html=1;rounded=0;exitX=0.75;exitY=0;exitDx=0;exitDy=0;entryX=0.25;entryY=1;entryDx=0;entryDy=0;" parent="1" source="8F1XyEU1k7PKuXgPBpiQ-64" target="8F1XyEU1k7PKuXgPBpiQ-62" edge="1">
          <mxGeometry width="160" relative="1" as="geometry">
            <mxPoint x="1836" y="529" as="sourcePoint" />
            <mxPoint x="1890" y="471" as="targetPoint" />
          </mxGeometry>
        </mxCell>
        <mxCell id="8F1XyEU1k7PKuXgPBpiQ-69" value="&lt;p style=&quot;margin:0px;margin-top:4px;text-align:center;&quot;&gt;&lt;i&gt;&amp;lt;&amp;lt;interface&amp;gt;&amp;gt;&lt;/i&gt;&lt;br&gt;&lt;b&gt;LandPersistenceService&lt;/b&gt;&lt;br&gt;&lt;/p&gt;&lt;hr size=&quot;1&quot;&gt;&lt;p style=&quot;margin:0px;margin-left:4px;&quot;&gt;-&amp;nbsp;&lt;/p&gt;&lt;hr size=&quot;1&quot;&gt;&lt;p style=&quot;margin:0px;margin-left:4px;&quot;&gt;+&amp;nbsp;addLand&lt;i style=&quot;background-color: initial;&quot;&gt;(&lt;/i&gt;Land&lt;i style=&quot;background-color: initial;&quot;&gt;)&lt;/i&gt;&lt;span style=&quot;background-color: initial;&quot;&gt;: void&lt;br&gt;+&amp;nbsp;&lt;/span&gt;updateLand(Land): void&lt;br&gt;+ deleteLand(int): void&lt;br&gt;+&amp;nbsp;getLandByID&lt;span style=&quot;background-color: initial;&quot;&gt;(int): Land&lt;/span&gt;&lt;/p&gt;&lt;p style=&quot;margin:0px;margin-left:4px;&quot;&gt;+ getAllLands(): List&amp;lt;Land&amp;gt;&lt;br&gt;&lt;/p&gt;" style="verticalAlign=top;align=left;overflow=fill;fontSize=12;fontFamily=Helvetica;html=1;whiteSpace=wrap;" parent="1" vertex="1">
          <mxGeometry x="400" y="1620" width="260" height="170" as="geometry" />
        </mxCell>
        <mxCell id="8F1XyEU1k7PKuXgPBpiQ-70" value="" style="endArrow=open;endFill=1;endSize=12;html=1;rounded=0;exitX=0.41;exitY=1.032;exitDx=0;exitDy=0;exitPerimeter=0;entryX=0.433;entryY=-0.009;entryDx=0;entryDy=0;entryPerimeter=0;" parent="1" source="8F1XyEU1k7PKuXgPBpiQ-67" target="8F1XyEU1k7PKuXgPBpiQ-69" edge="1">
          <mxGeometry width="160" relative="1" as="geometry">
            <mxPoint x="722" y="830" as="sourcePoint" />
            <mxPoint x="710" y="891" as="targetPoint" />
          </mxGeometry>
        </mxCell>
        <mxCell id="8F1XyEU1k7PKuXgPBpiQ-71" value="LandPersistenceServiceImpl" style="swimlane;fontStyle=1;align=center;verticalAlign=top;childLayout=stackLayout;horizontal=1;startSize=26;horizontalStack=0;resizeParent=1;resizeParentMax=0;resizeLast=0;collapsible=1;marginBottom=0;whiteSpace=wrap;html=1;" parent="1" vertex="1">
          <mxGeometry x="370" y="1920" width="260" height="190" as="geometry" />
        </mxCell>
        <mxCell id="8F1XyEU1k7PKuXgPBpiQ-72" value="- filePath: String" style="text;strokeColor=none;fillColor=none;align=left;verticalAlign=top;spacingLeft=4;spacingRight=4;overflow=hidden;rotatable=0;points=[[0,0.5],[1,0.5]];portConstraint=eastwest;whiteSpace=wrap;html=1;" parent="8F1XyEU1k7PKuXgPBpiQ-71" vertex="1">
          <mxGeometry y="26" width="260" height="26" as="geometry" />
        </mxCell>
        <mxCell id="8F1XyEU1k7PKuXgPBpiQ-73" value="" style="line;strokeWidth=1;fillColor=none;align=left;verticalAlign=middle;spacingTop=-1;spacingLeft=3;spacingRight=3;rotatable=0;labelPosition=right;points=[];portConstraint=eastwest;strokeColor=inherit;" parent="8F1XyEU1k7PKuXgPBpiQ-71" vertex="1">
          <mxGeometry y="52" width="260" height="8" as="geometry" />
        </mxCell>
        <mxCell id="8F1XyEU1k7PKuXgPBpiQ-74" value="LandPersistenceServiceImpl(String)&lt;br&gt;+ saveData(List&amp;lt;Land&amp;gt;): void&lt;br&gt;&lt;span style=&quot;background-color: initial;&quot;&gt;+&amp;nbsp;addLand&lt;/span&gt;&lt;i style=&quot;background-color: initial; border-color: var(--border-color);&quot;&gt;(&lt;/i&gt;&lt;span style=&quot;background-color: initial; border-color: var(--border-color);&quot;&gt;Land&lt;/span&gt;&lt;i style=&quot;background-color: initial; border-color: var(--border-color);&quot;&gt;)&lt;/i&gt;&lt;span style=&quot;background-color: initial;&quot;&gt;: void&lt;br&gt;&lt;/span&gt;&lt;span style=&quot;background-color: initial;&quot;&gt;+&amp;nbsp;updateLand(Land): void&lt;br&gt;&lt;/span&gt;&lt;span style=&quot;background-color: initial;&quot;&gt;+ deleteLand(int): void&lt;br&gt;&lt;/span&gt;&lt;span style=&quot;background-color: initial;&quot;&gt;+&amp;nbsp;getLandByID&lt;/span&gt;&lt;span style=&quot;background-color: initial; border-color: var(--border-color);&quot;&gt;(int): Land&lt;br&gt;&lt;span style=&quot;background-color: initial;&quot;&gt;+ getAllLands(): List&amp;lt;Land&amp;gt;&lt;/span&gt;&lt;br&gt;&lt;/span&gt;" style="text;strokeColor=none;fillColor=none;align=left;verticalAlign=top;spacingLeft=4;spacingRight=4;overflow=hidden;rotatable=0;points=[[0,0.5],[1,0.5]];portConstraint=eastwest;whiteSpace=wrap;html=1;" parent="8F1XyEU1k7PKuXgPBpiQ-71" vertex="1">
          <mxGeometry y="60" width="260" height="130" as="geometry" />
        </mxCell>
        <mxCell id="8F1XyEU1k7PKuXgPBpiQ-75" value="" style="endArrow=block;dashed=1;endFill=0;endSize=12;html=1;rounded=0;exitX=0.25;exitY=0;exitDx=0;exitDy=0;entryX=0.25;entryY=1;entryDx=0;entryDy=0;" parent="1" source="8F1XyEU1k7PKuXgPBpiQ-71" target="8F1XyEU1k7PKuXgPBpiQ-69" edge="1">
          <mxGeometry width="160" relative="1" as="geometry">
            <mxPoint x="1836" y="1099" as="sourcePoint" />
            <mxPoint x="765" y="1621" as="targetPoint" />
          </mxGeometry>
        </mxCell>
        <mxCell id="jqKUpd696BWljWw7io7Z-1" value="Connection" style="swimlane;fontStyle=1;align=center;verticalAlign=top;childLayout=stackLayout;horizontal=1;startSize=26;horizontalStack=0;resizeParent=1;resizeParentMax=0;resizeLast=0;collapsible=1;marginBottom=0;whiteSpace=wrap;html=1;" parent="1" vertex="1">
          <mxGeometry x="110" y="2180" width="160" height="86" as="geometry" />
        </mxCell>
        <mxCell id="jqKUpd696BWljWw7io7Z-2" value="+ field: type" style="text;strokeColor=none;fillColor=none;align=left;verticalAlign=top;spacingLeft=4;spacingRight=4;overflow=hidden;rotatable=0;points=[[0,0.5],[1,0.5]];portConstraint=eastwest;whiteSpace=wrap;html=1;" parent="jqKUpd696BWljWw7io7Z-1" vertex="1">
          <mxGeometry y="26" width="160" height="26" as="geometry" />
        </mxCell>
        <mxCell id="jqKUpd696BWljWw7io7Z-3" value="" style="line;strokeWidth=1;fillColor=none;align=left;verticalAlign=middle;spacingTop=-1;spacingLeft=3;spacingRight=3;rotatable=0;labelPosition=right;points=[];portConstraint=eastwest;strokeColor=inherit;" parent="jqKUpd696BWljWw7io7Z-1" vertex="1">
          <mxGeometry y="52" width="160" height="8" as="geometry" />
        </mxCell>
        <mxCell id="jqKUpd696BWljWw7io7Z-4" value="+ method(type): type" style="text;strokeColor=none;fillColor=none;align=left;verticalAlign=top;spacingLeft=4;spacingRight=4;overflow=hidden;rotatable=0;points=[[0,0.5],[1,0.5]];portConstraint=eastwest;whiteSpace=wrap;html=1;" parent="jqKUpd696BWljWw7io7Z-1" vertex="1">
          <mxGeometry y="60" width="160" height="26" as="geometry" />
        </mxCell>
        <mxCell id="jqKUpd696BWljWw7io7Z-5" value="" style="endArrow=diamondThin;endFill=1;endSize=24;html=1;rounded=0;exitX=1;exitY=0;exitDx=0;exitDy=0;" parent="1" source="jqKUpd696BWljWw7io7Z-1" target="8F1XyEU1k7PKuXgPBpiQ-74" edge="1">
          <mxGeometry width="160" relative="1" as="geometry">
            <mxPoint x="-50" y="2020" as="sourcePoint" />
            <mxPoint x="130" y="2030" as="targetPoint" />
          </mxGeometry>
        </mxCell>
        <mxCell id="jqKUpd696BWljWw7io7Z-6" value="AddCommand" style="swimlane;fontStyle=1;align=center;verticalAlign=top;childLayout=stackLayout;horizontal=1;startSize=26;horizontalStack=0;resizeParent=1;resizeParentMax=0;resizeLast=0;collapsible=1;marginBottom=0;whiteSpace=wrap;html=1;" parent="1" vertex="1">
          <mxGeometry x="-1160" y="320" width="285" height="110" as="geometry" />
        </mxCell>
        <mxCell id="jqKUpd696BWljWw7io7Z-7" value="-&amp;nbsp;" style="text;strokeColor=none;fillColor=none;align=left;verticalAlign=top;spacingLeft=4;spacingRight=4;overflow=hidden;rotatable=0;points=[[0,0.5],[1,0.5]];portConstraint=eastwest;whiteSpace=wrap;html=1;" parent="jqKUpd696BWljWw7io7Z-6" vertex="1">
          <mxGeometry y="26" width="285" height="26" as="geometry" />
        </mxCell>
        <mxCell id="jqKUpd696BWljWw7io7Z-8" value="" style="line;strokeWidth=1;fillColor=none;align=left;verticalAlign=middle;spacingTop=-1;spacingLeft=3;spacingRight=3;rotatable=0;labelPosition=right;points=[];portConstraint=eastwest;strokeColor=inherit;" parent="jqKUpd696BWljWw7io7Z-6" vertex="1">
          <mxGeometry y="52" width="285" height="8" as="geometry" />
        </mxCell>
        <mxCell id="jqKUpd696BWljWw7io7Z-9" value="AddCommand(HouseService, House)&lt;br&gt;+ execute(): void" style="text;strokeColor=none;fillColor=none;align=left;verticalAlign=top;spacingLeft=4;spacingRight=4;overflow=hidden;rotatable=0;points=[[0,0.5],[1,0.5]];portConstraint=eastwest;whiteSpace=wrap;html=1;" parent="jqKUpd696BWljWw7io7Z-6" vertex="1">
          <mxGeometry y="60" width="285" height="50" as="geometry" />
        </mxCell>
        <mxCell id="jqKUpd696BWljWw7io7Z-10" value="&lt;p style=&quot;margin:0px;margin-top:4px;text-align:center;&quot;&gt;&lt;i&gt;&amp;lt;&amp;lt;abstract&amp;gt;&amp;gt;&lt;/i&gt;&lt;br&gt;&lt;b&gt;Command&lt;/b&gt;&lt;br&gt;&lt;/p&gt;&lt;hr size=&quot;1&quot;&gt;&lt;p style=&quot;margin:0px;margin-left:4px;&quot;&gt;- houseService: HouseService&lt;br&gt;- house: House&lt;br&gt;- landService: LandService&lt;br&gt;- land: Land&lt;br&gt;- id: int&lt;/p&gt;&lt;hr size=&quot;1&quot;&gt;&lt;p style=&quot;margin:0px;margin-left:4px;&quot;&gt;+ &lt;i&gt;execute()&lt;/i&gt;: void&lt;/p&gt;" style="verticalAlign=top;align=left;overflow=fill;fontSize=12;fontFamily=Helvetica;html=1;whiteSpace=wrap;" parent="1" vertex="1">
          <mxGeometry x="-800" y="590" width="260" height="154" as="geometry" />
        </mxCell>
        <mxCell id="jqKUpd696BWljWw7io7Z-11" value="" style="endArrow=block;endSize=16;endFill=0;html=1;rounded=0;exitX=0.947;exitY=0.977;exitDx=0;exitDy=0;entryX=0;entryY=0.25;entryDx=0;entryDy=0;exitPerimeter=0;" parent="1" source="jqKUpd696BWljWw7io7Z-9" target="jqKUpd696BWljWw7io7Z-10" edge="1">
          <mxGeometry x="-1" y="-496" width="160" relative="1" as="geometry">
            <mxPoint x="-1003.5" y="890" as="sourcePoint" />
            <mxPoint x="-1112.5" y="877" as="targetPoint" />
            <mxPoint x="402" y="310" as="offset" />
          </mxGeometry>
        </mxCell>
        <mxCell id="jqKUpd696BWljWw7io7Z-12" value="Extends" style="edgeLabel;html=1;align=center;verticalAlign=middle;resizable=0;points=[];" parent="jqKUpd696BWljWw7io7Z-11" vertex="1" connectable="0">
          <mxGeometry x="-0.0619" y="-2" relative="1" as="geometry">
            <mxPoint as="offset" />
          </mxGeometry>
        </mxCell>
        <mxCell id="jqKUpd696BWljWw7io7Z-13" value="DeleteCommand" style="swimlane;fontStyle=1;align=center;verticalAlign=top;childLayout=stackLayout;horizontal=1;startSize=26;horizontalStack=0;resizeParent=1;resizeParentMax=0;resizeLast=0;collapsible=1;marginBottom=0;whiteSpace=wrap;html=1;" parent="1" vertex="1">
          <mxGeometry x="-1270" y="440" width="285" height="110" as="geometry" />
        </mxCell>
        <mxCell id="jqKUpd696BWljWw7io7Z-14" value="-&amp;nbsp;" style="text;strokeColor=none;fillColor=none;align=left;verticalAlign=top;spacingLeft=4;spacingRight=4;overflow=hidden;rotatable=0;points=[[0,0.5],[1,0.5]];portConstraint=eastwest;whiteSpace=wrap;html=1;" parent="jqKUpd696BWljWw7io7Z-13" vertex="1">
          <mxGeometry y="26" width="285" height="26" as="geometry" />
        </mxCell>
        <mxCell id="jqKUpd696BWljWw7io7Z-15" value="" style="line;strokeWidth=1;fillColor=none;align=left;verticalAlign=middle;spacingTop=-1;spacingLeft=3;spacingRight=3;rotatable=0;labelPosition=right;points=[];portConstraint=eastwest;strokeColor=inherit;" parent="jqKUpd696BWljWw7io7Z-13" vertex="1">
          <mxGeometry y="52" width="285" height="8" as="geometry" />
        </mxCell>
        <mxCell id="jqKUpd696BWljWw7io7Z-16" value="DeleteCommand(HouseService, int)&lt;br&gt;+ execute(): void" style="text;strokeColor=none;fillColor=none;align=left;verticalAlign=top;spacingLeft=4;spacingRight=4;overflow=hidden;rotatable=0;points=[[0,0.5],[1,0.5]];portConstraint=eastwest;whiteSpace=wrap;html=1;" parent="jqKUpd696BWljWw7io7Z-13" vertex="1">
          <mxGeometry y="60" width="285" height="50" as="geometry" />
        </mxCell>
        <mxCell id="jqKUpd696BWljWw7io7Z-17" value="FindByIDCommand" style="swimlane;fontStyle=1;align=center;verticalAlign=top;childLayout=stackLayout;horizontal=1;startSize=26;horizontalStack=0;resizeParent=1;resizeParentMax=0;resizeLast=0;collapsible=1;marginBottom=0;whiteSpace=wrap;html=1;" parent="1" vertex="1">
          <mxGeometry x="-1445" y="690" width="285" height="110" as="geometry" />
        </mxCell>
        <mxCell id="jqKUpd696BWljWw7io7Z-18" value="-&amp;nbsp;" style="text;strokeColor=none;fillColor=none;align=left;verticalAlign=top;spacingLeft=4;spacingRight=4;overflow=hidden;rotatable=0;points=[[0,0.5],[1,0.5]];portConstraint=eastwest;whiteSpace=wrap;html=1;" parent="jqKUpd696BWljWw7io7Z-17" vertex="1">
          <mxGeometry y="26" width="285" height="26" as="geometry" />
        </mxCell>
        <mxCell id="jqKUpd696BWljWw7io7Z-19" value="" style="line;strokeWidth=1;fillColor=none;align=left;verticalAlign=middle;spacingTop=-1;spacingLeft=3;spacingRight=3;rotatable=0;labelPosition=right;points=[];portConstraint=eastwest;strokeColor=inherit;" parent="jqKUpd696BWljWw7io7Z-17" vertex="1">
          <mxGeometry y="52" width="285" height="8" as="geometry" />
        </mxCell>
        <mxCell id="jqKUpd696BWljWw7io7Z-20" value="FindByIDCommand(HouseService, int)&lt;br&gt;+ execute(): void" style="text;strokeColor=none;fillColor=none;align=left;verticalAlign=top;spacingLeft=4;spacingRight=4;overflow=hidden;rotatable=0;points=[[0,0.5],[1,0.5]];portConstraint=eastwest;whiteSpace=wrap;html=1;" parent="jqKUpd696BWljWw7io7Z-17" vertex="1">
          <mxGeometry y="60" width="285" height="50" as="geometry" />
        </mxCell>
        <mxCell id="jqKUpd696BWljWw7io7Z-21" value="" style="endArrow=block;endSize=16;endFill=0;html=1;rounded=0;entryX=0;entryY=0.5;entryDx=0;entryDy=0;" parent="1" source="jqKUpd696BWljWw7io7Z-13" target="jqKUpd696BWljWw7io7Z-10" edge="1">
          <mxGeometry x="-1" y="-496" width="160" relative="1" as="geometry">
            <mxPoint x="-1085.5" y="907" as="sourcePoint" />
            <mxPoint x="-511" y="708" as="targetPoint" />
            <mxPoint x="402" y="310" as="offset" />
          </mxGeometry>
        </mxCell>
        <mxCell id="jqKUpd696BWljWw7io7Z-22" value="Extends" style="edgeLabel;html=1;align=center;verticalAlign=middle;resizable=0;points=[];" parent="jqKUpd696BWljWw7io7Z-21" vertex="1" connectable="0">
          <mxGeometry x="-0.0619" y="-2" relative="1" as="geometry">
            <mxPoint as="offset" />
          </mxGeometry>
        </mxCell>
        <mxCell id="jqKUpd696BWljWw7io7Z-23" value="" style="endArrow=block;endSize=16;endFill=0;html=1;rounded=0;exitX=0.997;exitY=0.145;exitDx=0;exitDy=0;entryX=-0.005;entryY=0.837;entryDx=0;entryDy=0;exitPerimeter=0;entryPerimeter=0;" parent="1" source="jqKUpd696BWljWw7io7Z-17" target="jqKUpd696BWljWw7io7Z-10" edge="1">
          <mxGeometry x="-1" y="-496" width="160" relative="1" as="geometry">
            <mxPoint x="-1082.5" y="1013" as="sourcePoint" />
            <mxPoint x="-1158.5" y="1012" as="targetPoint" />
            <mxPoint x="402" y="310" as="offset" />
          </mxGeometry>
        </mxCell>
        <mxCell id="jqKUpd696BWljWw7io7Z-24" value="Extends" style="edgeLabel;html=1;align=center;verticalAlign=middle;resizable=0;points=[];" parent="jqKUpd696BWljWw7io7Z-23" vertex="1" connectable="0">
          <mxGeometry x="-0.0619" y="-2" relative="1" as="geometry">
            <mxPoint as="offset" />
          </mxGeometry>
        </mxCell>
        <mxCell id="jqKUpd696BWljWw7io7Z-29" value="UpdateCommand" style="swimlane;fontStyle=1;align=center;verticalAlign=top;childLayout=stackLayout;horizontal=1;startSize=26;horizontalStack=0;resizeParent=1;resizeParentMax=0;resizeLast=0;collapsible=1;marginBottom=0;whiteSpace=wrap;html=1;" parent="1" vertex="1">
          <mxGeometry x="-1445" y="560" width="285" height="110" as="geometry" />
        </mxCell>
        <mxCell id="jqKUpd696BWljWw7io7Z-30" value="-&amp;nbsp;" style="text;strokeColor=none;fillColor=none;align=left;verticalAlign=top;spacingLeft=4;spacingRight=4;overflow=hidden;rotatable=0;points=[[0,0.5],[1,0.5]];portConstraint=eastwest;whiteSpace=wrap;html=1;" parent="jqKUpd696BWljWw7io7Z-29" vertex="1">
          <mxGeometry y="26" width="285" height="26" as="geometry" />
        </mxCell>
        <mxCell id="jqKUpd696BWljWw7io7Z-31" value="" style="line;strokeWidth=1;fillColor=none;align=left;verticalAlign=middle;spacingTop=-1;spacingLeft=3;spacingRight=3;rotatable=0;labelPosition=right;points=[];portConstraint=eastwest;strokeColor=inherit;" parent="jqKUpd696BWljWw7io7Z-29" vertex="1">
          <mxGeometry y="52" width="285" height="8" as="geometry" />
        </mxCell>
        <mxCell id="jqKUpd696BWljWw7io7Z-32" value="UpdateCommand(HouseService, House)&lt;br&gt;+ execute(): void" style="text;strokeColor=none;fillColor=none;align=left;verticalAlign=top;spacingLeft=4;spacingRight=4;overflow=hidden;rotatable=0;points=[[0,0.5],[1,0.5]];portConstraint=eastwest;whiteSpace=wrap;html=1;" parent="jqKUpd696BWljWw7io7Z-29" vertex="1">
          <mxGeometry y="60" width="285" height="50" as="geometry" />
        </mxCell>
        <mxCell id="jqKUpd696BWljWw7io7Z-33" value="" style="endArrow=block;endSize=16;endFill=0;html=1;rounded=0;exitX=0.997;exitY=0.145;exitDx=0;exitDy=0;entryX=0;entryY=0.75;entryDx=0;entryDy=0;exitPerimeter=0;" parent="1" source="jqKUpd696BWljWw7io7Z-29" target="jqKUpd696BWljWw7io7Z-10" edge="1">
          <mxGeometry x="-1" y="-496" width="160" relative="1" as="geometry">
            <mxPoint x="-1082.5" y="883" as="sourcePoint" />
            <mxPoint x="-770" y="650" as="targetPoint" />
            <mxPoint x="402" y="310" as="offset" />
          </mxGeometry>
        </mxCell>
        <mxCell id="jqKUpd696BWljWw7io7Z-34" value="Extends" style="edgeLabel;html=1;align=center;verticalAlign=middle;resizable=0;points=[];" parent="jqKUpd696BWljWw7io7Z-33" vertex="1" connectable="0">
          <mxGeometry x="-0.0619" y="-2" relative="1" as="geometry">
            <mxPoint as="offset" />
          </mxGeometry>
        </mxCell>
        <mxCell id="jqKUpd696BWljWw7io7Z-36" value="CommandProcessor&lt;br&gt;" style="swimlane;fontStyle=1;align=center;verticalAlign=top;childLayout=stackLayout;horizontal=1;startSize=26;horizontalStack=0;resizeParent=1;resizeParentMax=0;resizeLast=0;collapsible=1;marginBottom=0;whiteSpace=wrap;html=1;" parent="1" vertex="1">
          <mxGeometry x="-472.5" y="590" width="285" height="130" as="geometry" />
        </mxCell>
        <mxCell id="jqKUpd696BWljWw7io7Z-37" value="- commandProcessor: CommandProcessor" style="text;strokeColor=none;fillColor=none;align=left;verticalAlign=top;spacingLeft=4;spacingRight=4;overflow=hidden;rotatable=0;points=[[0,0.5],[1,0.5]];portConstraint=eastwest;whiteSpace=wrap;html=1;" parent="jqKUpd696BWljWw7io7Z-36" vertex="1">
          <mxGeometry y="26" width="285" height="26" as="geometry" />
        </mxCell>
        <mxCell id="jqKUpd696BWljWw7io7Z-38" value="" style="line;strokeWidth=1;fillColor=none;align=left;verticalAlign=middle;spacingTop=-1;spacingLeft=3;spacingRight=3;rotatable=0;labelPosition=right;points=[];portConstraint=eastwest;strokeColor=inherit;" parent="jqKUpd696BWljWw7io7Z-36" vertex="1">
          <mxGeometry y="52" width="285" height="8" as="geometry" />
        </mxCell>
        <mxCell id="jqKUpd696BWljWw7io7Z-39" value="CommandProcessor()&lt;br&gt;+ makeCommandProcessor(): CommandProcessor&lt;br&gt;+ execute(Command): void" style="text;strokeColor=none;fillColor=none;align=left;verticalAlign=top;spacingLeft=4;spacingRight=4;overflow=hidden;rotatable=0;points=[[0,0.5],[1,0.5]];portConstraint=eastwest;whiteSpace=wrap;html=1;" parent="jqKUpd696BWljWw7io7Z-36" vertex="1">
          <mxGeometry y="60" width="285" height="70" as="geometry" />
        </mxCell>
        <mxCell id="jqKUpd696BWljWw7io7Z-40" value="Use" style="endArrow=open;endSize=12;dashed=1;html=1;rounded=0;exitX=-0.002;exitY=0.966;exitDx=0;exitDy=0;exitPerimeter=0;" parent="1" source="jqKUpd696BWljWw7io7Z-37" target="jqKUpd696BWljWw7io7Z-10" edge="1">
          <mxGeometry width="160" relative="1" as="geometry">
            <mxPoint x="-260" y="680" as="sourcePoint" />
            <mxPoint x="-100" y="680" as="targetPoint" />
          </mxGeometry>
        </mxCell>
        <mxCell id="jqKUpd696BWljWw7io7Z-41" value="" style="endArrow=open;endFill=1;endSize=12;html=1;rounded=0;exitX=0.009;exitY=0.196;exitDx=0;exitDy=0;exitPerimeter=0;entryX=1;entryY=0.5;entryDx=0;entryDy=0;" parent="1" source="8F1XyEU1k7PKuXgPBpiQ-10" target="jqKUpd696BWljWw7io7Z-37" edge="1">
          <mxGeometry width="160" relative="1" as="geometry">
            <mxPoint x="-380" y="890" as="sourcePoint" />
            <mxPoint x="-220" y="890" as="targetPoint" />
          </mxGeometry>
        </mxCell>
        <mxCell id="jqKUpd696BWljWw7io7Z-42" value="&lt;p style=&quot;margin:0px;margin-top:4px;text-align:center;&quot;&gt;&lt;i&gt;&amp;lt;&amp;lt;Interface&amp;gt;&amp;gt;&lt;/i&gt;&lt;br&gt;&lt;b&gt;Subcriber&lt;/b&gt;&lt;/p&gt;&lt;hr size=&quot;1&quot; style=&quot;border-style:solid;&quot;&gt;&lt;p style=&quot;margin:0px;margin-left:4px;&quot;&gt;-&amp;nbsp;&lt;/p&gt;&lt;hr size=&quot;1&quot; style=&quot;border-style:solid;&quot;&gt;&lt;p style=&quot;margin:0px;margin-left:4px;&quot;&gt;+ update(): void&lt;/p&gt;" style="verticalAlign=top;align=left;overflow=fill;html=1;whiteSpace=wrap;" parent="1" vertex="1">
          <mxGeometry x="-580" y="920" width="170" height="101.24" as="geometry" />
        </mxCell>
        <mxCell id="jqKUpd696BWljWw7io7Z-43" value="" style="endArrow=block;dashed=1;endFill=0;endSize=12;html=1;rounded=0;entryX=0.708;entryY=-0.025;entryDx=0;entryDy=0;entryPerimeter=0;exitX=0;exitY=0.978;exitDx=0;exitDy=0;exitPerimeter=0;" parent="1" source="8F1XyEU1k7PKuXgPBpiQ-10" target="jqKUpd696BWljWw7io7Z-42" edge="1">
          <mxGeometry width="160" relative="1" as="geometry">
            <mxPoint x="-570" y="880" as="sourcePoint" />
            <mxPoint x="-670" y="937.5" as="targetPoint" />
          </mxGeometry>
        </mxCell>
        <mxCell id="jqKUpd696BWljWw7io7Z-44" value="&lt;p style=&quot;margin:0px;margin-top:4px;text-align:center;&quot;&gt;&lt;b&gt;Publisher&lt;/b&gt;&lt;/p&gt;&lt;hr size=&quot;1&quot; style=&quot;border-style:solid;&quot;&gt;&lt;p style=&quot;margin:0px;margin-left:4px;&quot;&gt;- subcribers: List&amp;lt;Subcriber&amp;gt;&lt;/p&gt;&lt;hr size=&quot;1&quot; style=&quot;border-style:solid;&quot;&gt;&lt;p style=&quot;margin:0px;margin-left:4px;&quot;&gt;+ subcribe(Subcriber): void&lt;br&gt;+ unsubcribe(Subcriber): void&lt;/p&gt;&lt;p style=&quot;margin:0px;margin-left:4px;&quot;&gt;+ notifySubcribers(): void&lt;/p&gt;" style="verticalAlign=top;align=left;overflow=fill;html=1;whiteSpace=wrap;" parent="1" vertex="1">
          <mxGeometry x="-590" y="1140" width="170" height="120" as="geometry" />
        </mxCell>
        <mxCell id="jqKUpd696BWljWw7io7Z-45" value="Extends" style="endArrow=block;endSize=16;endFill=0;html=1;rounded=0;exitX=0.001;exitY=0.086;exitDx=0;exitDy=0;exitPerimeter=0;entryX=1;entryY=0.75;entryDx=0;entryDy=0;" parent="1" source="8F1XyEU1k7PKuXgPBpiQ-49" target="jqKUpd696BWljWw7io7Z-44" edge="1">
          <mxGeometry width="160" relative="1" as="geometry">
            <mxPoint x="-281" y="1140" as="sourcePoint" />
            <mxPoint x="-220" y="1332" as="targetPoint" />
          </mxGeometry>
        </mxCell>
        <mxCell id="jqKUpd696BWljWw7io7Z-46" value="" style="endArrow=diamondThin;endFill=0;endSize=24;html=1;rounded=0;entryX=0.5;entryY=0;entryDx=0;entryDy=0;exitX=0.5;exitY=1;exitDx=0;exitDy=0;" parent="1" source="jqKUpd696BWljWw7io7Z-42" target="jqKUpd696BWljWw7io7Z-44" edge="1">
          <mxGeometry width="160" relative="1" as="geometry">
            <mxPoint x="-740" y="1097" as="sourcePoint" />
            <mxPoint x="-570" y="1117" as="targetPoint" />
          </mxGeometry>
        </mxCell>
        <mxCell id="jqKUpd696BWljWw7io7Z-48" value="" style="endArrow=open;endFill=1;endSize=12;html=1;rounded=0;entryX=0;entryY=0;entryDx=0;entryDy=0;" parent="1" source="jqKUpd696BWljWw7io7Z-10" target="8F1XyEU1k7PKuXgPBpiQ-37" edge="1">
          <mxGeometry width="160" relative="1" as="geometry">
            <mxPoint x="-560" y="830" as="sourcePoint" />
            <mxPoint x="-400" y="830" as="targetPoint" />
          </mxGeometry>
        </mxCell>
        <mxCell id="jqKUpd696BWljWw7io7Z-51" value="" style="endArrow=block;dashed=1;endFill=0;endSize=12;html=1;rounded=0;entryX=0.25;entryY=1;entryDx=0;entryDy=0;exitX=0.786;exitY=-0.009;exitDx=0;exitDy=0;exitPerimeter=0;" parent="1" source="DMT-dN4wNDoVank6GRrY-1" target="8F1XyEU1k7PKuXgPBpiQ-6" edge="1">
          <mxGeometry width="160" relative="1" as="geometry">
            <mxPoint x="560" y="226" as="sourcePoint" />
            <mxPoint x="700" y="150" as="targetPoint" />
          </mxGeometry>
        </mxCell>
        <mxCell id="jqKUpd696BWljWw7io7Z-52" value="" style="endArrow=block;dashed=1;endFill=0;endSize=12;html=1;rounded=0;entryX=0.5;entryY=1;entryDx=0;entryDy=0;exitX=0.004;exitY=0.046;exitDx=0;exitDy=0;exitPerimeter=0;" parent="1" source="8F1XyEU1k7PKuXgPBpiQ-9" target="jqKUpd696BWljWw7io7Z-53" edge="1">
          <mxGeometry width="160" relative="1" as="geometry">
            <mxPoint x="-210" y="600" as="sourcePoint" />
            <mxPoint x="-260" y="360" as="targetPoint" />
          </mxGeometry>
        </mxCell>
        <mxCell id="jqKUpd696BWljWw7io7Z-53" value="&lt;p style=&quot;margin:0px;margin-top:4px;text-align:center;&quot;&gt;&lt;b&gt;java.awt.event&lt;br&gt;&lt;/b&gt;&lt;b&gt;ListSelectionListener&lt;/b&gt;&lt;/p&gt;&lt;hr size=&quot;1&quot; style=&quot;border-style:solid;&quot;&gt;&lt;p style=&quot;margin:0px;margin-left:4px;&quot;&gt;-&amp;nbsp;&lt;/p&gt;&lt;hr size=&quot;1&quot; style=&quot;border-style:solid;&quot;&gt;&lt;p style=&quot;margin:0px;margin-left:4px;&quot;&gt;+&amp;nbsp;&lt;/p&gt;" style="verticalAlign=top;align=left;overflow=fill;html=1;whiteSpace=wrap;" parent="1" vertex="1">
          <mxGeometry x="-410" y="375" width="160" height="110" as="geometry" />
        </mxCell>
        <mxCell id="jqKUpd696BWljWw7io7Z-54" value="&lt;p style=&quot;margin:0px;margin-top:4px;text-align:center;&quot;&gt;&lt;i&gt;&amp;lt;&amp;lt;Interface&amp;gt;&amp;gt;&lt;/i&gt;&lt;br&gt;&lt;b&gt;Subcriber&lt;/b&gt;&lt;/p&gt;&lt;hr size=&quot;1&quot; style=&quot;border-style:solid;&quot;&gt;&lt;p style=&quot;margin:0px;margin-left:4px;&quot;&gt;-&amp;nbsp;&lt;/p&gt;&lt;hr size=&quot;1&quot; style=&quot;border-style:solid;&quot;&gt;&lt;p style=&quot;margin:0px;margin-left:4px;&quot;&gt;+ update(): void&lt;/p&gt;" style="verticalAlign=top;align=left;overflow=fill;html=1;whiteSpace=wrap;" parent="1" vertex="1">
          <mxGeometry x="980" y="950" width="170" height="101.24" as="geometry" />
        </mxCell>
        <mxCell id="jqKUpd696BWljWw7io7Z-55" value="" style="endArrow=block;dashed=1;endFill=0;endSize=12;html=1;rounded=0;entryX=0.708;entryY=-0.025;entryDx=0;entryDy=0;entryPerimeter=0;exitX=1.004;exitY=0.142;exitDx=0;exitDy=0;exitPerimeter=0;" parent="1" source="8F1XyEU1k7PKuXgPBpiQ-28" target="jqKUpd696BWljWw7io7Z-54" edge="1">
          <mxGeometry width="160" relative="1" as="geometry">
            <mxPoint x="1340" y="650" as="sourcePoint" />
            <mxPoint x="790" y="880.5" as="targetPoint" />
          </mxGeometry>
        </mxCell>
        <mxCell id="jqKUpd696BWljWw7io7Z-56" value="&lt;p style=&quot;margin:0px;margin-top:4px;text-align:center;&quot;&gt;&lt;b&gt;Publisher&lt;/b&gt;&lt;/p&gt;&lt;hr size=&quot;1&quot; style=&quot;border-style:solid;&quot;&gt;&lt;p style=&quot;margin:0px;margin-left:4px;&quot;&gt;- subcribers: List&amp;lt;Subcriber&amp;gt;&lt;/p&gt;&lt;hr size=&quot;1&quot; style=&quot;border-style:solid;&quot;&gt;&lt;p style=&quot;margin:0px;margin-left:4px;&quot;&gt;+ subcribe(Subcriber): void&lt;br&gt;+ unsubcribe(Subcriber): void&lt;/p&gt;&lt;p style=&quot;margin:0px;margin-left:4px;&quot;&gt;+ notifySubcribers(): void&lt;/p&gt;" style="verticalAlign=top;align=left;overflow=fill;html=1;whiteSpace=wrap;" parent="1" vertex="1">
          <mxGeometry x="970" y="1150" width="170" height="120" as="geometry" />
        </mxCell>
        <mxCell id="jqKUpd696BWljWw7io7Z-57" value="Extends" style="endArrow=block;endSize=16;endFill=0;html=1;rounded=0;exitX=1.023;exitY=0.12;exitDx=0;exitDy=0;exitPerimeter=0;entryX=0;entryY=0.75;entryDx=0;entryDy=0;" parent="1" source="8F1XyEU1k7PKuXgPBpiQ-67" target="jqKUpd696BWljWw7io7Z-56" edge="1">
          <mxGeometry width="160" relative="1" as="geometry">
            <mxPoint x="1440" y="1182" as="sourcePoint" />
            <mxPoint x="1240" y="1275" as="targetPoint" />
          </mxGeometry>
        </mxCell>
        <mxCell id="jqKUpd696BWljWw7io7Z-58" value="" style="endArrow=diamondThin;endFill=0;endSize=24;html=1;rounded=0;entryX=0.5;entryY=0;entryDx=0;entryDy=0;exitX=0.5;exitY=1;exitDx=0;exitDy=0;" parent="1" source="jqKUpd696BWljWw7io7Z-54" target="jqKUpd696BWljWw7io7Z-56" edge="1">
          <mxGeometry width="160" relative="1" as="geometry">
            <mxPoint x="720" y="1097" as="sourcePoint" />
            <mxPoint x="890" y="1117" as="targetPoint" />
          </mxGeometry>
        </mxCell>
        <mxCell id="jqKUpd696BWljWw7io7Z-60" value="" style="endArrow=block;dashed=1;endFill=0;endSize=12;html=1;rounded=0;entryX=0.5;entryY=1;entryDx=0;entryDy=0;exitX=0.5;exitY=0;exitDx=0;exitDy=0;" parent="1" source="8F1XyEU1k7PKuXgPBpiQ-25" target="jqKUpd696BWljWw7io7Z-61" edge="1">
          <mxGeometry width="160" relative="1" as="geometry">
            <mxPoint x="900" y="510" as="sourcePoint" />
            <mxPoint x="759" y="288" as="targetPoint" />
          </mxGeometry>
        </mxCell>
        <mxCell id="jqKUpd696BWljWw7io7Z-61" value="&lt;p style=&quot;margin:0px;margin-top:4px;text-align:center;&quot;&gt;&lt;b&gt;java.awt.event&lt;br&gt;&lt;/b&gt;&lt;b&gt;ListSelectionListener&lt;/b&gt;&lt;/p&gt;&lt;hr size=&quot;1&quot; style=&quot;border-style:solid;&quot;&gt;&lt;p style=&quot;margin:0px;margin-left:4px;&quot;&gt;-&amp;nbsp;&lt;/p&gt;&lt;hr size=&quot;1&quot; style=&quot;border-style:solid;&quot;&gt;&lt;p style=&quot;margin:0px;margin-left:4px;&quot;&gt;+&amp;nbsp;&lt;/p&gt;" style="verticalAlign=top;align=left;overflow=fill;html=1;whiteSpace=wrap;" parent="1" vertex="1">
          <mxGeometry x="645" y="370" width="160" height="110" as="geometry" />
        </mxCell>
        <mxCell id="jqKUpd696BWljWw7io7Z-62" value="AddCommand" style="swimlane;fontStyle=1;align=center;verticalAlign=top;childLayout=stackLayout;horizontal=1;startSize=26;horizontalStack=0;resizeParent=1;resizeParentMax=0;resizeLast=0;collapsible=1;marginBottom=0;whiteSpace=wrap;html=1;" parent="1" vertex="1">
          <mxGeometry x="1490" y="290" width="285" height="110" as="geometry" />
        </mxCell>
        <mxCell id="jqKUpd696BWljWw7io7Z-63" value="-&amp;nbsp;" style="text;strokeColor=none;fillColor=none;align=left;verticalAlign=top;spacingLeft=4;spacingRight=4;overflow=hidden;rotatable=0;points=[[0,0.5],[1,0.5]];portConstraint=eastwest;whiteSpace=wrap;html=1;" parent="jqKUpd696BWljWw7io7Z-62" vertex="1">
          <mxGeometry y="26" width="285" height="26" as="geometry" />
        </mxCell>
        <mxCell id="jqKUpd696BWljWw7io7Z-64" value="" style="line;strokeWidth=1;fillColor=none;align=left;verticalAlign=middle;spacingTop=-1;spacingLeft=3;spacingRight=3;rotatable=0;labelPosition=right;points=[];portConstraint=eastwest;strokeColor=inherit;" parent="jqKUpd696BWljWw7io7Z-62" vertex="1">
          <mxGeometry y="52" width="285" height="8" as="geometry" />
        </mxCell>
        <mxCell id="jqKUpd696BWljWw7io7Z-65" value="AddCommand(HouseService, House)&lt;br&gt;+ execute(): void" style="text;strokeColor=none;fillColor=none;align=left;verticalAlign=top;spacingLeft=4;spacingRight=4;overflow=hidden;rotatable=0;points=[[0,0.5],[1,0.5]];portConstraint=eastwest;whiteSpace=wrap;html=1;" parent="jqKUpd696BWljWw7io7Z-62" vertex="1">
          <mxGeometry y="60" width="285" height="50" as="geometry" />
        </mxCell>
        <mxCell id="jqKUpd696BWljWw7io7Z-66" value="&lt;p style=&quot;margin:0px;margin-top:4px;text-align:center;&quot;&gt;&lt;i&gt;&amp;lt;&amp;lt;abstract&amp;gt;&amp;gt;&lt;/i&gt;&lt;br&gt;&lt;b&gt;Command&lt;/b&gt;&lt;br&gt;&lt;/p&gt;&lt;hr size=&quot;1&quot;&gt;&lt;p style=&quot;margin:0px;margin-left:4px;&quot;&gt;- houseService: HouseService&lt;br&gt;- house: House&lt;br&gt;- landService: LandService&lt;br&gt;- land: Land&lt;br&gt;- id: int&lt;/p&gt;&lt;hr size=&quot;1&quot;&gt;&lt;p style=&quot;margin:0px;margin-left:4px;&quot;&gt;+ &lt;i&gt;execute()&lt;/i&gt;: void&lt;/p&gt;" style="verticalAlign=top;align=left;overflow=fill;fontSize=12;fontFamily=Helvetica;html=1;whiteSpace=wrap;" parent="1" vertex="1">
          <mxGeometry x="1190" y="744" width="260" height="154" as="geometry" />
        </mxCell>
        <mxCell id="jqKUpd696BWljWw7io7Z-67" value="" style="endArrow=block;endSize=16;endFill=0;html=1;rounded=0;exitX=-0.011;exitY=1.183;exitDx=0;exitDy=0;entryX=0.857;entryY=-0.015;entryDx=0;entryDy=0;exitPerimeter=0;entryPerimeter=0;" parent="1" source="jqKUpd696BWljWw7io7Z-63" target="jqKUpd696BWljWw7io7Z-66" edge="1">
          <mxGeometry x="-1" y="-496" width="160" relative="1" as="geometry">
            <mxPoint x="1686.5" y="910" as="sourcePoint" />
            <mxPoint x="1577.5" y="897" as="targetPoint" />
            <mxPoint x="402" y="310" as="offset" />
          </mxGeometry>
        </mxCell>
        <mxCell id="jqKUpd696BWljWw7io7Z-68" value="Extends" style="edgeLabel;html=1;align=center;verticalAlign=middle;resizable=0;points=[];" parent="jqKUpd696BWljWw7io7Z-67" vertex="1" connectable="0">
          <mxGeometry x="-0.0619" y="-2" relative="1" as="geometry">
            <mxPoint as="offset" />
          </mxGeometry>
        </mxCell>
        <mxCell id="jqKUpd696BWljWw7io7Z-69" value="DeleteCommand" style="swimlane;fontStyle=1;align=center;verticalAlign=top;childLayout=stackLayout;horizontal=1;startSize=26;horizontalStack=0;resizeParent=1;resizeParentMax=0;resizeLast=0;collapsible=1;marginBottom=0;whiteSpace=wrap;html=1;" parent="1" vertex="1">
          <mxGeometry x="1560" y="420" width="285" height="110" as="geometry" />
        </mxCell>
        <mxCell id="jqKUpd696BWljWw7io7Z-70" value="-&amp;nbsp;" style="text;strokeColor=none;fillColor=none;align=left;verticalAlign=top;spacingLeft=4;spacingRight=4;overflow=hidden;rotatable=0;points=[[0,0.5],[1,0.5]];portConstraint=eastwest;whiteSpace=wrap;html=1;" parent="jqKUpd696BWljWw7io7Z-69" vertex="1">
          <mxGeometry y="26" width="285" height="26" as="geometry" />
        </mxCell>
        <mxCell id="jqKUpd696BWljWw7io7Z-71" value="" style="line;strokeWidth=1;fillColor=none;align=left;verticalAlign=middle;spacingTop=-1;spacingLeft=3;spacingRight=3;rotatable=0;labelPosition=right;points=[];portConstraint=eastwest;strokeColor=inherit;" parent="jqKUpd696BWljWw7io7Z-69" vertex="1">
          <mxGeometry y="52" width="285" height="8" as="geometry" />
        </mxCell>
        <mxCell id="jqKUpd696BWljWw7io7Z-72" value="DeleteCommand(HouseService, int)&lt;br&gt;+ execute(): void" style="text;strokeColor=none;fillColor=none;align=left;verticalAlign=top;spacingLeft=4;spacingRight=4;overflow=hidden;rotatable=0;points=[[0,0.5],[1,0.5]];portConstraint=eastwest;whiteSpace=wrap;html=1;" parent="jqKUpd696BWljWw7io7Z-69" vertex="1">
          <mxGeometry y="60" width="285" height="50" as="geometry" />
        </mxCell>
        <mxCell id="jqKUpd696BWljWw7io7Z-73" value="FindByIDCommand" style="swimlane;fontStyle=1;align=center;verticalAlign=top;childLayout=stackLayout;horizontal=1;startSize=26;horizontalStack=0;resizeParent=1;resizeParentMax=0;resizeLast=0;collapsible=1;marginBottom=0;whiteSpace=wrap;html=1;" parent="1" vertex="1">
          <mxGeometry x="1700" y="670" width="285" height="110" as="geometry" />
        </mxCell>
        <mxCell id="jqKUpd696BWljWw7io7Z-74" value="-&amp;nbsp;" style="text;strokeColor=none;fillColor=none;align=left;verticalAlign=top;spacingLeft=4;spacingRight=4;overflow=hidden;rotatable=0;points=[[0,0.5],[1,0.5]];portConstraint=eastwest;whiteSpace=wrap;html=1;" parent="jqKUpd696BWljWw7io7Z-73" vertex="1">
          <mxGeometry y="26" width="285" height="26" as="geometry" />
        </mxCell>
        <mxCell id="jqKUpd696BWljWw7io7Z-75" value="" style="line;strokeWidth=1;fillColor=none;align=left;verticalAlign=middle;spacingTop=-1;spacingLeft=3;spacingRight=3;rotatable=0;labelPosition=right;points=[];portConstraint=eastwest;strokeColor=inherit;" parent="jqKUpd696BWljWw7io7Z-73" vertex="1">
          <mxGeometry y="52" width="285" height="8" as="geometry" />
        </mxCell>
        <mxCell id="jqKUpd696BWljWw7io7Z-76" value="FindByIDCommand(HouseService, int)&lt;br&gt;+ execute(): void" style="text;strokeColor=none;fillColor=none;align=left;verticalAlign=top;spacingLeft=4;spacingRight=4;overflow=hidden;rotatable=0;points=[[0,0.5],[1,0.5]];portConstraint=eastwest;whiteSpace=wrap;html=1;" parent="jqKUpd696BWljWw7io7Z-73" vertex="1">
          <mxGeometry y="60" width="285" height="50" as="geometry" />
        </mxCell>
        <mxCell id="jqKUpd696BWljWw7io7Z-77" value="" style="endArrow=block;endSize=16;endFill=0;html=1;rounded=0;entryX=1.011;entryY=0.078;entryDx=0;entryDy=0;entryPerimeter=0;" parent="1" source="jqKUpd696BWljWw7io7Z-69" target="jqKUpd696BWljWw7io7Z-66" edge="1">
          <mxGeometry x="-1" y="-496" width="160" relative="1" as="geometry">
            <mxPoint x="1604.5" y="927" as="sourcePoint" />
            <mxPoint x="2179" y="728" as="targetPoint" />
            <mxPoint x="402" y="310" as="offset" />
          </mxGeometry>
        </mxCell>
        <mxCell id="jqKUpd696BWljWw7io7Z-78" value="Extends" style="edgeLabel;html=1;align=center;verticalAlign=middle;resizable=0;points=[];" parent="jqKUpd696BWljWw7io7Z-77" vertex="1" connectable="0">
          <mxGeometry x="-0.0619" y="-2" relative="1" as="geometry">
            <mxPoint as="offset" />
          </mxGeometry>
        </mxCell>
        <mxCell id="jqKUpd696BWljWw7io7Z-79" value="" style="endArrow=block;endSize=16;endFill=0;html=1;rounded=0;exitX=0;exitY=0.289;exitDx=0;exitDy=0;entryX=1;entryY=0.662;entryDx=0;entryDy=0;exitPerimeter=0;entryPerimeter=0;" parent="1" source="jqKUpd696BWljWw7io7Z-76" target="jqKUpd696BWljWw7io7Z-66" edge="1">
          <mxGeometry x="-1" y="-496" width="160" relative="1" as="geometry">
            <mxPoint x="1607.5" y="1033" as="sourcePoint" />
            <mxPoint x="1531.5" y="1032" as="targetPoint" />
            <mxPoint x="402" y="310" as="offset" />
          </mxGeometry>
        </mxCell>
        <mxCell id="jqKUpd696BWljWw7io7Z-80" value="Extends" style="edgeLabel;html=1;align=center;verticalAlign=middle;resizable=0;points=[];" parent="jqKUpd696BWljWw7io7Z-79" vertex="1" connectable="0">
          <mxGeometry x="-0.0619" y="-2" relative="1" as="geometry">
            <mxPoint as="offset" />
          </mxGeometry>
        </mxCell>
        <mxCell id="jqKUpd696BWljWw7io7Z-81" value="UpdateCommand" style="swimlane;fontStyle=1;align=center;verticalAlign=top;childLayout=stackLayout;horizontal=1;startSize=26;horizontalStack=0;resizeParent=1;resizeParentMax=0;resizeLast=0;collapsible=1;marginBottom=0;whiteSpace=wrap;html=1;" parent="1" vertex="1">
          <mxGeometry x="1700" y="540" width="285" height="110" as="geometry" />
        </mxCell>
        <mxCell id="jqKUpd696BWljWw7io7Z-82" value="-&amp;nbsp;" style="text;strokeColor=none;fillColor=none;align=left;verticalAlign=top;spacingLeft=4;spacingRight=4;overflow=hidden;rotatable=0;points=[[0,0.5],[1,0.5]];portConstraint=eastwest;whiteSpace=wrap;html=1;" parent="jqKUpd696BWljWw7io7Z-81" vertex="1">
          <mxGeometry y="26" width="285" height="26" as="geometry" />
        </mxCell>
        <mxCell id="jqKUpd696BWljWw7io7Z-83" value="" style="line;strokeWidth=1;fillColor=none;align=left;verticalAlign=middle;spacingTop=-1;spacingLeft=3;spacingRight=3;rotatable=0;labelPosition=right;points=[];portConstraint=eastwest;strokeColor=inherit;" parent="jqKUpd696BWljWw7io7Z-81" vertex="1">
          <mxGeometry y="52" width="285" height="8" as="geometry" />
        </mxCell>
        <mxCell id="jqKUpd696BWljWw7io7Z-84" value="UpdateCommand(HouseService, House)&lt;br&gt;+ execute(): void" style="text;strokeColor=none;fillColor=none;align=left;verticalAlign=top;spacingLeft=4;spacingRight=4;overflow=hidden;rotatable=0;points=[[0,0.5],[1,0.5]];portConstraint=eastwest;whiteSpace=wrap;html=1;" parent="jqKUpd696BWljWw7io7Z-81" vertex="1">
          <mxGeometry y="60" width="285" height="50" as="geometry" />
        </mxCell>
        <mxCell id="jqKUpd696BWljWw7io7Z-85" value="" style="endArrow=block;endSize=16;endFill=0;html=1;rounded=0;entryX=1;entryY=0.365;entryDx=0;entryDy=0;exitX=0;exitY=0.5;exitDx=0;exitDy=0;entryPerimeter=0;" parent="1" source="jqKUpd696BWljWw7io7Z-82" target="jqKUpd696BWljWw7io7Z-66" edge="1">
          <mxGeometry x="-1" y="-496" width="160" relative="1" as="geometry">
            <mxPoint x="1607.5" y="903" as="sourcePoint" />
            <mxPoint x="1920" y="670" as="targetPoint" />
            <mxPoint x="402" y="310" as="offset" />
          </mxGeometry>
        </mxCell>
        <mxCell id="jqKUpd696BWljWw7io7Z-86" value="Extends" style="edgeLabel;html=1;align=center;verticalAlign=middle;resizable=0;points=[];" parent="jqKUpd696BWljWw7io7Z-85" vertex="1" connectable="0">
          <mxGeometry x="-0.0619" y="-2" relative="1" as="geometry">
            <mxPoint as="offset" />
          </mxGeometry>
        </mxCell>
        <mxCell id="jqKUpd696BWljWw7io7Z-87" value="Use" style="endArrow=open;endSize=12;dashed=1;html=1;rounded=0;exitX=1;exitY=0.5;exitDx=0;exitDy=0;" parent="1" source="jqKUpd696BWljWw7io7Z-90" target="jqKUpd696BWljWw7io7Z-66" edge="1">
          <mxGeometry width="160" relative="1" as="geometry">
            <mxPoint x="1120" y="730" as="sourcePoint" />
            <mxPoint x="2420" y="680" as="targetPoint" />
          </mxGeometry>
        </mxCell>
        <mxCell id="jqKUpd696BWljWw7io7Z-88" value="" style="endArrow=open;endFill=1;endSize=12;html=1;rounded=0;entryX=1.024;entryY=0.138;entryDx=0;entryDy=0;entryPerimeter=0;" parent="1" source="jqKUpd696BWljWw7io7Z-66" target="8F1XyEU1k7PKuXgPBpiQ-62" edge="1">
          <mxGeometry width="160" relative="1" as="geometry">
            <mxPoint x="1960" y="830" as="sourcePoint" />
            <mxPoint x="2350" y="940" as="targetPoint" />
          </mxGeometry>
        </mxCell>
        <mxCell id="jqKUpd696BWljWw7io7Z-89" value="CommandProcessor&lt;br&gt;" style="swimlane;fontStyle=1;align=center;verticalAlign=top;childLayout=stackLayout;horizontal=1;startSize=26;horizontalStack=0;resizeParent=1;resizeParentMax=0;resizeLast=0;collapsible=1;marginBottom=0;whiteSpace=wrap;html=1;" parent="1" vertex="1">
          <mxGeometry x="912.5" y="590" width="285" height="130" as="geometry" />
        </mxCell>
        <mxCell id="jqKUpd696BWljWw7io7Z-90" value="- commandProcessor: CommandProcessor" style="text;strokeColor=none;fillColor=none;align=left;verticalAlign=top;spacingLeft=4;spacingRight=4;overflow=hidden;rotatable=0;points=[[0,0.5],[1,0.5]];portConstraint=eastwest;whiteSpace=wrap;html=1;" parent="jqKUpd696BWljWw7io7Z-89" vertex="1">
          <mxGeometry y="26" width="285" height="26" as="geometry" />
        </mxCell>
        <mxCell id="jqKUpd696BWljWw7io7Z-91" value="" style="line;strokeWidth=1;fillColor=none;align=left;verticalAlign=middle;spacingTop=-1;spacingLeft=3;spacingRight=3;rotatable=0;labelPosition=right;points=[];portConstraint=eastwest;strokeColor=inherit;" parent="jqKUpd696BWljWw7io7Z-89" vertex="1">
          <mxGeometry y="52" width="285" height="8" as="geometry" />
        </mxCell>
        <mxCell id="jqKUpd696BWljWw7io7Z-92" value="CommandProcessor()&lt;br&gt;+ makeCommandProcessor(): CommandProcessor&lt;br&gt;+ execute(Command): void" style="text;strokeColor=none;fillColor=none;align=left;verticalAlign=top;spacingLeft=4;spacingRight=4;overflow=hidden;rotatable=0;points=[[0,0.5],[1,0.5]];portConstraint=eastwest;whiteSpace=wrap;html=1;" parent="jqKUpd696BWljWw7io7Z-89" vertex="1">
          <mxGeometry y="60" width="285" height="70" as="geometry" />
        </mxCell>
        <mxCell id="jqKUpd696BWljWw7io7Z-95" value="" style="endArrow=open;endFill=1;endSize=12;html=1;rounded=0;exitX=1.002;exitY=0.854;exitDx=0;exitDy=0;exitPerimeter=0;" parent="1" source="8F1XyEU1k7PKuXgPBpiQ-26" target="jqKUpd696BWljWw7io7Z-89" edge="1">
          <mxGeometry width="160" relative="1" as="geometry">
            <mxPoint x="660" y="873" as="sourcePoint" />
            <mxPoint x="720" y="951" as="targetPoint" />
          </mxGeometry>
        </mxCell>
        <mxCell id="jqKUpd696BWljWw7io7Z-102" value="" style="endArrow=diamondThin;endFill=1;endSize=24;html=1;rounded=0;exitX=0;exitY=0;exitDx=0;exitDy=0;entryX=0.647;entryY=0.997;entryDx=0;entryDy=0;entryPerimeter=0;" parent="1" source="jqKUpd696BWljWw7io7Z-1" target="8F1XyEU1k7PKuXgPBpiQ-56" edge="1">
          <mxGeometry width="160" relative="1" as="geometry">
            <mxPoint x="400" y="2030" as="sourcePoint" />
            <mxPoint x="503" y="1930" as="targetPoint" />
          </mxGeometry>
        </mxCell>
        <mxCell id="6rIiN9BHhn4Da8iqrhuP-1" value="House" style="swimlane;fontStyle=1;align=center;verticalAlign=top;childLayout=stackLayout;horizontal=1;startSize=26;horizontalStack=0;resizeParent=1;resizeParentMax=0;resizeLast=0;collapsible=1;marginBottom=0;whiteSpace=wrap;html=1;" parent="1" vertex="1">
          <mxGeometry x="60" y="1110" width="160" height="120" as="geometry" />
        </mxCell>
        <mxCell id="6rIiN9BHhn4Da8iqrhuP-2" value="- loaiNha: String&lt;br&gt;- diaChi: String" style="text;strokeColor=none;fillColor=none;align=left;verticalAlign=top;spacingLeft=4;spacingRight=4;overflow=hidden;rotatable=0;points=[[0,0.5],[1,0.5]];portConstraint=eastwest;whiteSpace=wrap;html=1;" parent="6rIiN9BHhn4Da8iqrhuP-1" vertex="1">
          <mxGeometry y="26" width="160" height="44" as="geometry" />
        </mxCell>
        <mxCell id="6rIiN9BHhn4Da8iqrhuP-3" value="" style="line;strokeWidth=1;fillColor=none;align=left;verticalAlign=middle;spacingTop=-1;spacingLeft=3;spacingRight=3;rotatable=0;labelPosition=right;points=[];portConstraint=eastwest;strokeColor=inherit;" parent="6rIiN9BHhn4Da8iqrhuP-1" vertex="1">
          <mxGeometry y="70" width="160" height="8" as="geometry" />
        </mxCell>
        <mxCell id="6rIiN9BHhn4Da8iqrhuP-4" value="+ getter/setter&lt;br&gt;+ getThanhTien: double" style="text;strokeColor=none;fillColor=none;align=left;verticalAlign=top;spacingLeft=4;spacingRight=4;overflow=hidden;rotatable=0;points=[[0,0.5],[1,0.5]];portConstraint=eastwest;whiteSpace=wrap;html=1;" parent="6rIiN9BHhn4Da8iqrhuP-1" vertex="1">
          <mxGeometry y="78" width="160" height="42" as="geometry" />
        </mxCell>
        <mxCell id="6rIiN9BHhn4Da8iqrhuP-6" value="&lt;p style=&quot;margin:0px;margin-top:4px;text-align:center;&quot;&gt;&lt;i&gt;&amp;lt;&amp;lt;abstract&amp;gt;&amp;gt;&lt;/i&gt;&lt;br&gt;&lt;b&gt;QuanLy&lt;/b&gt;&lt;/p&gt;&lt;hr size=&quot;1&quot;&gt;&lt;p style=&quot;margin:0px;margin-left:4px;&quot;&gt;- maGiaoDich: int&lt;/p&gt;&lt;p style=&quot;margin:0px;margin-left:4px;&quot;&gt;- ngayGiaoDich: String&lt;/p&gt;&lt;p style=&quot;margin:0px;margin-left:4px;&quot;&gt;- donGia: int&lt;/p&gt;&lt;p style=&quot;margin:0px;margin-left:4px;&quot;&gt;- dienTich: double&lt;/p&gt;&lt;hr size=&quot;1&quot;&gt;&lt;p style=&quot;margin:0px;margin-left:4px;&quot;&gt;+&amp;nbsp;&lt;/p&gt;" style="verticalAlign=top;align=left;overflow=fill;fontSize=12;fontFamily=Helvetica;html=1;whiteSpace=wrap;" parent="1" vertex="1">
          <mxGeometry x="200" y="890" width="190" height="140" as="geometry" />
        </mxCell>
        <mxCell id="6rIiN9BHhn4Da8iqrhuP-7" value="Extends" style="endArrow=block;endSize=16;endFill=0;html=1;rounded=0;entryX=0.25;entryY=1;entryDx=0;entryDy=0;" parent="1" source="6rIiN9BHhn4Da8iqrhuP-1" target="6rIiN9BHhn4Da8iqrhuP-6" edge="1">
          <mxGeometry width="160" relative="1" as="geometry">
            <mxPoint x="220" y="930" as="sourcePoint" />
            <mxPoint x="380" y="930" as="targetPoint" />
          </mxGeometry>
        </mxCell>
        <mxCell id="6rIiN9BHhn4Da8iqrhuP-8" value="Land" style="swimlane;fontStyle=1;align=center;verticalAlign=top;childLayout=stackLayout;horizontal=1;startSize=26;horizontalStack=0;resizeParent=1;resizeParentMax=0;resizeLast=0;collapsible=1;marginBottom=0;whiteSpace=wrap;html=1;" parent="1" vertex="1">
          <mxGeometry x="340" y="1110" width="160" height="110" as="geometry" />
        </mxCell>
        <mxCell id="6rIiN9BHhn4Da8iqrhuP-9" value="- loaiDat: String" style="text;strokeColor=none;fillColor=none;align=left;verticalAlign=top;spacingLeft=4;spacingRight=4;overflow=hidden;rotatable=0;points=[[0,0.5],[1,0.5]];portConstraint=eastwest;whiteSpace=wrap;html=1;" parent="6rIiN9BHhn4Da8iqrhuP-8" vertex="1">
          <mxGeometry y="26" width="160" height="26" as="geometry" />
        </mxCell>
        <mxCell id="6rIiN9BHhn4Da8iqrhuP-10" value="" style="line;strokeWidth=1;fillColor=none;align=left;verticalAlign=middle;spacingTop=-1;spacingLeft=3;spacingRight=3;rotatable=0;labelPosition=right;points=[];portConstraint=eastwest;strokeColor=inherit;" parent="6rIiN9BHhn4Da8iqrhuP-8" vertex="1">
          <mxGeometry y="52" width="160" height="8" as="geometry" />
        </mxCell>
        <mxCell id="6rIiN9BHhn4Da8iqrhuP-11" value="+ getter/setter&lt;br&gt;+ getThanhTien: double" style="text;strokeColor=none;fillColor=none;align=left;verticalAlign=top;spacingLeft=4;spacingRight=4;overflow=hidden;rotatable=0;points=[[0,0.5],[1,0.5]];portConstraint=eastwest;whiteSpace=wrap;html=1;" parent="6rIiN9BHhn4Da8iqrhuP-8" vertex="1">
          <mxGeometry y="60" width="160" height="50" as="geometry" />
        </mxCell>
        <mxCell id="6rIiN9BHhn4Da8iqrhuP-12" value="Extends" style="endArrow=block;endSize=16;endFill=0;html=1;rounded=0;exitX=0.25;exitY=0;exitDx=0;exitDy=0;entryX=0.75;entryY=1;entryDx=0;entryDy=0;" parent="1" source="6rIiN9BHhn4Da8iqrhuP-8" target="6rIiN9BHhn4Da8iqrhuP-6" edge="1">
          <mxGeometry width="160" relative="1" as="geometry">
            <mxPoint x="206" y="941" as="sourcePoint" />
            <mxPoint x="356" y="994" as="targetPoint" />
          </mxGeometry>
        </mxCell>
        <mxCell id="6rIiN9BHhn4Da8iqrhuP-13" value="Use" style="endArrow=open;endSize=12;dashed=1;html=1;rounded=0;exitX=1;exitY=0.25;exitDx=0;exitDy=0;" parent="1" source="8F1XyEU1k7PKuXgPBpiQ-37" target="6rIiN9BHhn4Da8iqrhuP-6" edge="1">
          <mxGeometry width="160" relative="1" as="geometry">
            <mxPoint x="-320" y="1160" as="sourcePoint" />
            <mxPoint x="-360" y="1360" as="targetPoint" />
          </mxGeometry>
        </mxCell>
        <mxCell id="6rIiN9BHhn4Da8iqrhuP-14" value="SumCountHouseCommand" style="swimlane;fontStyle=1;align=center;verticalAlign=top;childLayout=stackLayout;horizontal=1;startSize=26;horizontalStack=0;resizeParent=1;resizeParentMax=0;resizeLast=0;collapsible=1;marginBottom=0;whiteSpace=wrap;html=1;" parent="1" vertex="1">
          <mxGeometry x="-1445" y="820" width="285" height="110" as="geometry" />
        </mxCell>
        <mxCell id="6rIiN9BHhn4Da8iqrhuP-15" value="-&amp;nbsp;" style="text;strokeColor=none;fillColor=none;align=left;verticalAlign=top;spacingLeft=4;spacingRight=4;overflow=hidden;rotatable=0;points=[[0,0.5],[1,0.5]];portConstraint=eastwest;whiteSpace=wrap;html=1;" parent="6rIiN9BHhn4Da8iqrhuP-14" vertex="1">
          <mxGeometry y="26" width="285" height="26" as="geometry" />
        </mxCell>
        <mxCell id="6rIiN9BHhn4Da8iqrhuP-16" value="" style="line;strokeWidth=1;fillColor=none;align=left;verticalAlign=middle;spacingTop=-1;spacingLeft=3;spacingRight=3;rotatable=0;labelPosition=right;points=[];portConstraint=eastwest;strokeColor=inherit;" parent="6rIiN9BHhn4Da8iqrhuP-14" vertex="1">
          <mxGeometry y="52" width="285" height="8" as="geometry" />
        </mxCell>
        <mxCell id="6rIiN9BHhn4Da8iqrhuP-17" value="SumCountHouseCommand(HouseService, String)&lt;br&gt;+ execute(): void" style="text;strokeColor=none;fillColor=none;align=left;verticalAlign=top;spacingLeft=4;spacingRight=4;overflow=hidden;rotatable=0;points=[[0,0.5],[1,0.5]];portConstraint=eastwest;whiteSpace=wrap;html=1;" parent="6rIiN9BHhn4Da8iqrhuP-14" vertex="1">
          <mxGeometry y="60" width="285" height="50" as="geometry" />
        </mxCell>
        <mxCell id="6rIiN9BHhn4Da8iqrhuP-18" value="ExportCommand" style="swimlane;fontStyle=1;align=center;verticalAlign=top;childLayout=stackLayout;horizontal=1;startSize=26;horizontalStack=0;resizeParent=1;resizeParentMax=0;resizeLast=0;collapsible=1;marginBottom=0;whiteSpace=wrap;html=1;" parent="1" vertex="1">
          <mxGeometry x="-1275" y="941.24" width="285" height="110" as="geometry" />
        </mxCell>
        <mxCell id="6rIiN9BHhn4Da8iqrhuP-19" value="-&amp;nbsp;" style="text;strokeColor=none;fillColor=none;align=left;verticalAlign=top;spacingLeft=4;spacingRight=4;overflow=hidden;rotatable=0;points=[[0,0.5],[1,0.5]];portConstraint=eastwest;whiteSpace=wrap;html=1;" parent="6rIiN9BHhn4Da8iqrhuP-18" vertex="1">
          <mxGeometry y="26" width="285" height="26" as="geometry" />
        </mxCell>
        <mxCell id="6rIiN9BHhn4Da8iqrhuP-20" value="" style="line;strokeWidth=1;fillColor=none;align=left;verticalAlign=middle;spacingTop=-1;spacingLeft=3;spacingRight=3;rotatable=0;labelPosition=right;points=[];portConstraint=eastwest;strokeColor=inherit;" parent="6rIiN9BHhn4Da8iqrhuP-18" vertex="1">
          <mxGeometry y="52" width="285" height="8" as="geometry" />
        </mxCell>
        <mxCell id="6rIiN9BHhn4Da8iqrhuP-21" value="ExportCommand(HouseService, int)&lt;br&gt;+ execute(): void" style="text;strokeColor=none;fillColor=none;align=left;verticalAlign=top;spacingLeft=4;spacingRight=4;overflow=hidden;rotatable=0;points=[[0,0.5],[1,0.5]];portConstraint=eastwest;whiteSpace=wrap;html=1;" parent="6rIiN9BHhn4Da8iqrhuP-18" vertex="1">
          <mxGeometry y="60" width="285" height="50" as="geometry" />
        </mxCell>
        <mxCell id="6rIiN9BHhn4Da8iqrhuP-22" value="CalcCommand" style="swimlane;fontStyle=1;align=center;verticalAlign=top;childLayout=stackLayout;horizontal=1;startSize=26;horizontalStack=0;resizeParent=1;resizeParentMax=0;resizeLast=0;collapsible=1;marginBottom=0;whiteSpace=wrap;html=1;" parent="1" vertex="1">
          <mxGeometry x="-1150" y="1080" width="285" height="110" as="geometry" />
        </mxCell>
        <mxCell id="6rIiN9BHhn4Da8iqrhuP-23" value="-&amp;nbsp;" style="text;strokeColor=none;fillColor=none;align=left;verticalAlign=top;spacingLeft=4;spacingRight=4;overflow=hidden;rotatable=0;points=[[0,0.5],[1,0.5]];portConstraint=eastwest;whiteSpace=wrap;html=1;" parent="6rIiN9BHhn4Da8iqrhuP-22" vertex="1">
          <mxGeometry y="26" width="285" height="26" as="geometry" />
        </mxCell>
        <mxCell id="6rIiN9BHhn4Da8iqrhuP-24" value="" style="line;strokeWidth=1;fillColor=none;align=left;verticalAlign=middle;spacingTop=-1;spacingLeft=3;spacingRight=3;rotatable=0;labelPosition=right;points=[];portConstraint=eastwest;strokeColor=inherit;" parent="6rIiN9BHhn4Da8iqrhuP-22" vertex="1">
          <mxGeometry y="52" width="285" height="8" as="geometry" />
        </mxCell>
        <mxCell id="6rIiN9BHhn4Da8iqrhuP-25" value="CalcCommand(HouseService, House)&lt;br&gt;+ execute(): void" style="text;strokeColor=none;fillColor=none;align=left;verticalAlign=top;spacingLeft=4;spacingRight=4;overflow=hidden;rotatable=0;points=[[0,0.5],[1,0.5]];portConstraint=eastwest;whiteSpace=wrap;html=1;" parent="6rIiN9BHhn4Da8iqrhuP-22" vertex="1">
          <mxGeometry y="60" width="285" height="50" as="geometry" />
        </mxCell>
        <mxCell id="6rIiN9BHhn4Da8iqrhuP-27" value="" style="endArrow=block;endSize=16;endFill=0;html=1;rounded=0;exitX=1;exitY=0;exitDx=0;exitDy=0;entryX=0.005;entryY=0.948;entryDx=0;entryDy=0;entryPerimeter=0;" parent="1" source="6rIiN9BHhn4Da8iqrhuP-14" target="jqKUpd696BWljWw7io7Z-10" edge="1">
          <mxGeometry x="-1" y="-496" width="160" relative="1" as="geometry">
            <mxPoint x="-1096" y="792" as="sourcePoint" />
            <mxPoint x="-800" y="754" as="targetPoint" />
            <mxPoint x="402" y="310" as="offset" />
          </mxGeometry>
        </mxCell>
        <mxCell id="6rIiN9BHhn4Da8iqrhuP-28" value="Extends" style="edgeLabel;html=1;align=center;verticalAlign=middle;resizable=0;points=[];" parent="6rIiN9BHhn4Da8iqrhuP-27" vertex="1" connectable="0">
          <mxGeometry x="-0.0619" y="-2" relative="1" as="geometry">
            <mxPoint as="offset" />
          </mxGeometry>
        </mxCell>
        <mxCell id="6rIiN9BHhn4Da8iqrhuP-30" value="" style="endArrow=block;endSize=16;endFill=0;html=1;rounded=0;exitX=0.75;exitY=0;exitDx=0;exitDy=0;entryX=0.077;entryY=0.994;entryDx=0;entryDy=0;entryPerimeter=0;" parent="1" source="6rIiN9BHhn4Da8iqrhuP-18" target="jqKUpd696BWljWw7io7Z-10" edge="1">
          <mxGeometry x="-1" y="-496" width="160" relative="1" as="geometry">
            <mxPoint x="-1150" y="830" as="sourcePoint" />
            <mxPoint x="-789" y="746" as="targetPoint" />
            <mxPoint x="402" y="310" as="offset" />
          </mxGeometry>
        </mxCell>
        <mxCell id="6rIiN9BHhn4Da8iqrhuP-31" value="Extends" style="edgeLabel;html=1;align=center;verticalAlign=middle;resizable=0;points=[];" parent="6rIiN9BHhn4Da8iqrhuP-30" vertex="1" connectable="0">
          <mxGeometry x="-0.0619" y="-2" relative="1" as="geometry">
            <mxPoint as="offset" />
          </mxGeometry>
        </mxCell>
        <mxCell id="6rIiN9BHhn4Da8iqrhuP-32" value="" style="endArrow=block;endSize=16;endFill=0;html=1;rounded=0;exitX=0.922;exitY=-0.01;exitDx=0;exitDy=0;exitPerimeter=0;entryX=0.192;entryY=1.041;entryDx=0;entryDy=0;entryPerimeter=0;" parent="1" source="6rIiN9BHhn4Da8iqrhuP-22" target="jqKUpd696BWljWw7io7Z-10" edge="1">
          <mxGeometry x="-1" y="-496" width="160" relative="1" as="geometry">
            <mxPoint x="-1150" y="830" as="sourcePoint" />
            <mxPoint x="-789" y="746" as="targetPoint" />
            <mxPoint x="402" y="310" as="offset" />
          </mxGeometry>
        </mxCell>
        <mxCell id="6rIiN9BHhn4Da8iqrhuP-33" value="Extends" style="edgeLabel;html=1;align=center;verticalAlign=middle;resizable=0;points=[];" parent="6rIiN9BHhn4Da8iqrhuP-32" vertex="1" connectable="0">
          <mxGeometry x="-0.0619" y="-2" relative="1" as="geometry">
            <mxPoint as="offset" />
          </mxGeometry>
        </mxCell>
        <mxCell id="6rIiN9BHhn4Da8iqrhuP-34" value="Use" style="endArrow=open;endSize=12;dashed=1;html=1;rounded=0;exitX=0;exitY=0.25;exitDx=0;exitDy=0;entryX=1;entryY=0.5;entryDx=0;entryDy=0;" parent="1" source="8F1XyEU1k7PKuXgPBpiQ-62" target="6rIiN9BHhn4Da8iqrhuP-6" edge="1">
          <mxGeometry width="160" relative="1" as="geometry">
            <mxPoint x="-40" y="988" as="sourcePoint" />
            <mxPoint x="210" y="1001" as="targetPoint" />
          </mxGeometry>
        </mxCell>
        <mxCell id="6rIiN9BHhn4Da8iqrhuP-49" value="SumCountLandCommand" style="swimlane;fontStyle=1;align=center;verticalAlign=top;childLayout=stackLayout;horizontal=1;startSize=26;horizontalStack=0;resizeParent=1;resizeParentMax=0;resizeLast=0;collapsible=1;marginBottom=0;whiteSpace=wrap;html=1;" parent="1" vertex="1">
          <mxGeometry x="1700" y="820" width="285" height="110" as="geometry" />
        </mxCell>
        <mxCell id="6rIiN9BHhn4Da8iqrhuP-50" value="-&amp;nbsp;" style="text;strokeColor=none;fillColor=none;align=left;verticalAlign=top;spacingLeft=4;spacingRight=4;overflow=hidden;rotatable=0;points=[[0,0.5],[1,0.5]];portConstraint=eastwest;whiteSpace=wrap;html=1;" parent="6rIiN9BHhn4Da8iqrhuP-49" vertex="1">
          <mxGeometry y="26" width="285" height="26" as="geometry" />
        </mxCell>
        <mxCell id="6rIiN9BHhn4Da8iqrhuP-51" value="" style="line;strokeWidth=1;fillColor=none;align=left;verticalAlign=middle;spacingTop=-1;spacingLeft=3;spacingRight=3;rotatable=0;labelPosition=right;points=[];portConstraint=eastwest;strokeColor=inherit;" parent="6rIiN9BHhn4Da8iqrhuP-49" vertex="1">
          <mxGeometry y="52" width="285" height="8" as="geometry" />
        </mxCell>
        <mxCell id="6rIiN9BHhn4Da8iqrhuP-52" value="SumCountLandCommand(HouseService, String)&lt;br&gt;+ execute(): void" style="text;strokeColor=none;fillColor=none;align=left;verticalAlign=top;spacingLeft=4;spacingRight=4;overflow=hidden;rotatable=0;points=[[0,0.5],[1,0.5]];portConstraint=eastwest;whiteSpace=wrap;html=1;" parent="6rIiN9BHhn4Da8iqrhuP-49" vertex="1">
          <mxGeometry y="60" width="285" height="50" as="geometry" />
        </mxCell>
        <mxCell id="6rIiN9BHhn4Da8iqrhuP-53" value="ExportCommand" style="swimlane;fontStyle=1;align=center;verticalAlign=top;childLayout=stackLayout;horizontal=1;startSize=26;horizontalStack=0;resizeParent=1;resizeParentMax=0;resizeLast=0;collapsible=1;marginBottom=0;whiteSpace=wrap;html=1;" parent="1" vertex="1">
          <mxGeometry x="1630" y="950" width="285" height="110" as="geometry" />
        </mxCell>
        <mxCell id="6rIiN9BHhn4Da8iqrhuP-54" value="-&amp;nbsp;" style="text;strokeColor=none;fillColor=none;align=left;verticalAlign=top;spacingLeft=4;spacingRight=4;overflow=hidden;rotatable=0;points=[[0,0.5],[1,0.5]];portConstraint=eastwest;whiteSpace=wrap;html=1;" parent="6rIiN9BHhn4Da8iqrhuP-53" vertex="1">
          <mxGeometry y="26" width="285" height="26" as="geometry" />
        </mxCell>
        <mxCell id="6rIiN9BHhn4Da8iqrhuP-55" value="" style="line;strokeWidth=1;fillColor=none;align=left;verticalAlign=middle;spacingTop=-1;spacingLeft=3;spacingRight=3;rotatable=0;labelPosition=right;points=[];portConstraint=eastwest;strokeColor=inherit;" parent="6rIiN9BHhn4Da8iqrhuP-53" vertex="1">
          <mxGeometry y="52" width="285" height="8" as="geometry" />
        </mxCell>
        <mxCell id="6rIiN9BHhn4Da8iqrhuP-56" value="ExportCommand(HouseService, int)&lt;br&gt;+ execute(): void" style="text;strokeColor=none;fillColor=none;align=left;verticalAlign=top;spacingLeft=4;spacingRight=4;overflow=hidden;rotatable=0;points=[[0,0.5],[1,0.5]];portConstraint=eastwest;whiteSpace=wrap;html=1;" parent="6rIiN9BHhn4Da8iqrhuP-53" vertex="1">
          <mxGeometry y="60" width="285" height="50" as="geometry" />
        </mxCell>
        <mxCell id="6rIiN9BHhn4Da8iqrhuP-57" value="CalcCommand" style="swimlane;fontStyle=1;align=center;verticalAlign=top;childLayout=stackLayout;horizontal=1;startSize=26;horizontalStack=0;resizeParent=1;resizeParentMax=0;resizeLast=0;collapsible=1;marginBottom=0;whiteSpace=wrap;html=1;" parent="1" vertex="1">
          <mxGeometry x="1430" y="1090" width="285" height="110" as="geometry" />
        </mxCell>
        <mxCell id="6rIiN9BHhn4Da8iqrhuP-58" value="-&amp;nbsp;" style="text;strokeColor=none;fillColor=none;align=left;verticalAlign=top;spacingLeft=4;spacingRight=4;overflow=hidden;rotatable=0;points=[[0,0.5],[1,0.5]];portConstraint=eastwest;whiteSpace=wrap;html=1;" parent="6rIiN9BHhn4Da8iqrhuP-57" vertex="1">
          <mxGeometry y="26" width="285" height="26" as="geometry" />
        </mxCell>
        <mxCell id="6rIiN9BHhn4Da8iqrhuP-59" value="" style="line;strokeWidth=1;fillColor=none;align=left;verticalAlign=middle;spacingTop=-1;spacingLeft=3;spacingRight=3;rotatable=0;labelPosition=right;points=[];portConstraint=eastwest;strokeColor=inherit;" parent="6rIiN9BHhn4Da8iqrhuP-57" vertex="1">
          <mxGeometry y="52" width="285" height="8" as="geometry" />
        </mxCell>
        <mxCell id="6rIiN9BHhn4Da8iqrhuP-60" value="CalcCommand(HouseService, House)&lt;br&gt;+ execute(): void" style="text;strokeColor=none;fillColor=none;align=left;verticalAlign=top;spacingLeft=4;spacingRight=4;overflow=hidden;rotatable=0;points=[[0,0.5],[1,0.5]];portConstraint=eastwest;whiteSpace=wrap;html=1;" parent="6rIiN9BHhn4Da8iqrhuP-57" vertex="1">
          <mxGeometry y="60" width="285" height="50" as="geometry" />
        </mxCell>
        <mxCell id="6rIiN9BHhn4Da8iqrhuP-63" value="" style="endArrow=block;endSize=16;endFill=0;html=1;rounded=0;exitX=0;exitY=0.5;exitDx=0;exitDy=0;entryX=1;entryY=1;entryDx=0;entryDy=0;" parent="1" source="6rIiN9BHhn4Da8iqrhuP-54" target="jqKUpd696BWljWw7io7Z-66" edge="1">
          <mxGeometry x="-1" y="-496" width="160" relative="1" as="geometry">
            <mxPoint x="1710" y="754" as="sourcePoint" />
            <mxPoint x="1460" y="856" as="targetPoint" />
            <mxPoint x="402" y="310" as="offset" />
          </mxGeometry>
        </mxCell>
        <mxCell id="6rIiN9BHhn4Da8iqrhuP-64" value="Extends" style="edgeLabel;html=1;align=center;verticalAlign=middle;resizable=0;points=[];" parent="6rIiN9BHhn4Da8iqrhuP-63" vertex="1" connectable="0">
          <mxGeometry x="-0.0619" y="-2" relative="1" as="geometry">
            <mxPoint as="offset" />
          </mxGeometry>
        </mxCell>
        <mxCell id="6rIiN9BHhn4Da8iqrhuP-65" value="" style="endArrow=block;endSize=16;endFill=0;html=1;rounded=0;exitX=0;exitY=0;exitDx=0;exitDy=0;entryX=0.75;entryY=1;entryDx=0;entryDy=0;" parent="1" source="6rIiN9BHhn4Da8iqrhuP-57" target="jqKUpd696BWljWw7io7Z-66" edge="1">
          <mxGeometry x="-1" y="-496" width="160" relative="1" as="geometry">
            <mxPoint x="1720" y="764" as="sourcePoint" />
            <mxPoint x="1470" y="866" as="targetPoint" />
            <mxPoint x="402" y="310" as="offset" />
          </mxGeometry>
        </mxCell>
        <mxCell id="6rIiN9BHhn4Da8iqrhuP-66" value="Extends" style="edgeLabel;html=1;align=center;verticalAlign=middle;resizable=0;points=[];" parent="6rIiN9BHhn4Da8iqrhuP-65" vertex="1" connectable="0">
          <mxGeometry x="-0.0619" y="-2" relative="1" as="geometry">
            <mxPoint as="offset" />
          </mxGeometry>
        </mxCell>
      </root>
    </mxGraphModel>
  </diagram>
  <diagram id="kVJhwpi9LjxtVQFYLApZ" name="Page-2">
    <mxGraphModel dx="4050" dy="1549" grid="1" gridSize="10" guides="1" tooltips="1" connect="1" arrows="1" fold="1" page="1" pageScale="1" pageWidth="850" pageHeight="1100" math="0" shadow="0">
      <root>
        <mxCell id="0" />
        <mxCell id="1" parent="0" />
        <mxCell id="OyHK7IOIYtpEXpOzV6Mq-3" value="" style="rounded=0;whiteSpace=wrap;html=1;fillColor=#FFCCE6;" parent="1" vertex="1">
          <mxGeometry x="-850" y="900" width="2660" height="1100" as="geometry" />
        </mxCell>
        <mxCell id="OyHK7IOIYtpEXpOzV6Mq-2" value="" style="rounded=0;whiteSpace=wrap;html=1;fillColor=#FFFFCC;" parent="1" vertex="1">
          <mxGeometry x="-850" y="2000" width="2180" height="1080" as="geometry" />
        </mxCell>
        <mxCell id="OyHK7IOIYtpEXpOzV6Mq-1" value="" style="rounded=0;whiteSpace=wrap;html=1;fillColor=#99FFFF;shadow=1;" parent="1" vertex="1">
          <mxGeometry x="-850" y="3080" width="2140" height="920" as="geometry" />
        </mxCell>
        <mxCell id="J8hBxOplMBVv3ACiszUE-8" value="TransactionUI" style="swimlane;fontStyle=1;align=center;verticalAlign=top;childLayout=stackLayout;horizontal=1;startSize=26;horizontalStack=0;resizeParent=1;resizeParentMax=0;resizeLast=0;collapsible=1;marginBottom=0;whiteSpace=wrap;html=1;" parent="1" vertex="1">
          <mxGeometry x="-500" y="1290" width="590" height="550" as="geometry" />
        </mxCell>
        <mxCell id="J8hBxOplMBVv3ACiszUE-9" value="- transactionService: TransactionService&lt;br&gt;- commandProcessor: CommandProcessor&lt;br&gt;- jMenuBar: JMenuBar&lt;br&gt;- tableModel: DefaultTableModel&lt;br&gt;- transactionTable: JTable&lt;br&gt;- addButton, updateButton, deleteButton, findIDButton, sumButton, sumCountHouseButton, sumCountLandButton, avgHouseButton, avgLandButton, exportButton: JButton&lt;br&gt;- labelMaGiaoDich, labelNgayGiaoDich, labelDonGia, labelLoaiDat, labelLoaiNha, labelDiaChi, labelDienTich, labelTimKiem: JLabel&lt;br&gt;- textMaGiaoDich, textDonGia, textDiaChi, textDienTich, textTimKiem: JTextField&lt;br&gt;- comboBoxLoaiNha, comboBoxLoaiDat, comboBoxMonth: JComboBox&lt;br&gt;- jngayGiaoDich: JXDatePicker" style="text;strokeColor=none;fillColor=#FFFFFF;align=left;verticalAlign=top;spacingLeft=4;spacingRight=4;overflow=hidden;rotatable=0;points=[[0,0.5],[1,0.5]];portConstraint=eastwest;whiteSpace=wrap;html=1;" parent="J8hBxOplMBVv3ACiszUE-8" vertex="1">
          <mxGeometry y="26" width="590" height="184" as="geometry" />
        </mxCell>
        <mxCell id="J8hBxOplMBVv3ACiszUE-10" value="" style="line;strokeWidth=1;fillColor=none;align=left;verticalAlign=middle;spacingTop=-1;spacingLeft=3;spacingRight=3;rotatable=0;labelPosition=right;points=[];portConstraint=eastwest;strokeColor=inherit;" parent="J8hBxOplMBVv3ACiszUE-8" vertex="1">
          <mxGeometry y="210" width="590" height="8" as="geometry" />
        </mxCell>
        <mxCell id="J8hBxOplMBVv3ACiszUE-11" value="TransactionUI(transactionService: TransactionService, commandProcessor: CommandProcessor)&lt;br&gt;+ buildMenuBar(): void&lt;br&gt;+ buildPanel(): void&lt;br&gt;+ close(): void&lt;br&gt;+ reloadTable(): void&lt;br&gt;+ reloadTable(transactions: List&amp;lt;Transaction&amp;gt;): void&lt;br&gt;+ clearInput(): void&lt;br&gt;+ getCurrentTransaction(): Transaction&lt;br&gt;+ setTransaction(transaction: Transaction): void&lt;br&gt;+ addTransaction(transaction: Transaction): Command&lt;br&gt;+ updateTransaction(transaction: Transaction): Command&lt;br&gt;+ calcMoney(transaction: Transaction): Command&lt;br&gt;+ deleteTransaction(): Command&lt;br&gt;+ sumCountHouse(): Command&lt;br&gt;+ sumCountLand(): Command&lt;br&gt;+ avgMoneyHouse(): Command&lt;br&gt;+ avgMoneyLand(): Command&lt;br&gt;+ exportData(): Command&lt;br&gt;+ findByID(): Command&lt;br&gt;+ valueChanged(e: ListSelectionEvent): void&lt;br&gt;+ actionPerformed(e: ActionEvent): void&lt;br&gt;+ update(): void" style="text;strokeColor=none;fillColor=#FFFFFF;align=left;verticalAlign=top;spacingLeft=4;spacingRight=4;overflow=hidden;rotatable=0;points=[[0,0.5],[1,0.5]];portConstraint=eastwest;whiteSpace=wrap;html=1;" parent="J8hBxOplMBVv3ACiszUE-8" vertex="1">
          <mxGeometry y="218" width="590" height="332" as="geometry" />
        </mxCell>
        <mxCell id="J8hBxOplMBVv3ACiszUE-13" value="" style="endArrow=block;dashed=1;endFill=0;endSize=12;html=1;rounded=0;exitX=0.707;exitY=-0.007;exitDx=0;exitDy=0;exitPerimeter=0;entryX=0.5;entryY=1;entryDx=0;entryDy=0;" parent="1" source="J8hBxOplMBVv3ACiszUE-8" target="J8hBxOplMBVv3ACiszUE-22" edge="1">
          <mxGeometry width="160" relative="1" as="geometry">
            <mxPoint x="-279.1199999999999" y="568.44" as="sourcePoint" />
            <mxPoint x="-279" y="380" as="targetPoint" />
          </mxGeometry>
        </mxCell>
        <mxCell id="J8hBxOplMBVv3ACiszUE-20" value="&lt;p style=&quot;margin:0px;margin-top:4px;text-align:center;&quot;&gt;&lt;i&gt;&amp;lt;&amp;lt;interface&amp;gt;&amp;gt;&lt;/i&gt;&lt;br&gt;&lt;b&gt;TransactionService&lt;/b&gt;&lt;br&gt;&lt;/p&gt;&lt;hr size=&quot;1&quot;&gt;&lt;p style=&quot;margin:0px;margin-left:4px;&quot;&gt;-&amp;nbsp;&lt;/p&gt;&lt;hr size=&quot;1&quot;&gt;&lt;p style=&quot;margin:0px;margin-left:4px;&quot;&gt;+ addSub(s: Subscriber): void&lt;br&gt;+ add(transaction: Transaction): void&lt;br&gt;+ update(transaction: Transaction): void&lt;br&gt;+ delete(id: int): void&lt;br&gt;+ find(id: int): void&lt;br&gt;+ findGetTransaction(id: int): Transaction&lt;br&gt;+ getAllTransactions(): void&lt;br&gt;+ getData(): List&amp;lt;Transaction&amp;gt;&lt;br&gt;+ getTransaction(): Transaction&lt;br&gt;+ getTransactions(): List&amp;lt;Transaction&amp;gt;&lt;br&gt;+ calcMoney(transaction: Transaction): void&lt;br&gt;+ getThanhTIen(): double&lt;br&gt;+ sumCountTransaction(loai: String): void&lt;br&gt;+ getCountTransaction(): int&lt;br&gt;+ avgMoneyHouse(): void&lt;br&gt;+ avgMoneyLand(): void&lt;br&gt;+ getAvgMoney(): double&lt;br&gt;+ exportData(month: int): void&lt;/p&gt;" style="verticalAlign=top;align=left;overflow=fill;fontSize=12;fontFamily=Helvetica;html=1;whiteSpace=wrap;" parent="1" vertex="1">
          <mxGeometry x="-150" y="2220" width="260" height="340" as="geometry" />
        </mxCell>
        <mxCell id="J8hBxOplMBVv3ACiszUE-21" value="" style="endArrow=open;endFill=1;endSize=12;html=1;rounded=0;exitX=0.233;exitY=0.989;exitDx=0;exitDy=0;exitPerimeter=0;entryX=0.148;entryY=-0.001;entryDx=0;entryDy=0;entryPerimeter=0;" parent="1" source="J8hBxOplMBVv3ACiszUE-11" target="J8hBxOplMBVv3ACiszUE-20" edge="1">
          <mxGeometry width="160" relative="1" as="geometry">
            <mxPoint x="242" y="452" as="sourcePoint" />
            <mxPoint x="243" y="570" as="targetPoint" />
          </mxGeometry>
        </mxCell>
        <mxCell id="J8hBxOplMBVv3ACiszUE-22" value="&lt;p style=&quot;margin:0px;margin-top:4px;text-align:center;&quot;&gt;&lt;b&gt;java.awt.event&lt;br&gt;ActionListener&lt;/b&gt;&lt;/p&gt;&lt;hr size=&quot;1&quot; style=&quot;border-style:solid;&quot;&gt;&lt;p style=&quot;margin:0px;margin-left:4px;&quot;&gt;-&amp;nbsp;&lt;/p&gt;&lt;hr size=&quot;1&quot; style=&quot;border-style:solid;&quot;&gt;&lt;p style=&quot;margin:0px;margin-left:4px;&quot;&gt;+&amp;nbsp;&lt;/p&gt;" style="verticalAlign=top;align=left;overflow=fill;html=1;whiteSpace=wrap;" parent="1" vertex="1">
          <mxGeometry x="-190" y="1060" width="120" height="100" as="geometry" />
        </mxCell>
        <mxCell id="J8hBxOplMBVv3ACiszUE-24" value="&lt;p style=&quot;margin:0px;margin-top:4px;text-align:center;&quot;&gt;&lt;b&gt;javax.swing&lt;/b&gt;&lt;/p&gt;&lt;p style=&quot;margin:0px;margin-top:4px;text-align:center;&quot;&gt;&lt;b&gt;JFrame&lt;/b&gt;&lt;/p&gt;&lt;hr size=&quot;1&quot; style=&quot;border-style:solid;&quot;&gt;&lt;p style=&quot;margin:0px;margin-left:4px;&quot;&gt;-&amp;nbsp;&lt;/p&gt;&lt;hr size=&quot;1&quot; style=&quot;border-style:solid;&quot;&gt;&lt;p style=&quot;margin:0px;margin-left:4px;&quot;&gt;+&amp;nbsp;&lt;/p&gt;" style="verticalAlign=top;align=left;overflow=fill;html=1;whiteSpace=wrap;" parent="1" vertex="1">
          <mxGeometry x="-20" y="1070" width="120" height="100" as="geometry" />
        </mxCell>
        <mxCell id="J8hBxOplMBVv3ACiszUE-25" value="Extends" style="endArrow=block;endSize=16;endFill=0;html=1;rounded=0;exitX=0.935;exitY=-0.007;exitDx=0;exitDy=0;entryX=0.405;entryY=1.003;entryDx=0;entryDy=0;exitPerimeter=0;entryPerimeter=0;" parent="1" source="J8hBxOplMBVv3ACiszUE-8" target="J8hBxOplMBVv3ACiszUE-24" edge="1">
          <mxGeometry width="160" relative="1" as="geometry">
            <mxPoint x="205" y="234" as="sourcePoint" />
            <mxPoint x="30" y="390" as="targetPoint" />
          </mxGeometry>
        </mxCell>
        <mxCell id="J8hBxOplMBVv3ACiszUE-28" value="TransactionServiceImpl" style="swimlane;fontStyle=1;align=center;verticalAlign=top;childLayout=stackLayout;horizontal=1;startSize=26;horizontalStack=0;resizeParent=1;resizeParentMax=0;resizeLast=0;collapsible=1;marginBottom=0;whiteSpace=wrap;html=1;" parent="1" vertex="1">
          <mxGeometry x="-15" y="2600" width="430" height="440" as="geometry" />
        </mxCell>
        <mxCell id="J8hBxOplMBVv3ACiszUE-29" value="-&amp;nbsp;persistenceService: TransactionPersistenceService&lt;br&gt;- transaction: Transaction&lt;br&gt;- transactions: List&amp;lt;Transaction&amp;gt;&lt;br&gt;- thanhTien: double&lt;br&gt;- soLuong: int&lt;br&gt;- avgMoney: double" style="text;strokeColor=none;fillColor=#FFFFFF;align=left;verticalAlign=top;spacingLeft=4;spacingRight=4;overflow=hidden;rotatable=0;points=[[0,0.5],[1,0.5]];portConstraint=eastwest;whiteSpace=wrap;html=1;" parent="J8hBxOplMBVv3ACiszUE-28" vertex="1">
          <mxGeometry y="26" width="430" height="104" as="geometry" />
        </mxCell>
        <mxCell id="J8hBxOplMBVv3ACiszUE-30" value="" style="line;strokeWidth=1;fillColor=none;align=left;verticalAlign=middle;spacingTop=-1;spacingLeft=3;spacingRight=3;rotatable=0;labelPosition=right;points=[];portConstraint=eastwest;strokeColor=inherit;" parent="J8hBxOplMBVv3ACiszUE-28" vertex="1">
          <mxGeometry y="130" width="430" height="8" as="geometry" />
        </mxCell>
        <mxCell id="J8hBxOplMBVv3ACiszUE-31" value="TransactionServiceImpl(peristenceService: TransactionPersistenceService)&lt;br&gt;+ changeState(): void&lt;br&gt;+ addSub(s: Subscriber): void&lt;br style=&quot;border-color: var(--border-color);&quot;&gt;+ add(transaction: Transaction): void&lt;br style=&quot;border-color: var(--border-color);&quot;&gt;+ update(transaction: Transaction): void&lt;br style=&quot;border-color: var(--border-color);&quot;&gt;+ delete(id: int): void&lt;br style=&quot;border-color: var(--border-color);&quot;&gt;+ find(id: int): void&lt;br style=&quot;border-color: var(--border-color);&quot;&gt;+ findGetTransaction(id: int): Transaction&lt;br style=&quot;border-color: var(--border-color);&quot;&gt;+ getAllTransactions(): void&lt;br style=&quot;border-color: var(--border-color);&quot;&gt;+ getData(): List&amp;lt;Transaction&amp;gt;&lt;br style=&quot;border-color: var(--border-color);&quot;&gt;+ getTransaction(): Transaction&lt;br style=&quot;border-color: var(--border-color);&quot;&gt;+ getTransactions(): List&amp;lt;Transaction&amp;gt;&lt;br style=&quot;border-color: var(--border-color);&quot;&gt;+ calcMoney(transaction: Transaction): void&lt;br style=&quot;border-color: var(--border-color);&quot;&gt;+ getThanhTIen(): double&lt;br style=&quot;border-color: var(--border-color);&quot;&gt;+ sumCountTransaction(loai: String): void&lt;br style=&quot;border-color: var(--border-color);&quot;&gt;+ getCountTransaction(): int&lt;br style=&quot;border-color: var(--border-color);&quot;&gt;+ avgMoneyHouse(): void&lt;br style=&quot;border-color: var(--border-color);&quot;&gt;+ avgMoneyLand(): void&lt;br style=&quot;border-color: var(--border-color);&quot;&gt;+ getAvgMoney(): double&lt;br style=&quot;border-color: var(--border-color);&quot;&gt;+ exportData(month: int): void" style="text;strokeColor=none;fillColor=#FFFFFF;align=left;verticalAlign=top;spacingLeft=4;spacingRight=4;overflow=hidden;rotatable=0;points=[[0,0.5],[1,0.5]];portConstraint=eastwest;whiteSpace=wrap;html=1;" parent="J8hBxOplMBVv3ACiszUE-28" vertex="1">
          <mxGeometry y="138" width="430" height="302" as="geometry" />
        </mxCell>
        <mxCell id="J8hBxOplMBVv3ACiszUE-32" value="" style="endArrow=block;dashed=1;endFill=0;endSize=12;html=1;rounded=0;exitX=0.25;exitY=0;exitDx=0;exitDy=0;entryX=0.8;entryY=1.002;entryDx=0;entryDy=0;entryPerimeter=0;" parent="1" source="J8hBxOplMBVv3ACiszUE-28" target="J8hBxOplMBVv3ACiszUE-20" edge="1">
          <mxGeometry width="160" relative="1" as="geometry">
            <mxPoint x="1086" y="528" as="sourcePoint" />
            <mxPoint x="1140" y="470" as="targetPoint" />
          </mxGeometry>
        </mxCell>
        <mxCell id="J8hBxOplMBVv3ACiszUE-33" value="&lt;p style=&quot;margin:0px;margin-top:4px;text-align:center;&quot;&gt;&lt;i&gt;&amp;lt;&amp;lt;interface&amp;gt;&amp;gt;&lt;/i&gt;&lt;br&gt;&lt;b&gt;TransactionPersistenceService&lt;/b&gt;&lt;br&gt;&lt;/p&gt;&lt;hr size=&quot;1&quot;&gt;&lt;p style=&quot;margin:0px;margin-left:4px;&quot;&gt;-&amp;nbsp;&lt;/p&gt;&lt;hr size=&quot;1&quot;&gt;&lt;p style=&quot;margin:0px;margin-left:4px;&quot;&gt;+ add(transaction: Transaction): void&lt;br style=&quot;border-color: var(--border-color);&quot;&gt;+ update(transaction: Transaction): void&lt;br style=&quot;border-color: var(--border-color);&quot;&gt;+ delete(id: int): void&lt;br style=&quot;border-color: var(--border-color);&quot;&gt;+&amp;nbsp;getTransactionByID(id: int): Transaction&lt;br style=&quot;border-color: var(--border-color);&quot;&gt;+ getAllTransactions(): List&amp;lt;Transaction&amp;gt;&lt;br&gt;&lt;br&gt;&lt;/p&gt;" style="verticalAlign=top;align=left;overflow=fill;fontSize=12;fontFamily=Helvetica;html=1;whiteSpace=wrap;" parent="1" vertex="1">
          <mxGeometry x="77.5" y="3200" width="260" height="160" as="geometry" />
        </mxCell>
        <mxCell id="J8hBxOplMBVv3ACiszUE-34" value="" style="endArrow=open;endFill=1;endSize=12;html=1;rounded=0;exitX=0.458;exitY=1.008;exitDx=0;exitDy=0;exitPerimeter=0;entryX=0.433;entryY=-0.009;entryDx=0;entryDy=0;entryPerimeter=0;" parent="1" source="J8hBxOplMBVv3ACiszUE-31" target="J8hBxOplMBVv3ACiszUE-33" edge="1">
          <mxGeometry width="160" relative="1" as="geometry">
            <mxPoint x="-28" y="829" as="sourcePoint" />
            <mxPoint x="-40" y="890" as="targetPoint" />
          </mxGeometry>
        </mxCell>
        <mxCell id="J8hBxOplMBVv3ACiszUE-35" value="TransactionPersistenceServiceImpl" style="swimlane;fontStyle=1;align=center;verticalAlign=top;childLayout=stackLayout;horizontal=1;startSize=26;horizontalStack=0;resizeParent=1;resizeParentMax=0;resizeLast=0;collapsible=1;marginBottom=0;whiteSpace=wrap;html=1;" parent="1" vertex="1">
          <mxGeometry x="7.5" y="3470" width="400" height="208" as="geometry" />
        </mxCell>
        <mxCell id="J8hBxOplMBVv3ACiszUE-36" value="- url, user, pass: String&lt;br&gt;- connection: Connection" style="text;strokeColor=none;fillColor=#FFFFFF;align=left;verticalAlign=top;spacingLeft=4;spacingRight=4;overflow=hidden;rotatable=0;points=[[0,0.5],[1,0.5]];portConstraint=eastwest;whiteSpace=wrap;html=1;" parent="J8hBxOplMBVv3ACiszUE-35" vertex="1">
          <mxGeometry y="26" width="400" height="44" as="geometry" />
        </mxCell>
        <mxCell id="J8hBxOplMBVv3ACiszUE-37" value="" style="line;strokeWidth=1;fillColor=none;align=left;verticalAlign=middle;spacingTop=-1;spacingLeft=3;spacingRight=3;rotatable=0;labelPosition=right;points=[];portConstraint=eastwest;strokeColor=inherit;" parent="J8hBxOplMBVv3ACiszUE-35" vertex="1">
          <mxGeometry y="70" width="400" height="8" as="geometry" />
        </mxCell>
        <mxCell id="J8hBxOplMBVv3ACiszUE-38" value="TransactionPersistenceServiceImpl(host, port, db, user, pass: String)&lt;br&gt;+ connect(): void&lt;br&gt;+ close(): void&lt;br&gt;+ add(transaction: Transaction): void&lt;br&gt;&lt;span style=&quot;background-color: initial; border-color: var(--border-color);&quot;&gt;+ update(transaction: Transaction): void&lt;br&gt;+ delete(id: int): void&lt;br&gt;+&amp;nbsp;&lt;/span&gt;getTransactionByID(id: int): Transaction&lt;br&gt;+ getAllTransactions(): List&amp;lt;Transaction&amp;gt;" style="text;strokeColor=none;fillColor=#FFFFFF;align=left;verticalAlign=top;spacingLeft=4;spacingRight=4;overflow=hidden;rotatable=0;points=[[0,0.5],[1,0.5]];portConstraint=eastwest;whiteSpace=wrap;html=1;" parent="J8hBxOplMBVv3ACiszUE-35" vertex="1">
          <mxGeometry y="78" width="400" height="130" as="geometry" />
        </mxCell>
        <mxCell id="J8hBxOplMBVv3ACiszUE-39" value="" style="endArrow=block;dashed=1;endFill=0;endSize=12;html=1;rounded=0;exitX=0.5;exitY=0;exitDx=0;exitDy=0;entryX=0.5;entryY=1;entryDx=0;entryDy=0;" parent="1" source="J8hBxOplMBVv3ACiszUE-35" target="J8hBxOplMBVv3ACiszUE-33" edge="1">
          <mxGeometry width="160" relative="1" as="geometry">
            <mxPoint x="1326" y="3078" as="sourcePoint" />
            <mxPoint x="255" y="3600" as="targetPoint" />
          </mxGeometry>
        </mxCell>
        <mxCell id="J8hBxOplMBVv3ACiszUE-54" value="java.sql.Connection" style="swimlane;fontStyle=1;align=center;verticalAlign=top;childLayout=stackLayout;horizontal=1;startSize=26;horizontalStack=0;resizeParent=1;resizeParentMax=0;resizeLast=0;collapsible=1;marginBottom=0;whiteSpace=wrap;html=1;" parent="1" vertex="1">
          <mxGeometry x="127.5" y="3830" width="160" height="86" as="geometry" />
        </mxCell>
        <mxCell id="J8hBxOplMBVv3ACiszUE-55" value="+ field: type" style="text;strokeColor=none;fillColor=#FFFFFF;align=left;verticalAlign=top;spacingLeft=4;spacingRight=4;overflow=hidden;rotatable=0;points=[[0,0.5],[1,0.5]];portConstraint=eastwest;whiteSpace=wrap;html=1;" parent="J8hBxOplMBVv3ACiszUE-54" vertex="1">
          <mxGeometry y="26" width="160" height="26" as="geometry" />
        </mxCell>
        <mxCell id="J8hBxOplMBVv3ACiszUE-56" value="" style="line;strokeWidth=1;fillColor=none;align=left;verticalAlign=middle;spacingTop=-1;spacingLeft=3;spacingRight=3;rotatable=0;labelPosition=right;points=[];portConstraint=eastwest;strokeColor=inherit;" parent="J8hBxOplMBVv3ACiszUE-54" vertex="1">
          <mxGeometry y="52" width="160" height="8" as="geometry" />
        </mxCell>
        <mxCell id="J8hBxOplMBVv3ACiszUE-57" value="+ method(type): type" style="text;strokeColor=none;fillColor=#FFFFFF;align=left;verticalAlign=top;spacingLeft=4;spacingRight=4;overflow=hidden;rotatable=0;points=[[0,0.5],[1,0.5]];portConstraint=eastwest;whiteSpace=wrap;html=1;" parent="J8hBxOplMBVv3ACiszUE-54" vertex="1">
          <mxGeometry y="60" width="160" height="26" as="geometry" />
        </mxCell>
        <mxCell id="J8hBxOplMBVv3ACiszUE-59" value="AddCommand" style="swimlane;fontStyle=1;align=center;verticalAlign=top;childLayout=stackLayout;horizontal=1;startSize=26;horizontalStack=0;resizeParent=1;resizeParentMax=0;resizeLast=0;collapsible=1;marginBottom=0;whiteSpace=wrap;html=1;" parent="1" vertex="1">
          <mxGeometry x="460" y="980" width="325" height="110" as="geometry" />
        </mxCell>
        <mxCell id="J8hBxOplMBVv3ACiszUE-60" value="-&amp;nbsp;" style="text;strokeColor=none;fillColor=#FFFFFF;align=left;verticalAlign=top;spacingLeft=4;spacingRight=4;overflow=hidden;rotatable=0;points=[[0,0.5],[1,0.5]];portConstraint=eastwest;whiteSpace=wrap;html=1;" parent="J8hBxOplMBVv3ACiszUE-59" vertex="1">
          <mxGeometry y="26" width="325" height="26" as="geometry" />
        </mxCell>
        <mxCell id="J8hBxOplMBVv3ACiszUE-61" value="" style="line;strokeWidth=1;fillColor=none;align=left;verticalAlign=middle;spacingTop=-1;spacingLeft=3;spacingRight=3;rotatable=0;labelPosition=right;points=[];portConstraint=eastwest;strokeColor=inherit;" parent="J8hBxOplMBVv3ACiszUE-59" vertex="1">
          <mxGeometry y="52" width="325" height="8" as="geometry" />
        </mxCell>
        <mxCell id="J8hBxOplMBVv3ACiszUE-62" value="AddCommand(transactionService: TransactionService, transaction: Transaction)&lt;br&gt;+ execute(): void" style="text;strokeColor=none;fillColor=#FFFFFF;align=left;verticalAlign=top;spacingLeft=4;spacingRight=4;overflow=hidden;rotatable=0;points=[[0,0.5],[1,0.5]];portConstraint=eastwest;whiteSpace=wrap;html=1;" parent="J8hBxOplMBVv3ACiszUE-59" vertex="1">
          <mxGeometry y="60" width="325" height="50" as="geometry" />
        </mxCell>
        <mxCell id="J8hBxOplMBVv3ACiszUE-63" value="&lt;p style=&quot;margin:0px;margin-top:4px;text-align:center;&quot;&gt;&lt;i&gt;&amp;lt;&amp;lt;abstract&amp;gt;&amp;gt;&lt;/i&gt;&lt;br&gt;&lt;b&gt;Command&lt;/b&gt;&lt;br&gt;&lt;/p&gt;&lt;hr size=&quot;1&quot;&gt;&lt;p style=&quot;margin:0px;margin-left:4px;&quot;&gt;- transactionService: TransactionService&lt;br&gt;- transaction: Transaction&lt;br&gt;- id: int&lt;/p&gt;&lt;hr size=&quot;1&quot;&gt;&lt;p style=&quot;margin:0px;margin-left:4px;&quot;&gt;+ &lt;i&gt;execute()&lt;/i&gt;: void&lt;/p&gt;" style="verticalAlign=top;align=left;overflow=fill;fontSize=12;fontFamily=Helvetica;html=1;whiteSpace=wrap;" parent="1" vertex="1">
          <mxGeometry x="590" y="1438" width="260" height="132" as="geometry" />
        </mxCell>
        <mxCell id="J8hBxOplMBVv3ACiszUE-64" value="" style="endArrow=block;endSize=16;endFill=0;html=1;rounded=0;exitX=0.821;exitY=1.04;exitDx=0;exitDy=0;entryX=0.652;entryY=-0.027;entryDx=0;entryDy=0;exitPerimeter=0;entryPerimeter=0;" parent="1" source="J8hBxOplMBVv3ACiszUE-62" target="J8hBxOplMBVv3ACiszUE-63" edge="1">
          <mxGeometry x="-1" y="-496" width="160" relative="1" as="geometry">
            <mxPoint x="-1003.5" y="890" as="sourcePoint" />
            <mxPoint x="-1112.5" y="877" as="targetPoint" />
            <mxPoint x="402" y="310" as="offset" />
          </mxGeometry>
        </mxCell>
        <mxCell id="J8hBxOplMBVv3ACiszUE-65" value="Extends" style="edgeLabel;html=1;align=center;verticalAlign=middle;resizable=0;points=[];" parent="J8hBxOplMBVv3ACiszUE-64" vertex="1" connectable="0">
          <mxGeometry x="-0.0619" y="-2" relative="1" as="geometry">
            <mxPoint as="offset" />
          </mxGeometry>
        </mxCell>
        <mxCell id="J8hBxOplMBVv3ACiszUE-66" value="DeleteCommand" style="swimlane;fontStyle=1;align=center;verticalAlign=top;childLayout=stackLayout;horizontal=1;startSize=26;horizontalStack=0;resizeParent=1;resizeParentMax=0;resizeLast=0;collapsible=1;marginBottom=0;whiteSpace=wrap;html=1;" parent="1" vertex="1">
          <mxGeometry x="810" y="980" width="320" height="110" as="geometry" />
        </mxCell>
        <mxCell id="J8hBxOplMBVv3ACiszUE-67" value="-&amp;nbsp;" style="text;strokeColor=none;fillColor=#FFFFFF;align=left;verticalAlign=top;spacingLeft=4;spacingRight=4;overflow=hidden;rotatable=0;points=[[0,0.5],[1,0.5]];portConstraint=eastwest;whiteSpace=wrap;html=1;" parent="J8hBxOplMBVv3ACiszUE-66" vertex="1">
          <mxGeometry y="26" width="320" height="26" as="geometry" />
        </mxCell>
        <mxCell id="J8hBxOplMBVv3ACiszUE-68" value="" style="line;strokeWidth=1;fillColor=none;align=left;verticalAlign=middle;spacingTop=-1;spacingLeft=3;spacingRight=3;rotatable=0;labelPosition=right;points=[];portConstraint=eastwest;strokeColor=inherit;" parent="J8hBxOplMBVv3ACiszUE-66" vertex="1">
          <mxGeometry y="52" width="320" height="8" as="geometry" />
        </mxCell>
        <mxCell id="J8hBxOplMBVv3ACiszUE-69" value="DeleteCommand(transactionService: TransactionService, id: int)&lt;br&gt;+ execute(): void" style="text;strokeColor=none;fillColor=#FFFFFF;align=left;verticalAlign=top;spacingLeft=4;spacingRight=4;overflow=hidden;rotatable=0;points=[[0,0.5],[1,0.5]];portConstraint=eastwest;whiteSpace=wrap;html=1;" parent="J8hBxOplMBVv3ACiszUE-66" vertex="1">
          <mxGeometry y="60" width="320" height="50" as="geometry" />
        </mxCell>
        <mxCell id="J8hBxOplMBVv3ACiszUE-70" value="FindByIDCommand" style="swimlane;fontStyle=1;align=center;verticalAlign=top;childLayout=stackLayout;horizontal=1;startSize=26;horizontalStack=0;resizeParent=1;resizeParentMax=0;resizeLast=0;collapsible=1;marginBottom=0;whiteSpace=wrap;html=1;" parent="1" vertex="1">
          <mxGeometry x="1180" y="1260" width="340" height="110" as="geometry" />
        </mxCell>
        <mxCell id="J8hBxOplMBVv3ACiszUE-71" value="-&amp;nbsp;" style="text;strokeColor=none;fillColor=#FFFFFF;align=left;verticalAlign=top;spacingLeft=4;spacingRight=4;overflow=hidden;rotatable=0;points=[[0,0.5],[1,0.5]];portConstraint=eastwest;whiteSpace=wrap;html=1;" parent="J8hBxOplMBVv3ACiszUE-70" vertex="1">
          <mxGeometry y="26" width="340" height="26" as="geometry" />
        </mxCell>
        <mxCell id="J8hBxOplMBVv3ACiszUE-72" value="" style="line;strokeWidth=1;fillColor=none;align=left;verticalAlign=middle;spacingTop=-1;spacingLeft=3;spacingRight=3;rotatable=0;labelPosition=right;points=[];portConstraint=eastwest;strokeColor=inherit;" parent="J8hBxOplMBVv3ACiszUE-70" vertex="1">
          <mxGeometry y="52" width="340" height="8" as="geometry" />
        </mxCell>
        <mxCell id="J8hBxOplMBVv3ACiszUE-73" value="FindByIDCommand(transactionService: TransactionService, id: int)&lt;br&gt;+ execute(): void" style="text;strokeColor=none;fillColor=#FFFFFF;align=left;verticalAlign=top;spacingLeft=4;spacingRight=4;overflow=hidden;rotatable=0;points=[[0,0.5],[1,0.5]];portConstraint=eastwest;whiteSpace=wrap;html=1;" parent="J8hBxOplMBVv3ACiszUE-70" vertex="1">
          <mxGeometry y="60" width="340" height="50" as="geometry" />
        </mxCell>
        <mxCell id="J8hBxOplMBVv3ACiszUE-74" value="" style="endArrow=block;endSize=16;endFill=0;html=1;rounded=0;entryX=0.892;entryY=-0.011;entryDx=0;entryDy=0;entryPerimeter=0;" parent="1" source="J8hBxOplMBVv3ACiszUE-66" target="J8hBxOplMBVv3ACiszUE-63" edge="1">
          <mxGeometry x="-1" y="-496" width="160" relative="1" as="geometry">
            <mxPoint x="-1085.5" y="907" as="sourcePoint" />
            <mxPoint x="-511" y="708" as="targetPoint" />
            <mxPoint x="402" y="310" as="offset" />
          </mxGeometry>
        </mxCell>
        <mxCell id="J8hBxOplMBVv3ACiszUE-75" value="Extends" style="edgeLabel;html=1;align=center;verticalAlign=middle;resizable=0;points=[];" parent="J8hBxOplMBVv3ACiszUE-74" vertex="1" connectable="0">
          <mxGeometry x="-0.0619" y="-2" relative="1" as="geometry">
            <mxPoint as="offset" />
          </mxGeometry>
        </mxCell>
        <mxCell id="J8hBxOplMBVv3ACiszUE-76" value="" style="endArrow=block;endSize=16;endFill=0;html=1;rounded=0;exitX=0;exitY=0.5;exitDx=0;exitDy=0;entryX=1.024;entryY=0.157;entryDx=0;entryDy=0;entryPerimeter=0;" parent="1" source="J8hBxOplMBVv3ACiszUE-70" target="J8hBxOplMBVv3ACiszUE-63" edge="1">
          <mxGeometry x="-1" y="-496" width="160" relative="1" as="geometry">
            <mxPoint x="-1082.5" y="1013" as="sourcePoint" />
            <mxPoint x="-1158.5" y="1012" as="targetPoint" />
            <mxPoint x="402" y="310" as="offset" />
          </mxGeometry>
        </mxCell>
        <mxCell id="J8hBxOplMBVv3ACiszUE-77" value="Extends" style="edgeLabel;html=1;align=center;verticalAlign=middle;resizable=0;points=[];" parent="J8hBxOplMBVv3ACiszUE-76" vertex="1" connectable="0">
          <mxGeometry x="-0.0619" y="-2" relative="1" as="geometry">
            <mxPoint as="offset" />
          </mxGeometry>
        </mxCell>
        <mxCell id="J8hBxOplMBVv3ACiszUE-78" value="UpdateCommand" style="swimlane;fontStyle=1;align=center;verticalAlign=top;childLayout=stackLayout;horizontal=1;startSize=26;horizontalStack=0;resizeParent=1;resizeParentMax=0;resizeLast=0;collapsible=1;marginBottom=0;whiteSpace=wrap;html=1;" parent="1" vertex="1">
          <mxGeometry x="1060" y="1110" width="320" height="110" as="geometry" />
        </mxCell>
        <mxCell id="J8hBxOplMBVv3ACiszUE-79" value="-&amp;nbsp;" style="text;strokeColor=none;fillColor=#FFFFFF;align=left;verticalAlign=top;spacingLeft=4;spacingRight=4;overflow=hidden;rotatable=0;points=[[0,0.5],[1,0.5]];portConstraint=eastwest;whiteSpace=wrap;html=1;" parent="J8hBxOplMBVv3ACiszUE-78" vertex="1">
          <mxGeometry y="26" width="320" height="26" as="geometry" />
        </mxCell>
        <mxCell id="J8hBxOplMBVv3ACiszUE-80" value="" style="line;strokeWidth=1;fillColor=none;align=left;verticalAlign=middle;spacingTop=-1;spacingLeft=3;spacingRight=3;rotatable=0;labelPosition=right;points=[];portConstraint=eastwest;strokeColor=inherit;" parent="J8hBxOplMBVv3ACiszUE-78" vertex="1">
          <mxGeometry y="52" width="320" height="8" as="geometry" />
        </mxCell>
        <mxCell id="J8hBxOplMBVv3ACiszUE-81" value="UpdateCommand(transactionService: TransactionService, transaction: Transaction)&lt;br&gt;+ execute(): void" style="text;strokeColor=none;fillColor=#FFFFFF;align=left;verticalAlign=top;spacingLeft=4;spacingRight=4;overflow=hidden;rotatable=0;points=[[0,0.5],[1,0.5]];portConstraint=eastwest;whiteSpace=wrap;html=1;" parent="J8hBxOplMBVv3ACiszUE-78" vertex="1">
          <mxGeometry y="60" width="320" height="50" as="geometry" />
        </mxCell>
        <mxCell id="J8hBxOplMBVv3ACiszUE-82" value="" style="endArrow=block;endSize=16;endFill=0;html=1;rounded=0;exitX=0;exitY=0.149;exitDx=0;exitDy=0;entryX=1;entryY=0;entryDx=0;entryDy=0;exitPerimeter=0;" parent="1" source="J8hBxOplMBVv3ACiszUE-81" target="J8hBxOplMBVv3ACiszUE-63" edge="1">
          <mxGeometry x="-1" y="-496" width="160" relative="1" as="geometry">
            <mxPoint x="-1082.5" y="883" as="sourcePoint" />
            <mxPoint x="-770" y="650" as="targetPoint" />
            <mxPoint x="402" y="310" as="offset" />
          </mxGeometry>
        </mxCell>
        <mxCell id="J8hBxOplMBVv3ACiszUE-83" value="Extends" style="edgeLabel;html=1;align=center;verticalAlign=middle;resizable=0;points=[];" parent="J8hBxOplMBVv3ACiszUE-82" vertex="1" connectable="0">
          <mxGeometry x="-0.0619" y="-2" relative="1" as="geometry">
            <mxPoint as="offset" />
          </mxGeometry>
        </mxCell>
        <mxCell id="J8hBxOplMBVv3ACiszUE-84" value="CommandProcessor&lt;br&gt;" style="swimlane;fontStyle=1;align=center;verticalAlign=top;childLayout=stackLayout;horizontal=1;startSize=26;horizontalStack=0;resizeParent=1;resizeParentMax=0;resizeLast=0;collapsible=1;marginBottom=0;whiteSpace=wrap;html=1;" parent="1" vertex="1">
          <mxGeometry x="180" y="1450" width="285" height="130" as="geometry" />
        </mxCell>
        <mxCell id="J8hBxOplMBVv3ACiszUE-85" value="- commandProcessor: CommandProcessor" style="text;strokeColor=none;fillColor=#FFFFFF;align=left;verticalAlign=top;spacingLeft=4;spacingRight=4;overflow=hidden;rotatable=0;points=[[0,0.5],[1,0.5]];portConstraint=eastwest;whiteSpace=wrap;html=1;" parent="J8hBxOplMBVv3ACiszUE-84" vertex="1">
          <mxGeometry y="26" width="285" height="26" as="geometry" />
        </mxCell>
        <mxCell id="J8hBxOplMBVv3ACiszUE-86" value="" style="line;strokeWidth=1;fillColor=none;align=left;verticalAlign=middle;spacingTop=-1;spacingLeft=3;spacingRight=3;rotatable=0;labelPosition=right;points=[];portConstraint=eastwest;strokeColor=inherit;" parent="J8hBxOplMBVv3ACiszUE-84" vertex="1">
          <mxGeometry y="52" width="285" height="8" as="geometry" />
        </mxCell>
        <mxCell id="J8hBxOplMBVv3ACiszUE-87" value="CommandProcessor()&lt;br&gt;+ makeCommandProcessor(): CommandProcessor&lt;br&gt;+ execute(Command): void" style="text;strokeColor=none;fillColor=#FFFFFF;align=left;verticalAlign=top;spacingLeft=4;spacingRight=4;overflow=hidden;rotatable=0;points=[[0,0.5],[1,0.5]];portConstraint=eastwest;whiteSpace=wrap;html=1;" parent="J8hBxOplMBVv3ACiszUE-84" vertex="1">
          <mxGeometry y="60" width="285" height="70" as="geometry" />
        </mxCell>
        <mxCell id="J8hBxOplMBVv3ACiszUE-88" value="Use" style="endArrow=open;endSize=12;dashed=1;html=1;rounded=0;exitX=1;exitY=0.5;exitDx=0;exitDy=0;" parent="1" source="J8hBxOplMBVv3ACiszUE-85" target="J8hBxOplMBVv3ACiszUE-63" edge="1">
          <mxGeometry width="160" relative="1" as="geometry">
            <mxPoint x="-260" y="680" as="sourcePoint" />
            <mxPoint x="-100" y="680" as="targetPoint" />
          </mxGeometry>
        </mxCell>
        <mxCell id="J8hBxOplMBVv3ACiszUE-89" value="" style="endArrow=open;endFill=1;endSize=12;html=1;rounded=0;" parent="1" source="J8hBxOplMBVv3ACiszUE-9" target="J8hBxOplMBVv3ACiszUE-84" edge="1">
          <mxGeometry width="160" relative="1" as="geometry">
            <mxPoint x="-380" y="890" as="sourcePoint" />
            <mxPoint x="-220" y="890" as="targetPoint" />
          </mxGeometry>
        </mxCell>
        <mxCell id="J8hBxOplMBVv3ACiszUE-90" value="&lt;p style=&quot;margin:0px;margin-top:4px;text-align:center;&quot;&gt;&lt;i&gt;&amp;lt;&amp;lt;Interface&amp;gt;&amp;gt;&lt;/i&gt;&lt;br&gt;&lt;b&gt;Subcriber&lt;/b&gt;&lt;/p&gt;&lt;hr size=&quot;1&quot; style=&quot;border-style:solid;&quot;&gt;&lt;p style=&quot;margin:0px;margin-left:4px;&quot;&gt;-&amp;nbsp;&lt;/p&gt;&lt;hr size=&quot;1&quot; style=&quot;border-style:solid;&quot;&gt;&lt;p style=&quot;margin:0px;margin-left:4px;&quot;&gt;+ update(): void&lt;/p&gt;" style="verticalAlign=top;align=left;overflow=fill;html=1;whiteSpace=wrap;" parent="1" vertex="1">
          <mxGeometry x="-600" y="2195.76" width="170" height="101.24" as="geometry" />
        </mxCell>
        <mxCell id="J8hBxOplMBVv3ACiszUE-91" value="" style="endArrow=block;dashed=1;endFill=0;endSize=12;html=1;rounded=0;entryX=0.708;entryY=-0.025;entryDx=0;entryDy=0;entryPerimeter=0;exitX=0.101;exitY=1.001;exitDx=0;exitDy=0;exitPerimeter=0;" parent="1" source="J8hBxOplMBVv3ACiszUE-11" target="J8hBxOplMBVv3ACiszUE-90" edge="1">
          <mxGeometry width="160" relative="1" as="geometry">
            <mxPoint x="-380" y="1870" as="sourcePoint" />
            <mxPoint x="-670" y="937.5" as="targetPoint" />
          </mxGeometry>
        </mxCell>
        <mxCell id="J8hBxOplMBVv3ACiszUE-92" value="&lt;p style=&quot;margin:0px;margin-top:4px;text-align:center;&quot;&gt;&lt;b&gt;Publisher&lt;/b&gt;&lt;/p&gt;&lt;hr size=&quot;1&quot; style=&quot;border-style:solid;&quot;&gt;&lt;p style=&quot;margin:0px;margin-left:4px;&quot;&gt;- subcribers: List&amp;lt;Subcriber&amp;gt;&lt;/p&gt;&lt;hr size=&quot;1&quot; style=&quot;border-style:solid;&quot;&gt;&lt;p style=&quot;margin:0px;margin-left:4px;&quot;&gt;+ subcribe(Subcriber): void&lt;br&gt;+ unsubcribe(Subcriber): void&lt;/p&gt;&lt;p style=&quot;margin:0px;margin-left:4px;&quot;&gt;+ notifySubcribers(): void&lt;/p&gt;" style="verticalAlign=top;align=left;overflow=fill;html=1;whiteSpace=wrap;" parent="1" vertex="1">
          <mxGeometry x="-530" y="2530" width="170" height="120" as="geometry" />
        </mxCell>
        <mxCell id="J8hBxOplMBVv3ACiszUE-93" value="Extends" style="endArrow=block;endSize=16;endFill=0;html=1;rounded=0;exitX=0.001;exitY=0.086;exitDx=0;exitDy=0;exitPerimeter=0;entryX=1;entryY=0.75;entryDx=0;entryDy=0;" parent="1" source="J8hBxOplMBVv3ACiszUE-31" target="J8hBxOplMBVv3ACiszUE-92" edge="1">
          <mxGeometry width="160" relative="1" as="geometry">
            <mxPoint x="-281" y="1140" as="sourcePoint" />
            <mxPoint x="-220" y="1332" as="targetPoint" />
          </mxGeometry>
        </mxCell>
        <mxCell id="J8hBxOplMBVv3ACiszUE-94" value="" style="endArrow=diamondThin;endFill=0;endSize=24;html=1;rounded=0;entryX=0.5;entryY=0;entryDx=0;entryDy=0;exitX=0.5;exitY=1;exitDx=0;exitDy=0;" parent="1" source="J8hBxOplMBVv3ACiszUE-90" target="J8hBxOplMBVv3ACiszUE-92" edge="1">
          <mxGeometry width="160" relative="1" as="geometry">
            <mxPoint x="-622.5" y="2497" as="sourcePoint" />
            <mxPoint x="-452.5" y="2517" as="targetPoint" />
          </mxGeometry>
        </mxCell>
        <mxCell id="J8hBxOplMBVv3ACiszUE-95" value="" style="endArrow=open;endFill=1;endSize=12;html=1;rounded=0;entryX=0.75;entryY=0;entryDx=0;entryDy=0;" parent="1" source="J8hBxOplMBVv3ACiszUE-63" target="J8hBxOplMBVv3ACiszUE-20" edge="1">
          <mxGeometry width="160" relative="1" as="geometry">
            <mxPoint x="-560" y="830" as="sourcePoint" />
            <mxPoint x="-400" y="830" as="targetPoint" />
          </mxGeometry>
        </mxCell>
        <mxCell id="J8hBxOplMBVv3ACiszUE-97" value="" style="endArrow=block;dashed=1;endFill=0;endSize=12;html=1;rounded=0;entryX=0.5;entryY=1;entryDx=0;entryDy=0;exitX=0.286;exitY=-0.007;exitDx=0;exitDy=0;exitPerimeter=0;" parent="1" source="J8hBxOplMBVv3ACiszUE-8" target="J8hBxOplMBVv3ACiszUE-98" edge="1">
          <mxGeometry width="160" relative="1" as="geometry">
            <mxPoint x="-210" y="600" as="sourcePoint" />
            <mxPoint x="-260" y="360" as="targetPoint" />
          </mxGeometry>
        </mxCell>
        <mxCell id="J8hBxOplMBVv3ACiszUE-98" value="&lt;p style=&quot;margin:0px;margin-top:4px;text-align:center;&quot;&gt;&lt;b&gt;java.awt.event&lt;br&gt;&lt;/b&gt;&lt;b&gt;ListSelectionListener&lt;/b&gt;&lt;/p&gt;&lt;hr size=&quot;1&quot; style=&quot;border-style:solid;&quot;&gt;&lt;p style=&quot;margin:0px;margin-left:4px;&quot;&gt;-&amp;nbsp;&lt;/p&gt;&lt;hr size=&quot;1&quot; style=&quot;border-style:solid;&quot;&gt;&lt;p style=&quot;margin:0px;margin-left:4px;&quot;&gt;+&amp;nbsp;&lt;/p&gt;" style="verticalAlign=top;align=left;overflow=fill;html=1;whiteSpace=wrap;" parent="1" vertex="1">
          <mxGeometry x="-450" y="1080" width="160" height="110" as="geometry" />
        </mxCell>
        <mxCell id="J8hBxOplMBVv3ACiszUE-138" value="" style="endArrow=diamondThin;endFill=1;endSize=24;html=1;rounded=0;exitX=0.5;exitY=0;exitDx=0;exitDy=0;entryX=0.496;entryY=1.018;entryDx=0;entryDy=0;entryPerimeter=0;" parent="1" source="J8hBxOplMBVv3ACiszUE-54" target="J8hBxOplMBVv3ACiszUE-38" edge="1">
          <mxGeometry width="160" relative="1" as="geometry">
            <mxPoint x="640" y="4010" as="sourcePoint" />
            <mxPoint x="420" y="3680" as="targetPoint" />
          </mxGeometry>
        </mxCell>
        <mxCell id="J8hBxOplMBVv3ACiszUE-139" value="House" style="swimlane;fontStyle=1;align=center;verticalAlign=top;childLayout=stackLayout;horizontal=1;startSize=26;horizontalStack=0;resizeParent=1;resizeParentMax=0;resizeLast=0;collapsible=1;marginBottom=0;whiteSpace=wrap;html=1;" parent="1" vertex="1">
          <mxGeometry x="230" y="2347" width="340" height="220" as="geometry" />
        </mxCell>
        <mxCell id="J8hBxOplMBVv3ACiszUE-140" value="- maGiaoDich: int&lt;br&gt;- ngayGiaoDich: String&lt;br&gt;- donGia: int&lt;br&gt;- loai: String&lt;br&gt;- diaChi: String&lt;br&gt;- dienTich: double" style="text;strokeColor=none;fillColor=#FFFFFF;align=left;verticalAlign=top;spacingLeft=4;spacingRight=4;overflow=hidden;rotatable=0;points=[[0,0.5],[1,0.5]];portConstraint=eastwest;whiteSpace=wrap;html=1;" parent="J8hBxOplMBVv3ACiszUE-139" vertex="1">
          <mxGeometry y="26" width="340" height="94" as="geometry" />
        </mxCell>
        <mxCell id="J8hBxOplMBVv3ACiszUE-141" value="" style="line;strokeWidth=1;fillColor=none;align=left;verticalAlign=middle;spacingTop=-1;spacingLeft=3;spacingRight=3;rotatable=0;labelPosition=right;points=[];portConstraint=eastwest;strokeColor=inherit;" parent="J8hBxOplMBVv3ACiszUE-139" vertex="1">
          <mxGeometry y="120" width="340" height="8" as="geometry" />
        </mxCell>
        <mxCell id="J8hBxOplMBVv3ACiszUE-142" value="+ House(maGiaoDich: int, ngayGiaoDich: String, donGia: int, loaiNha: String, diaChi: String, dienTich: double)&lt;br&gt;+ getters/setters&lt;br&gt;+ getThanhTien: double" style="text;strokeColor=none;fillColor=#FFFFFF;align=left;verticalAlign=top;spacingLeft=4;spacingRight=4;overflow=hidden;rotatable=0;points=[[0,0.5],[1,0.5]];portConstraint=eastwest;whiteSpace=wrap;html=1;" parent="J8hBxOplMBVv3ACiszUE-139" vertex="1">
          <mxGeometry y="128" width="340" height="92" as="geometry" />
        </mxCell>
        <mxCell id="J8hBxOplMBVv3ACiszUE-143" value="&lt;p style=&quot;margin:0px;margin-top:4px;text-align:center;&quot;&gt;&lt;i&gt;&amp;lt;&amp;lt;abstract&amp;gt;&amp;gt;&lt;/i&gt;&lt;br&gt;&lt;b&gt;Transaction&lt;/b&gt;&lt;/p&gt;&lt;hr size=&quot;1&quot;&gt;&lt;p style=&quot;margin:0px;margin-left:4px;&quot;&gt;- maGiaoDich: int&lt;/p&gt;&lt;p style=&quot;margin:0px;margin-left:4px;&quot;&gt;- ngayGiaoDich: String&lt;/p&gt;&lt;p style=&quot;margin:0px;margin-left:4px;&quot;&gt;- donGia: int&lt;br&gt;- loai: String&lt;br&gt;- diaChi: String&lt;/p&gt;&lt;p style=&quot;margin:0px;margin-left:4px;&quot;&gt;- dienTich: double&lt;/p&gt;&lt;hr size=&quot;1&quot;&gt;&lt;p style=&quot;margin:0px;margin-left:4px;&quot;&gt;+ getters/setters&lt;/p&gt;&lt;p style=&quot;margin:0px;margin-left:4px;&quot;&gt;+ &lt;i&gt;getThanhTien()&lt;/i&gt;: double&lt;/p&gt;" style="verticalAlign=top;align=left;overflow=fill;fontSize=12;fontFamily=Helvetica;html=1;whiteSpace=wrap;" parent="1" vertex="1">
          <mxGeometry x="450" y="2100" width="190" height="190" as="geometry" />
        </mxCell>
        <mxCell id="J8hBxOplMBVv3ACiszUE-144" value="Extends" style="endArrow=block;endSize=16;endFill=0;html=1;rounded=0;entryX=0.25;entryY=1;entryDx=0;entryDy=0;" parent="1" source="J8hBxOplMBVv3ACiszUE-139" target="J8hBxOplMBVv3ACiszUE-143" edge="1">
          <mxGeometry width="160" relative="1" as="geometry">
            <mxPoint x="380" y="2090" as="sourcePoint" />
            <mxPoint x="540" y="2090" as="targetPoint" />
          </mxGeometry>
        </mxCell>
        <mxCell id="J8hBxOplMBVv3ACiszUE-145" value="Land" style="swimlane;fontStyle=1;align=center;verticalAlign=top;childLayout=stackLayout;horizontal=1;startSize=26;horizontalStack=0;resizeParent=1;resizeParentMax=0;resizeLast=0;collapsible=1;marginBottom=0;whiteSpace=wrap;html=1;" parent="1" vertex="1">
          <mxGeometry x="587.5" y="2352" width="332.5" height="210" as="geometry" />
        </mxCell>
        <mxCell id="J8hBxOplMBVv3ACiszUE-146" value="- maGiaoDich: int&lt;br style=&quot;border-color: var(--border-color);&quot;&gt;- ngayGiaoDich: String&lt;br style=&quot;border-color: var(--border-color);&quot;&gt;- donGia: int&lt;br style=&quot;border-color: var(--border-color);&quot;&gt;- loai: String&lt;br style=&quot;border-color: var(--border-color);&quot;&gt;- diaChi: String&lt;br style=&quot;border-color: var(--border-color);&quot;&gt;- dienTich: double" style="text;strokeColor=none;fillColor=#FFFFFF;align=left;verticalAlign=top;spacingLeft=4;spacingRight=4;overflow=hidden;rotatable=0;points=[[0,0.5],[1,0.5]];portConstraint=eastwest;whiteSpace=wrap;html=1;" parent="J8hBxOplMBVv3ACiszUE-145" vertex="1">
          <mxGeometry y="26" width="332.5" height="104" as="geometry" />
        </mxCell>
        <mxCell id="J8hBxOplMBVv3ACiszUE-147" value="" style="line;strokeWidth=1;fillColor=none;align=left;verticalAlign=middle;spacingTop=-1;spacingLeft=3;spacingRight=3;rotatable=0;labelPosition=right;points=[];portConstraint=eastwest;strokeColor=inherit;" parent="J8hBxOplMBVv3ACiszUE-145" vertex="1">
          <mxGeometry y="130" width="332.5" height="8" as="geometry" />
        </mxCell>
        <mxCell id="J8hBxOplMBVv3ACiszUE-148" value="+ Land(maGiaoDich: int, ngayGiaoDich: String, donGia: int, loaiDat: String, dienTich: double)&lt;br&gt;+ getters/setters&lt;br&gt;+ getThanhTien: double" style="text;strokeColor=none;fillColor=#FFFFFF;align=left;verticalAlign=top;spacingLeft=4;spacingRight=4;overflow=hidden;rotatable=0;points=[[0,0.5],[1,0.5]];portConstraint=eastwest;whiteSpace=wrap;html=1;" parent="J8hBxOplMBVv3ACiszUE-145" vertex="1">
          <mxGeometry y="138" width="332.5" height="72" as="geometry" />
        </mxCell>
        <mxCell id="J8hBxOplMBVv3ACiszUE-149" value="Extends" style="endArrow=block;endSize=16;endFill=0;html=1;rounded=0;exitX=0.25;exitY=0;exitDx=0;exitDy=0;entryX=0.75;entryY=1;entryDx=0;entryDy=0;" parent="1" source="J8hBxOplMBVv3ACiszUE-145" target="J8hBxOplMBVv3ACiszUE-143" edge="1">
          <mxGeometry width="160" relative="1" as="geometry">
            <mxPoint x="366" y="2101" as="sourcePoint" />
            <mxPoint x="516" y="2154" as="targetPoint" />
          </mxGeometry>
        </mxCell>
        <mxCell id="J8hBxOplMBVv3ACiszUE-150" value="Use" style="endArrow=open;endSize=12;dashed=1;html=1;rounded=0;exitX=1;exitY=0.25;exitDx=0;exitDy=0;" parent="1" source="J8hBxOplMBVv3ACiszUE-20" target="J8hBxOplMBVv3ACiszUE-143" edge="1">
          <mxGeometry width="160" relative="1" as="geometry">
            <mxPoint x="-160" y="2320" as="sourcePoint" />
            <mxPoint x="-200" y="2520" as="targetPoint" />
          </mxGeometry>
        </mxCell>
        <mxCell id="J8hBxOplMBVv3ACiszUE-151" value="CountHouseCommand" style="swimlane;fontStyle=1;align=center;verticalAlign=top;childLayout=stackLayout;horizontal=1;startSize=26;horizontalStack=0;resizeParent=1;resizeParentMax=0;resizeLast=0;collapsible=1;marginBottom=0;whiteSpace=wrap;html=1;" parent="1" vertex="1">
          <mxGeometry x="1310" y="1400" width="360" height="110" as="geometry" />
        </mxCell>
        <mxCell id="J8hBxOplMBVv3ACiszUE-152" value="- loai: String" style="text;strokeColor=none;fillColor=#FFFFFF;align=left;verticalAlign=top;spacingLeft=4;spacingRight=4;overflow=hidden;rotatable=0;points=[[0,0.5],[1,0.5]];portConstraint=eastwest;whiteSpace=wrap;html=1;" parent="J8hBxOplMBVv3ACiszUE-151" vertex="1">
          <mxGeometry y="26" width="360" height="26" as="geometry" />
        </mxCell>
        <mxCell id="J8hBxOplMBVv3ACiszUE-153" value="" style="line;strokeWidth=1;fillColor=none;align=left;verticalAlign=middle;spacingTop=-1;spacingLeft=3;spacingRight=3;rotatable=0;labelPosition=right;points=[];portConstraint=eastwest;strokeColor=inherit;" parent="J8hBxOplMBVv3ACiszUE-151" vertex="1">
          <mxGeometry y="52" width="360" height="8" as="geometry" />
        </mxCell>
        <mxCell id="J8hBxOplMBVv3ACiszUE-154" value="CountHouseCommand(transactionService: TransactionService, loai: String)&lt;br&gt;+ execute(): void" style="text;strokeColor=none;fillColor=#FFFFFF;align=left;verticalAlign=top;spacingLeft=4;spacingRight=4;overflow=hidden;rotatable=0;points=[[0,0.5],[1,0.5]];portConstraint=eastwest;whiteSpace=wrap;html=1;" parent="J8hBxOplMBVv3ACiszUE-151" vertex="1">
          <mxGeometry y="60" width="360" height="50" as="geometry" />
        </mxCell>
        <mxCell id="J8hBxOplMBVv3ACiszUE-155" value="ExportCommand" style="swimlane;fontStyle=1;align=center;verticalAlign=top;childLayout=stackLayout;horizontal=1;startSize=26;horizontalStack=0;resizeParent=1;resizeParentMax=0;resizeLast=0;collapsible=1;marginBottom=0;whiteSpace=wrap;html=1;" parent="1" vertex="1">
          <mxGeometry x="1385" y="1680" width="325" height="110" as="geometry" />
        </mxCell>
        <mxCell id="J8hBxOplMBVv3ACiszUE-156" value="- month: int" style="text;strokeColor=none;fillColor=#FFFFFF;align=left;verticalAlign=top;spacingLeft=4;spacingRight=4;overflow=hidden;rotatable=0;points=[[0,0.5],[1,0.5]];portConstraint=eastwest;whiteSpace=wrap;html=1;" parent="J8hBxOplMBVv3ACiszUE-155" vertex="1">
          <mxGeometry y="26" width="325" height="26" as="geometry" />
        </mxCell>
        <mxCell id="J8hBxOplMBVv3ACiszUE-157" value="" style="line;strokeWidth=1;fillColor=none;align=left;verticalAlign=middle;spacingTop=-1;spacingLeft=3;spacingRight=3;rotatable=0;labelPosition=right;points=[];portConstraint=eastwest;strokeColor=inherit;" parent="J8hBxOplMBVv3ACiszUE-155" vertex="1">
          <mxGeometry y="52" width="325" height="8" as="geometry" />
        </mxCell>
        <mxCell id="J8hBxOplMBVv3ACiszUE-158" value="ExportCommand(transactionService: TransactionService, month: int)&lt;br&gt;+ execute(): void" style="text;strokeColor=none;fillColor=#FFFFFF;align=left;verticalAlign=top;spacingLeft=4;spacingRight=4;overflow=hidden;rotatable=0;points=[[0,0.5],[1,0.5]];portConstraint=eastwest;whiteSpace=wrap;html=1;" parent="J8hBxOplMBVv3ACiszUE-155" vertex="1">
          <mxGeometry y="60" width="325" height="50" as="geometry" />
        </mxCell>
        <mxCell id="J8hBxOplMBVv3ACiszUE-159" value="CalcCommand" style="swimlane;fontStyle=1;align=center;verticalAlign=top;childLayout=stackLayout;horizontal=1;startSize=26;horizontalStack=0;resizeParent=1;resizeParentMax=0;resizeLast=0;collapsible=1;marginBottom=0;whiteSpace=wrap;html=1;" parent="1" vertex="1">
          <mxGeometry x="1420" y="1830" width="310" height="110" as="geometry" />
        </mxCell>
        <mxCell id="J8hBxOplMBVv3ACiszUE-160" value="-&amp;nbsp;" style="text;strokeColor=none;fillColor=#FFFFFF;align=left;verticalAlign=top;spacingLeft=4;spacingRight=4;overflow=hidden;rotatable=0;points=[[0,0.5],[1,0.5]];portConstraint=eastwest;whiteSpace=wrap;html=1;" parent="J8hBxOplMBVv3ACiszUE-159" vertex="1">
          <mxGeometry y="26" width="310" height="26" as="geometry" />
        </mxCell>
        <mxCell id="J8hBxOplMBVv3ACiszUE-161" value="" style="line;strokeWidth=1;fillColor=none;align=left;verticalAlign=middle;spacingTop=-1;spacingLeft=3;spacingRight=3;rotatable=0;labelPosition=right;points=[];portConstraint=eastwest;strokeColor=inherit;" parent="J8hBxOplMBVv3ACiszUE-159" vertex="1">
          <mxGeometry y="52" width="310" height="8" as="geometry" />
        </mxCell>
        <mxCell id="J8hBxOplMBVv3ACiszUE-162" value="CalcCommand(transactionService: TransactionService, transaction: Transaction)&lt;br&gt;+ execute(): void" style="text;strokeColor=none;fillColor=#FFFFFF;align=left;verticalAlign=top;spacingLeft=4;spacingRight=4;overflow=hidden;rotatable=0;points=[[0,0.5],[1,0.5]];portConstraint=eastwest;whiteSpace=wrap;html=1;" parent="J8hBxOplMBVv3ACiszUE-159" vertex="1">
          <mxGeometry y="60" width="310" height="50" as="geometry" />
        </mxCell>
        <mxCell id="J8hBxOplMBVv3ACiszUE-163" value="" style="endArrow=block;endSize=16;endFill=0;html=1;rounded=0;exitX=0;exitY=0.5;exitDx=0;exitDy=0;entryX=1.001;entryY=0.333;entryDx=0;entryDy=0;entryPerimeter=0;" parent="1" source="J8hBxOplMBVv3ACiszUE-151" target="J8hBxOplMBVv3ACiszUE-63" edge="1">
          <mxGeometry x="-1" y="-496" width="160" relative="1" as="geometry">
            <mxPoint x="-1096" y="792" as="sourcePoint" />
            <mxPoint x="-800" y="754" as="targetPoint" />
            <mxPoint x="402" y="310" as="offset" />
          </mxGeometry>
        </mxCell>
        <mxCell id="J8hBxOplMBVv3ACiszUE-164" value="Extends" style="edgeLabel;html=1;align=center;verticalAlign=middle;resizable=0;points=[];" parent="J8hBxOplMBVv3ACiszUE-163" vertex="1" connectable="0">
          <mxGeometry x="-0.0619" y="-2" relative="1" as="geometry">
            <mxPoint as="offset" />
          </mxGeometry>
        </mxCell>
        <mxCell id="J8hBxOplMBVv3ACiszUE-165" value="" style="endArrow=block;endSize=16;endFill=0;html=1;rounded=0;exitX=0;exitY=0.25;exitDx=0;exitDy=0;entryX=1.005;entryY=0.555;entryDx=0;entryDy=0;entryPerimeter=0;" parent="1" source="J8hBxOplMBVv3ACiszUE-155" target="J8hBxOplMBVv3ACiszUE-63" edge="1">
          <mxGeometry x="-1" y="-496" width="160" relative="1" as="geometry">
            <mxPoint x="-1150" y="830" as="sourcePoint" />
            <mxPoint x="-789" y="746" as="targetPoint" />
            <mxPoint x="402" y="310" as="offset" />
          </mxGeometry>
        </mxCell>
        <mxCell id="J8hBxOplMBVv3ACiszUE-166" value="Extends" style="edgeLabel;html=1;align=center;verticalAlign=middle;resizable=0;points=[];" parent="J8hBxOplMBVv3ACiszUE-165" vertex="1" connectable="0">
          <mxGeometry x="-0.0619" y="-2" relative="1" as="geometry">
            <mxPoint as="offset" />
          </mxGeometry>
        </mxCell>
        <mxCell id="J8hBxOplMBVv3ACiszUE-167" value="" style="endArrow=block;endSize=16;endFill=0;html=1;rounded=0;exitX=-0.008;exitY=0.174;exitDx=0;exitDy=0;exitPerimeter=0;entryX=1;entryY=0.75;entryDx=0;entryDy=0;" parent="1" source="J8hBxOplMBVv3ACiszUE-159" target="J8hBxOplMBVv3ACiszUE-63" edge="1">
          <mxGeometry x="-1" y="-496" width="160" relative="1" as="geometry">
            <mxPoint x="-1150" y="830" as="sourcePoint" />
            <mxPoint x="-789" y="746" as="targetPoint" />
            <mxPoint x="402" y="310" as="offset" />
          </mxGeometry>
        </mxCell>
        <mxCell id="J8hBxOplMBVv3ACiszUE-168" value="Extends" style="edgeLabel;html=1;align=center;verticalAlign=middle;resizable=0;points=[];" parent="J8hBxOplMBVv3ACiszUE-167" vertex="1" connectable="0">
          <mxGeometry x="-0.0619" y="-2" relative="1" as="geometry">
            <mxPoint as="offset" />
          </mxGeometry>
        </mxCell>
        <mxCell id="_6pt22rpabUaOoZNR9Ep-4" value="AvgHouseCommand" style="swimlane;fontStyle=1;align=center;verticalAlign=top;childLayout=stackLayout;horizontal=1;startSize=26;horizontalStack=0;resizeParent=1;resizeParentMax=0;resizeLast=0;collapsible=1;marginBottom=0;whiteSpace=wrap;html=1;" vertex="1" parent="1">
          <mxGeometry x="260" y="1110" width="350" height="110" as="geometry" />
        </mxCell>
        <mxCell id="_6pt22rpabUaOoZNR9Ep-5" value="-&amp;nbsp;" style="text;strokeColor=none;fillColor=#FFFFFF;align=left;verticalAlign=top;spacingLeft=4;spacingRight=4;overflow=hidden;rotatable=0;points=[[0,0.5],[1,0.5]];portConstraint=eastwest;whiteSpace=wrap;html=1;" vertex="1" parent="_6pt22rpabUaOoZNR9Ep-4">
          <mxGeometry y="26" width="350" height="26" as="geometry" />
        </mxCell>
        <mxCell id="_6pt22rpabUaOoZNR9Ep-6" value="" style="line;strokeWidth=1;fillColor=none;align=left;verticalAlign=middle;spacingTop=-1;spacingLeft=3;spacingRight=3;rotatable=0;labelPosition=right;points=[];portConstraint=eastwest;strokeColor=inherit;" vertex="1" parent="_6pt22rpabUaOoZNR9Ep-4">
          <mxGeometry y="52" width="350" height="8" as="geometry" />
        </mxCell>
        <mxCell id="_6pt22rpabUaOoZNR9Ep-7" value="AvgHouseCommand(transactionService: TransactionService)&lt;br&gt;+ execute(): void" style="text;strokeColor=none;fillColor=#FFFFFF;align=left;verticalAlign=top;spacingLeft=4;spacingRight=4;overflow=hidden;rotatable=0;points=[[0,0.5],[1,0.5]];portConstraint=eastwest;whiteSpace=wrap;html=1;" vertex="1" parent="_6pt22rpabUaOoZNR9Ep-4">
          <mxGeometry y="60" width="350" height="50" as="geometry" />
        </mxCell>
        <mxCell id="_6pt22rpabUaOoZNR9Ep-8" value="AvgLandCommand" style="swimlane;fontStyle=1;align=center;verticalAlign=top;childLayout=stackLayout;horizontal=1;startSize=26;horizontalStack=0;resizeParent=1;resizeParentMax=0;resizeLast=0;collapsible=1;marginBottom=0;whiteSpace=wrap;html=1;" vertex="1" parent="1">
          <mxGeometry x="202.5" y="1240" width="347.5" height="110" as="geometry" />
        </mxCell>
        <mxCell id="_6pt22rpabUaOoZNR9Ep-9" value="-&amp;nbsp;" style="text;strokeColor=none;fillColor=#FFFFFF;align=left;verticalAlign=top;spacingLeft=4;spacingRight=4;overflow=hidden;rotatable=0;points=[[0,0.5],[1,0.5]];portConstraint=eastwest;whiteSpace=wrap;html=1;" vertex="1" parent="_6pt22rpabUaOoZNR9Ep-8">
          <mxGeometry y="26" width="347.5" height="26" as="geometry" />
        </mxCell>
        <mxCell id="_6pt22rpabUaOoZNR9Ep-10" value="" style="line;strokeWidth=1;fillColor=none;align=left;verticalAlign=middle;spacingTop=-1;spacingLeft=3;spacingRight=3;rotatable=0;labelPosition=right;points=[];portConstraint=eastwest;strokeColor=inherit;" vertex="1" parent="_6pt22rpabUaOoZNR9Ep-8">
          <mxGeometry y="52" width="347.5" height="8" as="geometry" />
        </mxCell>
        <mxCell id="_6pt22rpabUaOoZNR9Ep-11" value="AvgHouseCommand(transactionService: TransactionService)&lt;br&gt;+ execute(): void" style="text;strokeColor=none;fillColor=#FFFFFF;align=left;verticalAlign=top;spacingLeft=4;spacingRight=4;overflow=hidden;rotatable=0;points=[[0,0.5],[1,0.5]];portConstraint=eastwest;whiteSpace=wrap;html=1;" vertex="1" parent="_6pt22rpabUaOoZNR9Ep-8">
          <mxGeometry y="60" width="347.5" height="50" as="geometry" />
        </mxCell>
        <mxCell id="_6pt22rpabUaOoZNR9Ep-12" value="" style="endArrow=block;endSize=16;endFill=0;html=1;rounded=0;exitX=1;exitY=0.873;exitDx=0;exitDy=0;entryX=0.303;entryY=0.008;entryDx=0;entryDy=0;entryPerimeter=0;exitPerimeter=0;" edge="1" parent="1" source="_6pt22rpabUaOoZNR9Ep-7" target="J8hBxOplMBVv3ACiszUE-63">
          <mxGeometry x="-1" y="-496" width="160" relative="1" as="geometry">
            <mxPoint x="640" y="1149" as="sourcePoint" />
            <mxPoint x="730" y="1448" as="targetPoint" />
            <mxPoint x="402" y="310" as="offset" />
          </mxGeometry>
        </mxCell>
        <mxCell id="_6pt22rpabUaOoZNR9Ep-13" value="Extends" style="edgeLabel;html=1;align=center;verticalAlign=middle;resizable=0;points=[];" vertex="1" connectable="0" parent="_6pt22rpabUaOoZNR9Ep-12">
          <mxGeometry x="-0.0619" y="-2" relative="1" as="geometry">
            <mxPoint as="offset" />
          </mxGeometry>
        </mxCell>
        <mxCell id="_6pt22rpabUaOoZNR9Ep-14" value="" style="endArrow=block;endSize=16;endFill=0;html=1;rounded=0;exitX=1;exitY=0.75;exitDx=0;exitDy=0;entryX=0.077;entryY=-0.016;entryDx=0;entryDy=0;entryPerimeter=0;" edge="1" parent="1" source="_6pt22rpabUaOoZNR9Ep-8" target="J8hBxOplMBVv3ACiszUE-63">
          <mxGeometry x="-1" y="-496" width="160" relative="1" as="geometry">
            <mxPoint x="560" y="1199" as="sourcePoint" />
            <mxPoint x="679" y="1449" as="targetPoint" />
            <mxPoint x="402" y="310" as="offset" />
          </mxGeometry>
        </mxCell>
        <mxCell id="_6pt22rpabUaOoZNR9Ep-15" value="Extends" style="edgeLabel;html=1;align=center;verticalAlign=middle;resizable=0;points=[];" vertex="1" connectable="0" parent="_6pt22rpabUaOoZNR9Ep-14">
          <mxGeometry x="-0.0619" y="-2" relative="1" as="geometry">
            <mxPoint as="offset" />
          </mxGeometry>
        </mxCell>
        <mxCell id="_6pt22rpabUaOoZNR9Ep-16" value="CountLandCommand" style="swimlane;fontStyle=1;align=center;verticalAlign=top;childLayout=stackLayout;horizontal=1;startSize=26;horizontalStack=0;resizeParent=1;resizeParentMax=0;resizeLast=0;collapsible=1;marginBottom=0;whiteSpace=wrap;html=1;" vertex="1" parent="1">
          <mxGeometry x="1360" y="1540" width="360" height="110" as="geometry" />
        </mxCell>
        <mxCell id="_6pt22rpabUaOoZNR9Ep-17" value="- loai: String" style="text;strokeColor=none;fillColor=#FFFFFF;align=left;verticalAlign=top;spacingLeft=4;spacingRight=4;overflow=hidden;rotatable=0;points=[[0,0.5],[1,0.5]];portConstraint=eastwest;whiteSpace=wrap;html=1;" vertex="1" parent="_6pt22rpabUaOoZNR9Ep-16">
          <mxGeometry y="26" width="360" height="26" as="geometry" />
        </mxCell>
        <mxCell id="_6pt22rpabUaOoZNR9Ep-18" value="" style="line;strokeWidth=1;fillColor=none;align=left;verticalAlign=middle;spacingTop=-1;spacingLeft=3;spacingRight=3;rotatable=0;labelPosition=right;points=[];portConstraint=eastwest;strokeColor=inherit;" vertex="1" parent="_6pt22rpabUaOoZNR9Ep-16">
          <mxGeometry y="52" width="360" height="8" as="geometry" />
        </mxCell>
        <mxCell id="_6pt22rpabUaOoZNR9Ep-19" value="CountLandCommand(transactionService: TransactionService, loai: String)&lt;br&gt;+ execute(): void" style="text;strokeColor=none;fillColor=#FFFFFF;align=left;verticalAlign=top;spacingLeft=4;spacingRight=4;overflow=hidden;rotatable=0;points=[[0,0.5],[1,0.5]];portConstraint=eastwest;whiteSpace=wrap;html=1;" vertex="1" parent="_6pt22rpabUaOoZNR9Ep-16">
          <mxGeometry y="60" width="360" height="50" as="geometry" />
        </mxCell>
        <mxCell id="_6pt22rpabUaOoZNR9Ep-20" value="" style="endArrow=block;endSize=16;endFill=0;html=1;rounded=0;entryX=1.004;entryY=0.455;entryDx=0;entryDy=0;entryPerimeter=0;" edge="1" parent="1" target="J8hBxOplMBVv3ACiszUE-63">
          <mxGeometry x="-1" y="-496" width="160" relative="1" as="geometry">
            <mxPoint x="1350" y="1560" as="sourcePoint" />
            <mxPoint x="860" y="1492" as="targetPoint" />
            <mxPoint x="402" y="310" as="offset" />
          </mxGeometry>
        </mxCell>
        <mxCell id="_6pt22rpabUaOoZNR9Ep-21" value="Extends" style="edgeLabel;html=1;align=center;verticalAlign=middle;resizable=0;points=[];" vertex="1" connectable="0" parent="_6pt22rpabUaOoZNR9Ep-20">
          <mxGeometry x="-0.0619" y="-2" relative="1" as="geometry">
            <mxPoint as="offset" />
          </mxGeometry>
        </mxCell>
        <mxCell id="_6pt22rpabUaOoZNR9Ep-24" value="&lt;p style=&quot;margin:0px;margin-top:4px;text-align:center;&quot;&gt;&lt;b&gt;JMenuBar&lt;/b&gt;&lt;/p&gt;&lt;hr size=&quot;1&quot; style=&quot;border-style:solid;&quot;&gt;&lt;p style=&quot;margin:0px;margin-left:4px;&quot;&gt;-&amp;nbsp;&lt;/p&gt;&lt;hr size=&quot;1&quot; style=&quot;border-style:solid;&quot;&gt;&lt;p style=&quot;margin:0px;margin-left:4px;&quot;&gt;+&amp;nbsp;&lt;/p&gt;" style="verticalAlign=top;align=left;overflow=fill;html=1;whiteSpace=wrap;" vertex="1" parent="1">
          <mxGeometry x="-810" y="1140" width="160" height="80" as="geometry" />
        </mxCell>
        <mxCell id="_6pt22rpabUaOoZNR9Ep-26" value="&lt;p style=&quot;margin:0px;margin-top:4px;text-align:center;&quot;&gt;&lt;b&gt;JTable&lt;/b&gt;&lt;/p&gt;&lt;hr size=&quot;1&quot; style=&quot;border-style:solid;&quot;&gt;&lt;p style=&quot;margin:0px;margin-left:4px;&quot;&gt;-&amp;nbsp;&lt;/p&gt;&lt;hr size=&quot;1&quot; style=&quot;border-style:solid;&quot;&gt;&lt;p style=&quot;margin:0px;margin-left:4px;&quot;&gt;+&amp;nbsp;&lt;/p&gt;" style="verticalAlign=top;align=left;overflow=fill;html=1;whiteSpace=wrap;" vertex="1" parent="1">
          <mxGeometry x="-810" y="1340" width="160" height="80" as="geometry" />
        </mxCell>
        <mxCell id="_6pt22rpabUaOoZNR9Ep-27" value="&lt;p style=&quot;margin:0px;margin-top:4px;text-align:center;&quot;&gt;&lt;b&gt;JButton&lt;/b&gt;&lt;/p&gt;&lt;hr size=&quot;1&quot; style=&quot;border-style:solid;&quot;&gt;&lt;p style=&quot;margin:0px;margin-left:4px;&quot;&gt;-&amp;nbsp;&lt;/p&gt;&lt;hr size=&quot;1&quot; style=&quot;border-style:solid;&quot;&gt;&lt;p style=&quot;margin:0px;margin-left:4px;&quot;&gt;+&amp;nbsp;&lt;/p&gt;" style="verticalAlign=top;align=left;overflow=fill;html=1;whiteSpace=wrap;" vertex="1" parent="1">
          <mxGeometry x="-810" y="1450" width="160" height="80" as="geometry" />
        </mxCell>
        <mxCell id="_6pt22rpabUaOoZNR9Ep-28" value="&lt;p style=&quot;margin:0px;margin-top:4px;text-align:center;&quot;&gt;&lt;b&gt;JLabel&lt;/b&gt;&lt;/p&gt;&lt;hr size=&quot;1&quot; style=&quot;border-style:solid;&quot;&gt;&lt;p style=&quot;margin:0px;margin-left:4px;&quot;&gt;-&amp;nbsp;&lt;/p&gt;&lt;hr size=&quot;1&quot; style=&quot;border-style:solid;&quot;&gt;&lt;p style=&quot;margin:0px;margin-left:4px;&quot;&gt;+&amp;nbsp;&lt;/p&gt;" style="verticalAlign=top;align=left;overflow=fill;html=1;whiteSpace=wrap;" vertex="1" parent="1">
          <mxGeometry x="-810" y="1550" width="160" height="80" as="geometry" />
        </mxCell>
        <mxCell id="_6pt22rpabUaOoZNR9Ep-29" value="&lt;p style=&quot;margin:0px;margin-top:4px;text-align:center;&quot;&gt;&lt;b&gt;JTextField&lt;/b&gt;&lt;/p&gt;&lt;hr size=&quot;1&quot; style=&quot;border-style:solid;&quot;&gt;&lt;p style=&quot;margin:0px;margin-left:4px;&quot;&gt;-&amp;nbsp;&lt;/p&gt;&lt;hr size=&quot;1&quot; style=&quot;border-style:solid;&quot;&gt;&lt;p style=&quot;margin:0px;margin-left:4px;&quot;&gt;+&amp;nbsp;&lt;/p&gt;" style="verticalAlign=top;align=left;overflow=fill;html=1;whiteSpace=wrap;" vertex="1" parent="1">
          <mxGeometry x="-810" y="1650" width="160" height="80" as="geometry" />
        </mxCell>
        <mxCell id="_6pt22rpabUaOoZNR9Ep-30" value="&lt;p style=&quot;margin:0px;margin-top:4px;text-align:center;&quot;&gt;&lt;b&gt;DefaultTableModel&lt;/b&gt;&lt;/p&gt;&lt;hr size=&quot;1&quot; style=&quot;border-style:solid;&quot;&gt;&lt;p style=&quot;margin:0px;margin-left:4px;&quot;&gt;-&amp;nbsp;&lt;/p&gt;&lt;hr size=&quot;1&quot; style=&quot;border-style:solid;&quot;&gt;&lt;p style=&quot;margin:0px;margin-left:4px;&quot;&gt;+&amp;nbsp;&lt;/p&gt;" style="verticalAlign=top;align=left;overflow=fill;html=1;whiteSpace=wrap;" vertex="1" parent="1">
          <mxGeometry x="-810" y="1240" width="160" height="80" as="geometry" />
        </mxCell>
        <mxCell id="_6pt22rpabUaOoZNR9Ep-31" value="&lt;p style=&quot;margin:0px;margin-top:4px;text-align:center;&quot;&gt;&lt;b&gt;JComboBox&lt;/b&gt;&lt;/p&gt;&lt;hr size=&quot;1&quot; style=&quot;border-style:solid;&quot;&gt;&lt;p style=&quot;margin:0px;margin-left:4px;&quot;&gt;-&amp;nbsp;&lt;/p&gt;&lt;hr size=&quot;1&quot; style=&quot;border-style:solid;&quot;&gt;&lt;p style=&quot;margin:0px;margin-left:4px;&quot;&gt;+&amp;nbsp;&lt;/p&gt;" style="verticalAlign=top;align=left;overflow=fill;html=1;whiteSpace=wrap;" vertex="1" parent="1">
          <mxGeometry x="-810" y="1750" width="160" height="80" as="geometry" />
        </mxCell>
        <mxCell id="_6pt22rpabUaOoZNR9Ep-32" value="&lt;div style=&quot;text-align: center;&quot;&gt;&lt;b&gt;org.jdesktop.swingx.JXDatePicker&lt;/b&gt;&lt;/div&gt;&lt;hr size=&quot;1&quot; style=&quot;border-style:solid;&quot;&gt;&lt;p style=&quot;margin:0px;margin-left:4px;&quot;&gt;-&amp;nbsp;&lt;/p&gt;&lt;hr size=&quot;1&quot; style=&quot;border-style:solid;&quot;&gt;&lt;p style=&quot;margin:0px;margin-left:4px;&quot;&gt;+&amp;nbsp;&lt;/p&gt;" style="verticalAlign=top;align=left;overflow=fill;html=1;whiteSpace=wrap;" vertex="1" parent="1">
          <mxGeometry x="-840" y="1860" width="240" height="80" as="geometry" />
        </mxCell>
        <mxCell id="_6pt22rpabUaOoZNR9Ep-33" value="" style="endArrow=diamondThin;endFill=1;endSize=24;html=1;rounded=0;exitX=1;exitY=0.5;exitDx=0;exitDy=0;entryX=-0.006;entryY=0.002;entryDx=0;entryDy=0;entryPerimeter=0;" edge="1" parent="1" source="_6pt22rpabUaOoZNR9Ep-24" target="J8hBxOplMBVv3ACiszUE-9">
          <mxGeometry width="160" relative="1" as="geometry">
            <mxPoint x="-630" y="1220" as="sourcePoint" />
            <mxPoint x="-470" y="1220" as="targetPoint" />
          </mxGeometry>
        </mxCell>
        <mxCell id="_6pt22rpabUaOoZNR9Ep-34" value="" style="endArrow=diamondThin;endFill=1;endSize=24;html=1;rounded=0;exitX=1;exitY=0.5;exitDx=0;exitDy=0;entryX=0.002;entryY=0.305;entryDx=0;entryDy=0;entryPerimeter=0;" edge="1" parent="1" source="_6pt22rpabUaOoZNR9Ep-30" target="J8hBxOplMBVv3ACiszUE-9">
          <mxGeometry width="160" relative="1" as="geometry">
            <mxPoint x="-640" y="1190" as="sourcePoint" />
            <mxPoint x="-494" y="1326" as="targetPoint" />
          </mxGeometry>
        </mxCell>
        <mxCell id="_6pt22rpabUaOoZNR9Ep-35" value="" style="endArrow=diamondThin;endFill=1;endSize=24;html=1;rounded=0;exitX=1;exitY=0.5;exitDx=0;exitDy=0;entryX=0;entryY=0.674;entryDx=0;entryDy=0;entryPerimeter=0;" edge="1" parent="1" source="_6pt22rpabUaOoZNR9Ep-26" target="J8hBxOplMBVv3ACiszUE-9">
          <mxGeometry width="160" relative="1" as="geometry">
            <mxPoint x="-640" y="1290" as="sourcePoint" />
            <mxPoint x="-489" y="1382" as="targetPoint" />
          </mxGeometry>
        </mxCell>
        <mxCell id="_6pt22rpabUaOoZNR9Ep-36" value="" style="endArrow=diamondThin;endFill=1;endSize=24;html=1;rounded=0;exitX=1;exitY=0.5;exitDx=0;exitDy=0;entryX=-0.006;entryY=0.953;entryDx=0;entryDy=0;entryPerimeter=0;" edge="1" parent="1" source="_6pt22rpabUaOoZNR9Ep-27" target="J8hBxOplMBVv3ACiszUE-9">
          <mxGeometry width="160" relative="1" as="geometry">
            <mxPoint x="-640" y="1390" as="sourcePoint" />
            <mxPoint x="-490" y="1418" as="targetPoint" />
          </mxGeometry>
        </mxCell>
        <mxCell id="_6pt22rpabUaOoZNR9Ep-37" value="" style="endArrow=diamondThin;endFill=1;endSize=24;html=1;rounded=0;exitX=1;exitY=0.5;exitDx=0;exitDy=0;entryX=-0.002;entryY=0.236;entryDx=0;entryDy=0;entryPerimeter=0;" edge="1" parent="1" source="_6pt22rpabUaOoZNR9Ep-28" target="J8hBxOplMBVv3ACiszUE-11">
          <mxGeometry width="160" relative="1" as="geometry">
            <mxPoint x="-640" y="1500" as="sourcePoint" />
            <mxPoint x="-490" y="1470" as="targetPoint" />
          </mxGeometry>
        </mxCell>
        <mxCell id="_6pt22rpabUaOoZNR9Ep-38" value="" style="endArrow=diamondThin;endFill=1;endSize=24;html=1;rounded=0;exitX=1;exitY=0.5;exitDx=0;exitDy=0;entryX=0;entryY=0.5;entryDx=0;entryDy=0;" edge="1" parent="1" source="_6pt22rpabUaOoZNR9Ep-29" target="J8hBxOplMBVv3ACiszUE-11">
          <mxGeometry width="160" relative="1" as="geometry">
            <mxPoint x="-640" y="1600" as="sourcePoint" />
            <mxPoint x="-491" y="1596" as="targetPoint" />
          </mxGeometry>
        </mxCell>
        <mxCell id="_6pt22rpabUaOoZNR9Ep-39" value="" style="endArrow=diamondThin;endFill=1;endSize=24;html=1;rounded=0;exitX=1;exitY=0.5;exitDx=0;exitDy=0;entryX=-0.008;entryY=0.723;entryDx=0;entryDy=0;entryPerimeter=0;" edge="1" parent="1" source="_6pt22rpabUaOoZNR9Ep-31" target="J8hBxOplMBVv3ACiszUE-11">
          <mxGeometry width="160" relative="1" as="geometry">
            <mxPoint x="-640" y="1700" as="sourcePoint" />
            <mxPoint x="-490" y="1684" as="targetPoint" />
          </mxGeometry>
        </mxCell>
        <mxCell id="_6pt22rpabUaOoZNR9Ep-40" value="" style="endArrow=diamondThin;endFill=1;endSize=24;html=1;rounded=0;exitX=1;exitY=0.5;exitDx=0;exitDy=0;entryX=-0.004;entryY=0.954;entryDx=0;entryDy=0;entryPerimeter=0;" edge="1" parent="1" source="_6pt22rpabUaOoZNR9Ep-32" target="J8hBxOplMBVv3ACiszUE-11">
          <mxGeometry width="160" relative="1" as="geometry">
            <mxPoint x="-640" y="1800" as="sourcePoint" />
            <mxPoint x="-495" y="1758" as="targetPoint" />
          </mxGeometry>
        </mxCell>
        <mxCell id="_6pt22rpabUaOoZNR9Ep-41" value="&lt;b&gt;&lt;font style=&quot;font-size: 72px;&quot;&gt;Presentation&lt;/font&gt;&lt;/b&gt;" style="text;html=1;strokeColor=none;fillColor=none;align=center;verticalAlign=middle;whiteSpace=wrap;rounded=0;" vertex="1" parent="1">
          <mxGeometry x="1300" y="950" width="450" height="90" as="geometry" />
        </mxCell>
        <mxCell id="_6pt22rpabUaOoZNR9Ep-42" value="&lt;b&gt;&lt;font style=&quot;font-size: 72px;&quot;&gt;Domain&lt;/font&gt;&lt;/b&gt;" style="text;html=1;strokeColor=none;fillColor=none;align=center;verticalAlign=middle;whiteSpace=wrap;rounded=0;" vertex="1" parent="1">
          <mxGeometry x="870" y="2040" width="450" height="90" as="geometry" />
        </mxCell>
        <mxCell id="_6pt22rpabUaOoZNR9Ep-43" value="&lt;font style=&quot;font-size: 72px;&quot;&gt;&lt;b&gt;Persistence&lt;/b&gt;&lt;/font&gt;" style="text;html=1;strokeColor=none;fillColor=none;align=center;verticalAlign=middle;whiteSpace=wrap;rounded=0;" vertex="1" parent="1">
          <mxGeometry x="785" y="3110" width="450" height="90" as="geometry" />
        </mxCell>
      </root>
    </mxGraphModel>
  </diagram>
</mxfile>
